<?xml version="1.0" encoding="UTF-8" standalone="no"?><!DOCTYPE svg PUBLIC "-//W3C//DTD SVG 1.1//EN" "http://www.w3.org/Graphics/SVG/1.1/DTD/svg11.dtd"><svg width="100%" height="100%" viewBox="0 0 5542 5929" version="1.1" xmlns="http://www.w3.org/2000/svg" xmlns:xlink="http://www.w3.org/1999/xlink" xml:space="preserve" xmlns:serif="http://www.serif.com/" style="fill-rule:evenodd;clip-rule:evenodd;stroke-linejoin:round;stroke-miterlimit:2;"><g><path d="M4979.86,378.241l558.518,4563.27c28.866,235.842 -139.173,450.751 -375.015,479.617l-4122,504.509c-235.842,28.866 -450.751,-139.173 -479.616,-375.015l-558.519,-4563.27c-28.865,-235.841 139.173,-450.75 375.015,-479.616l4122,-504.51c235.842,-28.865 450.751,139.173 479.617,375.015Z" style="fill:#fff;"/><g><path d="M1974.04,1761.77l-3.24,-0l-0,40.093l3.24,-0c10.919,-0 23.207,-2.556 23.207,-20.065c0,-17.473 -12.288,-20.028 -23.207,-20.028Z" style="fill:#ed1c24;fill-rule:nonzero;"/><path d="M3272.49,1765.16l-7.837,-0l-0,90.029l7.532,-0c19.93,-0 37.011,-13.658 37.011,-45.009c0,-28.783 -15.186,-45.02 -36.706,-45.02Z" style="fill:#ed1c24;fill-rule:nonzero;"/><path d="M3278.65,1890.61l-47.454,-0l0,-160.837l47.454,0c35.838,0 65.342,35.166 65.342,80.406c-0,45.229 -29.688,80.431 -65.342,80.431Zm-120.744,-0l-33.453,-0l-0,-160.837l33.453,0l0,160.837Zm-105.655,-125.451l-39.763,-0l0,26.887l37.709,0l0,35.423l-37.709,-0l0,27.719l39.763,-0l0,35.422l-73.216,-0l-0,-160.837l73.216,0l0,35.386Zm-146.579,125.451l-33.454,-0l0,-65.942l-48.297,0l-0,65.942l-33.454,-0l0,-160.837l33.454,0l-0,62.066l48.297,-0l0,-62.066l33.454,0l-0,160.837Zm-187.394,-106.866c-6.835,-11.542 -17.913,-17.729 -29.357,-17.729c-20.481,-0 -34.285,19.637 -34.285,44.592c-0,25.384 13.987,43.725 34.786,43.725c10.943,-0 21.862,-6.615 28.856,-17.057l0,50.131c-11.078,4.255 -19.111,7.447 -29.516,7.447c-17.938,-0 -34.995,-8.523 -48.322,-23.66c-14.159,-16.005 -20.64,-36.902 -20.64,-60.806c0,-21.972 6.664,-43.076 18.952,-58.862c12.631,-16.213 30.899,-26.031 48.983,-26.031c10.747,-0 20.651,2.983 30.543,8.119l0,50.131Zm-172.709,95.971c-10.075,10.675 -23.55,15.138 -36.522,15.138c-16.214,-0 -32.085,-6.823 -45.229,-18.341l14.343,-33.686c8.363,9.17 18.255,16.641 29.687,16.641c7.85,0 16.213,-4.915 16.213,-16.213c0,-11.751 -13.132,-15.785 -20.297,-18.341c-21.006,-7.483 -34.823,-14.306 -34.823,-45.448c0,-32.647 18.61,-53.971 44.385,-53.971c12.961,-0 28.832,5.111 40.264,13.23l-13.315,32.426c-6.138,-6.419 -13.988,-10.674 -22.18,-10.674c-6.151,-0 -14.331,4.463 -14.331,13.45c0,9.378 9.036,13.009 14.844,15.357l8.535,3.191c17.912,6.615 31.741,17.913 31.741,43.945c0,16.005 -3.069,32.439 -13.315,43.296Zm-175.093,10.895l-9.391,-92.585l-0.342,0l-30.886,92.585l-13.315,-0l-29.517,-92.585l-0.354,0l-10.748,92.585l-33.27,-0l21.838,-160.837l32.94,0l26.105,85.945l27.658,-85.945l33.27,0l19.465,160.837l-33.453,-0Zm-192.334,-125.451l-39.763,-0l0,26.887l37.709,0l0,35.423l-37.709,-0l0,27.719l39.763,-0l0,35.422l-73.204,-0l0,-160.837l73.204,0l0,35.386Zm-175.435,125.451l-31.571,-61.858l-0.342,0l-0,61.858l-33.454,-0l0,-160.837l49.997,0c25.445,0 44.715,15.138 44.715,49.471c-0,22.193 -9.892,41.39 -28.159,45.424l40.447,65.942l-41.633,-0Zm-1387.45,-230.312l-0,299.249l4044.12,-0l-0,-299.249l-4044.12,0Z" style="fill:#ed1c24;fill-rule:nonzero;"/><path d="M903.24,1324.23l-21.837,-113.48c-5.454,-27.316 -8.877,-55.475 -12.289,-82.778l-6.823,-0l-34.126,196.258l75.075,0Zm-123.555,232.94l-197.958,0l178.847,-643.369l206.847,-0l183.628,643.369l-197.971,0l-17.057,-80.185l-141.321,-0l-15.015,80.185Z" style="fill:#231f20;fill-rule:nonzero;"/><path d="M1198.5,1128.26l124.705,0l0,291.264l104.677,-0l0,137.653l-229.382,0l0,-428.917Z" style="fill:#231f20;fill-rule:nonzero;"/><path d="M1477.03,1128.26l124.705,0l0,291.264l104.665,-0l0,137.653l-229.37,0l0,-428.917Z" style="fill:#231f20;fill-rule:nonzero;"/><path d="M1753.73,1128.26l230.74,0l-0,117.198l-105.13,-0l0,40.948l96.02,0l0,111.5l-96.02,0l0,42.098l108.761,0l0,117.173l-234.371,0l0,-428.917Z" style="fill:#231f20;fill-rule:nonzero;"/><path d="M2052.73,1128.26l230.727,0l-0,117.198l-105.129,-0l-0,40.948l96.032,0l-0,111.5l-96.032,0l-0,42.098l108.773,0l-0,117.173l-234.371,0l-0,-428.917Z" style="fill:#231f20;fill-rule:nonzero;"/><rect x="2354.45" y="1338.17" width="162.475" height="125.145" style="fill:#231f20;fill-rule:nonzero;"/><path d="M2985.18,1174.91c-30.018,-34.994 -67.568,-64.865 -109.874,-64.865c-55.988,-0 -101.742,55.474 -101.742,125.451c0,70.82 48.456,125.426 104.432,125.426c43.04,0 77.166,-23.036 107.184,-59.73l-5.441,240.619c-30.042,17.913 -99.688,25.604 -133.118,25.604c-146.775,-0 -261.453,-142.496 -261.453,-325.952c-0,-187.724 118.09,-337.899 268.973,-337.899c42.318,0 85.994,9.379 125.598,26.448l5.441,244.898Z" style="fill:#231f20;fill-rule:nonzero;"/><path d="M3058.16,1128.26l230.739,0l0,117.198l-105.129,-0l-0,40.948l96.008,0l-0,111.5l-96.008,0l-0,42.098l108.761,0l-0,117.173l-234.371,0l0,-428.917Z" style="fill:#231f20;fill-rule:nonzero;"/><path d="M3357.15,1128.26l119.692,0l111.928,237.794l3.656,0c-4.989,-35.838 -10.467,-72.825 -10.467,-109.237l0,-128.557l119.24,0l-0,428.917l-119.24,0l-109.653,-225.261l-3.656,0c4.084,29.578 7.74,57.456 7.74,85.896l-0,139.365l-119.24,0l0,-428.917Z" style="fill:#231f20;fill-rule:nonzero;"/><path d="M3747.16,1128.26l262.138,0l0,139.378l-68.704,-3.986l-0,293.525l-124.717,0l-0,-293.525l-68.717,3.986l-0,-139.378Z" style="fill:#231f20;fill-rule:nonzero;"/><path d="M4055.26,1128.26l230.751,0l0,117.198l-105.129,-0l0,40.948l95.996,0l0,111.5l-95.996,0l0,42.098l108.724,0l0,117.173l-234.346,0l0,-428.917Z" style="fill:#231f20;fill-rule:nonzero;"/><path d="M4478.04,1318.25l8.644,0c20.481,0 40.949,-3.974 40.949,-35.838c0,-32.989 -18.646,-36.962 -40.044,-36.962l-9.549,-0l-0,72.8Zm-121.967,-189.998l150.639,0c77.349,0 142.887,40.961 142.887,149.049c0,64.853 -20.016,92.157 -66.418,111.488l0,3.424c6.358,6.26 14.098,13.083 20.921,25.591l74.635,139.365l-143.816,0l-54.595,-137.653l-2.286,-0l-0,137.653l-121.967,0l0,-428.917Z" style="fill:#231f20;fill-rule:nonzero;"/></g></g></svg>