<?xml version="1.0" encoding="UTF-8" standalone="no"?><!DOCTYPE svg PUBLIC "-//W3C//DTD SVG 1.1//EN" "http://www.w3.org/Graphics/SVG/1.1/DTD/svg11.dtd"><svg width="100%" height="100%" viewBox="0 0 1670438 1787121" version="1.1" xmlns="http://www.w3.org/2000/svg" xmlns:xlink="http://www.w3.org/1999/xlink" xml:space="preserve" xmlns:serif="http://www.serif.com/" style="fill-rule:evenodd;clip-rule:evenodd;stroke-linejoin:round;stroke-miterlimit:2;"><g><path d="M1500970.554,114004.913l168341.875,1375406.908c8700.45,71084.704 -41947.917,135860.017 -113032.55,144560.471l-1242404.512,152063.142c-71084.704,8700.45 -135860.017,-41947.846 -144560.192,-113032.55l-168342.154,-1375406.908c-8700.158,-71084.429 41947.846,-135859.742 113032.55,-144560.192l1242404.512,-152063.438c71084.704,-8700.158 135860.033,41947.917 144560.471,113032.55l0,0.017Z" style="fill:#fff;"/><path d="M129309.254,428305.35l0,-116927.087l82183.038,0l0,22800.783l-58129.463,0l0,22383.196l33157.188,0l0,22800.783l-33157.188,0l0,25974.513l61553.767,0l0,22967.829l-85607.325,0l-0.017,-0.017Zm100701.196,-0.004l0,-95667.675l19680.208,0l0,95667.675l-19680.208,0Zm38746.162,0l0,-95667.675l18040.192,0l36148.717,52412.221c455.554,728.888 1116.129,1822.237 1981.683,3280.033c865.575,1457.796 1526.129,2733.367 1981.683,3826.7c-136.667,-956.683 -239.167,-2198.071 -307.5,-3724.2c-68.333,-1526.129 -102.5,-2676.425 -102.5,-3450.867l0,-52343.888l19543.542,0l0,95667.675l-17288.525,0l-36900.4,-52822.221c-501.113,-728.888 -1173.075,-1845.017 -2015.85,-3348.367c-842.796,-1503.35 -1514.737,-2801.7 -2015.85,-3895.033c182.221,1184.462 284.721,2448.629 307.5,3792.533c22.779,1343.904 34.167,2494.2 34.167,3450.867l0,52822.221l-19406.875,0l0.017,0Zm96350.258,0.017l0,-95667.692l19680.208,0l0,45442.154l35943.717,-45442.154l23506.908,0l-28290.296,34508.7l33757.033,61158.975l-22960.242,0l-24053.596,-44622.133l-17903.525,22345.242l0,22276.908l-19680.208,0Zm88697.221,-0.017l37310.4,-95667.675l18723.525,0l37378.733,95667.675l-21388.558,0l-7311.737,-19201.875l-36148.717,0l-7175.071,19201.875l-21388.575,0Zm35123.679,-37310.4l22960.263,0l-8678.421,-22345.242c-273.333,-683.333 -592.221,-1469.183 -956.683,-2357.517c-364.446,-888.35 -706.113,-1788.071 -1025.017,-2699.2c-318.888,-911.129 -592.221,-1731.129 -820.017,-2460.017c-227.779,728.888 -501.112,1548.904 -820,2460.017c-318.887,911.129 -660.554,1810.85 -1025.017,2699.2c-364.446,888.35 -683.333,1674.183 -956.683,2357.517l-8678.421,22345.242l-0.004,-0Zm103116.267,38950.417c-8108.975,0 -15101.825,-1503.35 -20978.558,-4510.05c-5876.738,-3006.7 -10386.771,-7368.679 -13530.138,-13085.971c-3143.367,-5717.275 -4715.054,-12630.417 -4715.054,-20739.392l0,-58972.292l19680.208,0l0,58972.292c0,6924.513 1560.296,11878.733 4680.888,14862.654c3120.592,2983.925 8074.808,4475.888 14862.658,4475.888c4282.275,0 7869.808,-615 10762.621,-1845.017c2892.812,-1230.017 5068.108,-3268.646 6525.904,-6115.904c1457.796,-2847.258 2186.683,-6639.792 2186.683,-11377.621l0,-58972.292l19680.208,0l0,58972.292c0,6970.071 -1081.963,12892.362 -3245.867,17766.858c-2163.908,4874.496 -5090.883,8826.475 -8780.921,11855.954c-3690.033,3029.479 -7869.808,5238.942 -12539.304,6628.404c-4669.496,1389.463 -9532.604,2084.183 -14589.325,2084.183l0,0.017l-0.004,-0.004Zm57742.362,-1640.017l0,-95667.675l65600.696,0l0,18655.192l-45920.487,0l0,18313.525l29110.312,0l0,18655.192l-29110.312,0l0,40043.75l-19680.208,0l0,0.017Zm106806.408,1640.017c-6104.513,0 -11662.342,-1093.35 -16673.508,-3280.033c-5011.162,-2186.683 -9304.825,-5307.275 -12880.971,-9361.771c-3576.146,-4054.479 -6298.125,-8883.421 -8165.921,-14486.821l17630.192,-6628.404c2095.575,4464.496 4942.829,8120.362 8541.754,10967.621c3598.925,2847.258 7607.867,4270.883 12026.788,4270.883c4555.608,0 8200.088,-911.129 10933.454,-2733.367c2733.367,-1822.237 4100.033,-4464.496 4100.033,-7926.754c0,-2368.908 -797.221,-4327.829 -2391.683,-5876.738c-1594.462,-1548.908 -3781.146,-2904.2 -6560.071,-4065.867c-2778.925,-1161.683 -5967.846,-2334.737 -9566.771,-3519.2c-3553.367,-1184.462 -7152.292,-2494.2 -10796.787,-3929.2c-3644.479,-1435.017 -6992.846,-3223.092 -10045.104,-5364.221c-3052.258,-2141.129 -5500.883,-4863.108 -7345.904,-8165.921c-1845.017,-3302.812 -2767.533,-7391.475 -2767.533,-12265.954c0,-4828.942 1286.963,-9259.271 3860.867,-13290.971c2573.925,-4031.7 6309.513,-7254.792 11206.787,-9669.271c4897.275,-2414.463 10830.954,-3621.7 17801.025,-3621.7c5740.071,0 10842.346,1013.629 15306.825,3040.867c4464.496,2027.242 8154.529,4771.996 11070.121,8234.254c2915.592,3462.258 4965.608,7357.292 6150.071,11685.121l-17493.525,5808.404c-1321.129,-2915.592 -3223.092,-5352.829 -5705.887,-7311.737c-2482.812,-1958.904 -5933.679,-2938.367 -10352.604,-2938.367c-3917.812,0 -6935.904,717.5 -9054.271,2152.517c-2118.35,1435.017 -3177.533,3519.2 -3177.533,6252.571c0,1776.683 717.5,3291.425 2152.517,4544.221c1435.017,1252.796 3416.7,2380.296 5945.071,3382.533c2528.367,1002.242 5432.554,2072.796 8712.588,3211.7c3917.812,1321.129 7812.867,2778.925 11685.121,4373.388c3872.258,1594.463 7391.475,3553.367 10557.604,5876.737c3166.146,2323.35 5694.496,5216.163 7585.088,8678.421c1890.571,3462.258 2835.867,7744.529 2835.867,12846.804c0,6150.071 -1548.904,11389.013 -4646.717,15716.842c-3097.812,4327.829 -7300.346,7642.029 -12607.638,9942.604c-5307.275,2300.571 -11263.733,3450.867 -17869.358,3450.867l0.017,-0.054l-0,-0.004Zm46755.279,-1640.017l0,-17873.142l58630.592,-76336.683l-55039.254,0l0,-22717.258l86860.121,0l0,17873.142l-59215.225,76336.683l59215.225,0l0,22717.258l-90451.458,0Zm107049.425,0l0,-95667.675l67240.713,0l0,18655.192l-47560.504,0l0,18313.525l27128.629,0l0,18655.192l-27128.629,0l0,21251.892l50362.204,0l0,18791.858l-70042.412,0l0,0.017Zm84050.417,0l0,-95667.675l18040.192,0l36148.717,52412.221c455.554,728.888 1116.129,1822.237 1981.683,3280.033c865.575,1457.796 1526.129,2733.367 1981.683,3826.7c-136.667,-956.683 -239.167,-2198.071 -307.5,-3724.2c-68.333,-1526.129 -102.5,-2676.425 -102.5,-3450.867l0,-52343.888l19543.542,0l0,95667.675l-17288.525,0l-36900.383,-52822.221c-501.112,-728.888 -1173.075,-1845.017 -2015.85,-3348.367c-842.796,-1503.35 -1514.742,-2801.7 -2015.85,-3895.033c182.221,1184.462 284.721,2448.629 307.5,3792.533c22.779,1343.904 34.167,2494.2 34.167,3450.867l0,52822.221l-19406.875,0Zm117398.454,0l0,-76807.483l-27333.629,0l0,-18860.192l74415.783,0l0,18860.192l-27401.963,0l0,76807.483l-19680.208,0l0.017,0Zm59860.158,0l0,-95667.675l45510.488,0c8017.863,0 14384.321,1400.85 19099.375,4202.554c4715.05,2801.7 8086.2,6514.513 10113.438,11138.454c2027.238,4623.942 3040.867,9623.717 3040.867,14999.321c0,3598.925 -671.946,7243.404 -2015.85,10933.454c-1343.908,3690.033 -3359.758,7049.792 -6047.571,10079.271c-2687.812,3029.479 -6013.404,5273.108 -9976.771,6730.904l18313.525,37583.733l-22003.558,0l-17630.192,-34645.362l-18723.525,0l0,34645.362l-19680.208,0l-0.017,-0.017Zm19680.208,-53163.887l26103.613,0c2915.592,0 5227.55,-569.446 6935.904,-1708.35c1708.35,-1138.904 2915.592,-2630.867 3621.7,-4475.888c706.113,-1845.017 1059.183,-3815.312 1059.183,-5910.904c0,-1913.35 -330.279,-3781.146 -990.85,-5603.383c-660.554,-1822.237 -1845.017,-3325.592 -3553.367,-4510.05c-1708.35,-1184.462 -4065.867,-1776.683 -7072.571,-1776.683l-26103.613,0l0,23985.263l0,-0.004Zm112819.758,54803.908c-8108.975,0 -15101.825,-1503.35 -20978.558,-4510.05c-5876.738,-3006.7 -10386.771,-7368.679 -13530.137,-13085.971c-3143.367,-5717.275 -4715.054,-12630.417 -4715.054,-20739.392l0,-58972.292l19680.208,0l0,58972.292c0,6924.513 1560.296,11878.733 4680.883,14862.654c3120.592,2983.925 8074.808,4475.888 14862.658,4475.888c4282.275,0 7869.808,-615 10762.621,-1845.017c2892.812,-1230.017 5068.108,-3268.646 6525.904,-6115.904c1457.796,-2847.258 2186.683,-6639.792 2186.683,-11377.621l0,-58972.292l19680.208,0l0,58972.292c0,6970.071 -1081.962,12892.363 -3245.867,17766.858c-2163.908,4874.496 -5090.883,8826.475 -8780.921,11855.954c-3690.033,3029.479 -7869.808,5238.942 -12539.304,6628.404c-4669.496,1389.463 -9532.604,2084.183 -14589.325,2084.183l0,0.017l0,-0.004Zm102569.496,0l-23985.262,-50908.871c-182.221,-410 -387.221,-911.129 -615,-1503.35c-227.779,-592.221 -455.554,-1207.242 -683.333,-1845.017c45.554,546.667 79.721,1150.296 102.5,1810.85c22.779,660.554 34.167,1218.629 34.167,1674.183l0,49132.188l-19680.208,0l0,-95667.675l19816.875,0l23096.908,50908.871c501.113,1002.237 933.908,1970.296 1298.35,2904.2c364.446,933.904 706.113,1924.742 1025.017,2972.533c364.446,-1047.796 728.888,-2061.408 1093.35,-3040.867c364.446,-979.463 751.667,-1924.742 1161.683,-2835.867l23711.908,-50908.871l18313.525,0l0,95667.675l-19611.875,0l0,-51079.704c0,-660.554 22.779,-1195.85 68.333,-1605.85c-227.779,546.667 -466.946,1116.129 -717.5,1708.35c-250.554,592.221 -489.721,1116.129 -717.5,1571.683l-23711.908,51045.537l-0.033,0l0.004,-0Z" style="fill:#231f20;"/><path d="M1451465.85,461566.908l0,97602.204l-1322156.754,0l-0,-97602.204l1322156.754,0Zm-367539.288,74195.017c3974.967,0 7342.221,-742.258 10101.425,-2227.204c2759.183,-1484.946 4998.125,-3460.729 6716.787,-5927.742c1718.679,-2467.012 2969.55,-5196.754 3752.9,-8190.033c783.35,-2992.917 1175.054,-6009.55 1175.054,-9049.183c0,-3039.633 -391.7,-6056.283 -1175.054,-9049.183c-783.35,-2992.917 -2034.221,-5723.092 -3752.9,-8190.033c-1718.679,-2467.012 -3957.604,-4442.779 -6716.787,-5927.742c-2759.183,-1484.946 -6126.442,-2227.204 -10101.425,-2227.204c-3951.612,0 -7318.871,742.258 -10101.425,2227.204c-2782.55,1484.946 -5033.196,3460.729 -6751.875,5927.742c-1718.679,2467.013 -2975.554,5196.754 -3770.625,8190.033c-795.071,2992.917 -1192.413,6009.55 -1192.413,9049.183c0,3039.633 397.342,6056.283 1192.413,9049.183c795.071,2992.917 2051.946,5723.092 3770.625,8190.033c1718.679,2467.013 3969.325,4442.779 6751.875,5927.742c2782.55,1484.946 6149.808,2227.204 10101.425,2227.204Zm0,-10732.862c-1917.396,0 -3536.529,-444.079 -4857.862,-1332.675c-1320.971,-888.525 -2385.192,-2063.662 -3191.979,-3524.808c-806.787,-1461.596 -1385.417,-3051.354 -1736.042,-4770.033c-350.625,-1718.679 -526.25,-3396.267 -526.25,-5033.196c0,-1590.138 169.633,-3244.358 508.542,-4963.038c338.908,-1718.679 906.25,-3314.463 1700.954,-4787.758c795.071,-1473.229 1853.3,-2671.371 3174.271,-3594.983c1320.971,-923.612 2963.904,-1385.417 4928.021,-1385.417c1940.746,0 3571.617,444.079 4892.933,1332.692c1320.971,888.525 2373.471,2057.587 3156.892,3507.517c783.35,1449.879 1344.321,3039.633 1683.592,4770.033c338.904,1730.4 508.542,3437.362 508.542,5121.025c0,1590.138 -181.354,3238.717 -543.613,4945.312c-362.275,1707.033 -946.979,3297.171 -1753.767,4770.033c-806.787,1473.229 -1864.95,2665.658 -3174.254,3577.621c-1309.254,911.963 -2899.446,1368.054 -4770.033,1368.054l0,-0.367l0.071,0l-0.017,-0.017l-0,0.004Zm-489675.887,9891.058l10943.246,0l0,-25113.421c0,-467.812 -6.008,-1058.229 -17.725,-1771.129c-11.721,-713.246 -76.163,-1385.417 -193.004,-2016.858c257.083,561.338 613.717,1250.867 1069.879,2069.304c456.162,818.438 800.713,1391.492 1034.863,1718.679l18168.542,25113.421l9610.537,0l0,-49104.237l-11013.317,0l0,24832.971c0,350.625 17.725,941.338 52.812,1771.129c35.088,830.158 87.812,1478.958 157.987,1946.754c-210.362,-537.971 -549.617,-1204.063 -1017.154,-1999.133c-467.812,-795.071 -806.787,-1344.321 -1017.154,-1648.575l-17747.829,-24903.075l-10031.25,0l0,49104.237l-0.367,0l-0.071,-0.071l0.004,0.004Zm181861.721,0l11083.471,0l0,-16976.129l9329.721,0l8768.733,16976.129l12416.458,0l-9119.358,-18729.896c1847.221,-818.438 3419.633,-2016.858 4717.658,-3594.983c1297.604,-1578.421 2285.658,-3320.538 2963.904,-5226.2c678.158,-1905.675 1017.133,-3758.975 1017.133,-5559.462c0,-2876.008 -531.892,-5530.017 -1595.783,-7962.013c-1063.871,-2431.929 -2823.646,-4378.333 -5278.575,-5839.913c-2455.296,-1461.596 -5775.467,-2192.204 -9961.146,-2192.204l-24341.721,0l0,49104.238l-0.362,0.367l-0.137,0.071l0.004,-0.004Zm11083.471,-27428.054l0,-11223.767l13398.508,0c1332.675,0 2379.2,268.8 3139.183,806.788c759.983,537.971 1291.963,1227.5 1595.783,2069.304c303.821,841.787 456.162,1730.4 456.162,2665.658c0,1005.433 -157.987,1940.746 -473.525,2805.921c-315.537,865.154 -853.508,1560.762 -1613.508,2087.029c-759.983,526.25 -1794.496,789.062 -3104.096,789.062l-13398.508,0l0,0.004Zm-252186.2,27428.054l37249.062,0l0,-10592.588l-26165.592,0l0,-9470.346l13608.871,0l0,-10522.5l-13608.871,0l0,-7997.033l24762.45,0l0,-10522.5l-35846.283,0l0,49104.237l0.363,0.729Zm304271.996,-15643.092l19290.867,0l0,-10031.25l-19290.867,0l0,10031.25Zm-168989.45,15643.092l11083.475,0l0,-38441.842l14170.208,0l0,-10662.758l-39353.804,0l0,10662.758l14100.121,0l0,38441.842Zm46579.137,0l37249.062,0l0,-10592.588l-26165.575,0l0,-9470.346l13608.871,0l0,-10522.5l-13608.871,0l0,-7997.033l24762.45,0l0,-10522.5l-35846.283,0l0,49104.237l0.367,0.729l-0.021,-0Zm305113.783,841.787c3484.167,0 6623.333,-753.975 9417.533,-2262.292c2794.271,-1508.317 5009.758,-3723.887 6646.7,-6646.7c1636.858,-2922.813 2455.296,-6500.433 2455.296,-10732.846l0,-7856.842l-19290.867,0l0,10592.588l7926.946,0l0,210.367c0,1075.521 -338.904,2075.312 -1017.154,2998.925c-678.158,923.612 -1560.763,1671.946 -2647.933,2244.583c-1087.242,572.988 -2250.642,859.15 -3489.808,859.15c-1847.221,0 -3425.713,-415.071 -4734.946,-1245.225c-1309.238,-830.154 -2367.483,-1952.396 -3174.271,-3367.258c-806.787,-1414.862 -1397.133,-3004.637 -1771.129,-4770.033c-373.992,-1765.417 -561.338,-3571.613 -561.338,-5419.2c0,-1613.508 169.637,-3285.45 508.542,-5015.833c338.904,-1730.4 894.238,-3332.171 1665.938,-4805.121c771.7,-1473.229 1818.213,-2671.371 3139.183,-3594.983c1320.971,-923.612 2963.904,-1385.417 4928.021,-1385.417c1870.592,0 3501.442,631.442 4892.933,1893.958c1391.492,1262.517 2612.917,2735.817 3665.433,4419.408l9680.696,-5471.579c-1215.783,-1940.746 -2624.567,-3782.325 -4226.425,-5524.375c-1601.858,-1742.05 -3536.529,-3162.533 -5804.825,-4261.492c-2268.3,-1098.887 -5004.117,-1648.575 -8207.396,-1648.575c-3741.25,0 -6979.967,753.975 -9715.713,2262.292c-2735.817,1508.317 -4992.483,3507.517 -6769.6,5997.9c-1777.117,2490.383 -3098.092,5226.196 -3963.246,8207.396c-865.154,2981.2 -1297.604,5956.804 -1297.604,8926.354c0,3203.629 426.717,6319.446 1280.242,9347.429c853.525,3028.004 2157.117,5752.1 3910.883,8172.379c1753.767,2420.279 4004.342,4337.604 6751.875,5752.1c2747.467,1414.863 6015.192,2122.033 9803.158,2122.033l-1.163,0.729l0,0.208l0.033,-0.017l0.004,-0.012Zm-526118.558,-140.262c3016.267,0 5670.279,-561.338 7962.012,-1683.592c2291.738,-1122.325 4279.217,-2677.379 5962.812,-4664.863c1683.592,-1987.483 3121.458,-4267.5 4314.238,-6839.704l-10101.425,-3787.987c-1122.325,1847.221 -2338.471,3361.25 -3647.708,4542.308c-1309.254,1180.696 -2805.921,1771.129 -4489.583,1771.129c-1636.858,0 -3039.633,-438.438 -4209.063,-1315.329c-1169.046,-876.875 -2127.742,-2028.575 -2876.008,-3454.721c-748.333,-1426.512 -1297.604,-2998.925 -1648.575,-4717.658c-350.625,-1718.679 -526.25,-3419.638 -526.25,-5103.3c0,-1636.858 157.988,-3314.463 473.525,-5033.196c315.538,-1718.679 824.079,-3314.463 1525.679,-4787.762c701.596,-1473.229 1648.575,-2659.654 2841.008,-3559.896c1192.412,-900.242 2665.658,-1350.4 4419.408,-1350.4c1239.15,0 2326.754,228.092 3262.083,683.887c935.329,456.163 1800.488,1116.617 2595.554,1981.842c795.071,865.154 1601.858,1917.396 2420.279,3156.892l9891.058,-4419.408c-818.438,-2034.217 -2051.946,-3974.967 -3700.521,-5822.188c-1648.575,-1847.221 -3682.796,-3349.529 -6103.075,-4507.237c-2420.279,-1157.325 -5208.471,-1736.042 -8365.383,-1736.042c-3834.704,0 -7079.062,783.35 -9733.075,2350.121c-2654.008,1566.771 -4793.404,3618.7 -6418.613,6155.45c-1625.208,2537.117 -2800.279,5290.296 -3524.808,8260.208c-724.967,2969.55 -1087.242,5845.554 -1087.242,8628.471c0,3039.633 356.633,6050.279 1069.879,9031.892c713.246,2981.2 1876.667,5693.646 3489.808,8137.292c1613.508,2443.646 3747.258,4401.683 6401.25,5875c2654.008,1473.229 5921.738,2209.567 9803.179,2209.567l-0.367,-0.729l-0.071,-0.071l-0.017,0.017l0.008,0.008Zm461511.058,140.262c3974.967,0 7342.242,-742.258 10101.425,-2227.204c2759.183,-1484.946 4998.125,-3460.729 6716.788,-5927.742c1718.679,-2467.012 2969.55,-5196.754 3752.9,-8190.033c783.35,-2992.917 1175.05,-6009.55 1175.05,-9049.183c0,-3039.633 -391.7,-6056.283 -1175.05,-9049.183c-783.35,-2992.917 -2034.221,-5723.092 -3752.9,-8190.033c-1718.679,-2467.013 -3957.604,-4442.779 -6716.788,-5927.742c-2759.183,-1484.946 -6126.442,-2227.204 -10101.425,-2227.204c-3951.596,0 -7318.871,742.258 -10101.425,2227.204c-2782.55,1484.95 -5033.196,3460.729 -6751.875,5927.742c-1718.679,2467.013 -2975.554,5196.754 -3770.625,8190.033c-795.071,2992.917 -1192.413,6009.55 -1192.413,9049.183c0,3039.633 397.342,6056.283 1192.413,9049.183c795.071,2992.917 2051.946,5723.092 3770.625,8190.033c1718.679,2467.013 3969.325,4442.779 6751.875,5927.742c2782.55,1484.95 6149.808,2227.204 10101.425,2227.204Zm0,-10732.863c-1917.396,0 -3536.529,-444.079 -4857.846,-1332.675c-1320.971,-888.525 -2385.192,-2063.662 -3191.979,-3524.808c-806.787,-1461.596 -1385.417,-3051.354 -1736.042,-4770.033c-350.625,-1718.679 -526.25,-3396.267 -526.25,-5033.196c0,-1590.138 169.633,-3244.358 508.542,-4963.038c338.908,-1718.679 906.25,-3314.463 1700.954,-4787.758c795.071,-1473.229 1853.3,-2671.371 3174.271,-3594.983c1320.971,-923.612 2963.904,-1385.417 4928.021,-1385.417c1940.746,0 3571.617,444.079 4892.933,1332.692c1320.971,888.525 2373.492,2057.587 3156.908,3507.517c783.35,1449.879 1344.321,3039.633 1683.592,4770.033c338.908,1730.4 508.542,3437.362 508.542,5121.025c0,1590.138 -181.354,3238.717 -543.613,4945.312c-362.275,1707.033 -946.979,3297.171 -1753.767,4770.033c-806.787,1473.229 -1864.95,2665.658 -3174.254,3577.621c-1309.254,911.963 -2899.446,1368.054 -4770.033,1368.054l0,-0.367l0.071,0l-0.054,-0.017l0.004,0.004Zm-74498.471,9891.058l34583.404,0l0,-10732.863l-23499.929,0l0,-38371.738l-11083.471,0l0,49104.6l-0.004,0Z" style="fill:#ef1445;"/></g></svg>