<?xml version="1.0" encoding="UTF-8" standalone="no"?><!DOCTYPE svg PUBLIC "-//W3C//DTD SVG 1.1//EN" "http://www.w3.org/Graphics/SVG/1.1/DTD/svg11.dtd"><svg width="100%" height="100%" viewBox="0 0 60905 11425" version="1.1" xmlns="http://www.w3.org/2000/svg" xmlns:xlink="http://www.w3.org/1999/xlink" xml:space="preserve" xmlns:serif="http://www.serif.com/" style="fill-rule:evenodd;clip-rule:evenodd;stroke-linejoin:round;stroke-miterlimit:2;"><path d="M60888.158,6916.513l0,4494.792l-60888.158,0l0,-4494.792l60888.158,0Zm-16925.971,3416.842c183.054,0 338.125,-34.183 465.192,-102.571c127.067,-68.383 230.175,-159.375 309.325,-272.987c79.15,-113.612 136.754,-239.325 172.829,-377.171c36.075,-137.829 54.117,-276.754 54.117,-416.737c0,-139.983 -18.037,-278.908 -54.117,-416.737c-36.075,-137.829 -93.679,-263.558 -172.829,-377.171c-79.15,-113.612 -182.258,-204.6 -309.325,-272.987c-127.067,-68.383 -282.138,-102.571 -465.192,-102.571c-181.979,0 -337.05,34.183 -465.192,102.571c-128.142,68.387 -231.788,159.375 -310.938,272.987c-79.15,113.613 -137.033,239.325 -173.646,377.171c-36.612,137.829 -54.912,276.754 -54.912,416.737c0,139.983 18.3,278.908 54.912,416.737c36.617,137.829 94.496,263.558 173.646,377.171c79.15,113.612 182.796,204.6 310.938,272.987c128.142,68.383 283.212,102.571 465.192,102.571Zm0,-494.271c-88.3,0 -162.862,-20.45 -223.717,-61.371c-60.833,-40.921 -109.846,-95.033 -146.996,-162.325c-37.154,-67.308 -63.804,-140.521 -79.95,-219.671c-16.146,-79.15 -24.237,-156.404 -24.237,-231.788c0,-73.229 7.812,-149.408 23.421,-228.558c15.608,-79.15 41.737,-152.637 78.333,-220.487c36.617,-67.846 85.346,-123.021 146.179,-165.554c60.833,-42.533 136.492,-63.8 226.946,-63.8c89.375,0 164.479,20.45 225.329,61.371c60.833,40.921 109.304,94.758 145.383,161.529c36.075,66.771 61.908,139.983 77.533,219.671c15.608,79.688 23.421,158.3 23.421,235.833c0,73.229 -8.35,149.15 -25.033,227.742c-16.683,78.612 -43.613,151.842 -80.763,219.671c-37.154,67.846 -85.887,122.763 -146.179,164.758c-60.296,41.996 -133.525,63.004 -219.671,63.004l0,-0.025Zm-22550.625,455.504l503.958,0l0,-1156.529c0,-21.546 -0.279,-48.733 -0.817,-81.562c-0.537,-32.846 -3.508,-63.8 -8.888,-92.883c11.842,25.85 28.263,57.604 49.271,95.296c21.008,37.692 36.875,64.079 47.658,79.15l836.7,1156.529l442.588,0l0,-2261.354l-507.188,0l0,1143.613c0,16.146 0.817,43.35 2.429,81.562c1.617,38.229 4.046,68.108 7.275,89.654c-9.688,-24.775 -25.312,-55.45 -46.842,-92.067c-21.546,-36.612 -37.154,-61.908 -46.842,-75.921l-817.325,-1146.842l-461.963,0l0,2261.354l-0.017,0Zm8375.121,-0l510.417,0l0,-781.788l429.654,0l403.821,781.788l571.804,0l-419.967,-862.55c85.071,-37.692 157.483,-92.883 217.258,-165.554c59.758,-72.692 105.258,-152.917 136.492,-240.679c31.233,-87.758 46.842,-173.108 46.842,-256.025c0,-132.45 -24.496,-254.671 -73.487,-366.667c-48.992,-111.996 -130.033,-201.633 -243.092,-268.942c-113.071,-67.308 -265.971,-100.954 -458.733,-100.954l-1120.992,0l0,2261.354l-0.017,0.017Zm510.417,-1263.125l0,-516.875l617.029,0c61.371,0 109.567,12.379 144.567,37.154c35,24.775 59.496,56.529 73.487,95.296c13.992,38.767 21.008,79.688 21.008,122.763c0,46.304 -7.275,89.375 -21.804,129.217c-14.533,39.842 -39.304,71.875 -74.304,96.112c-35,24.238 -82.638,36.337 -142.95,36.337l-617.029,0l-0.004,-0.004Zm-11613.717,1263.125l1715.4,0l0,-487.812l-1204.983,0l0,-436.129l626.717,0l0,-484.583l-626.717,0l0,-368.283l1140.367,0l0,-484.583l-1650.8,0l0,2261.354l0.017,0.033l0,0.004Zm14012.379,-720.4l888.383,0l0,-461.962l-888.383,0l0,461.962Zm-7782.325,720.4l510.417,0l0,-1770.329l652.571,0l0,-491.042l-1812.325,0l0,491.042l649.342,0l0,1770.329l-0.004,0Zm2145.071,0l1715.4,0l0,-487.812l-1204.983,0l0,-436.129l626.721,0l0,-484.583l-626.721,0l0,-368.283l1140.367,0l0,-484.583l-1650.8,0l0,2261.354l0.017,0.033l0,0.004Zm14051.146,38.767c160.45,0 305.017,-34.721 433.7,-104.183c128.679,-69.462 230.712,-171.492 306.092,-306.096c75.383,-134.6 113.071,-299.358 113.071,-494.271l0,-361.825l-888.383,0l0,487.812l365.05,0l0,9.687c0,49.529 -15.608,95.575 -46.842,138.108c-31.233,42.533 -71.875,76.996 -121.946,103.367c-50.071,26.387 -103.646,39.567 -160.712,39.567c-85.071,0 -157.758,-19.117 -218.054,-57.346c-60.296,-38.229 -109.029,-89.913 -146.179,-155.071c-37.154,-65.158 -64.342,-138.367 -81.562,-219.671c-17.221,-81.3 -25.85,-164.479 -25.85,-249.567c0,-74.304 7.812,-151.3 23.421,-230.987c15.608,-79.688 41.179,-153.454 76.721,-221.283c35.538,-67.846 83.733,-123.021 144.567,-165.554c60.833,-42.533 136.492,-63.8 226.946,-63.8c86.146,0 161.25,29.079 225.329,87.221c64.079,58.142 120.329,125.988 168.804,203.525l445.817,-251.979c-55.992,-89.375 -120.867,-174.183 -194.633,-254.408c-73.767,-80.225 -162.862,-145.642 -267.325,-196.25c-104.463,-50.608 -230.45,-75.921 -377.971,-75.921c-172.292,0 -321.442,34.721 -447.429,104.183c-125.987,69.463 -229.913,161.529 -311.754,276.217c-81.842,114.688 -142.675,240.679 -182.517,377.967c-39.842,137.292 -59.758,274.325 -59.758,411.075c0,147.533 19.654,291.025 58.958,430.467c39.304,139.446 99.342,264.896 180.104,376.354c80.763,111.458 184.408,199.758 310.938,264.896c126.529,65.158 277.013,97.725 451.458,97.725l-0.054,0.033l-0.004,0.008Zm-24228.888,-6.458c138.904,0 261.129,-25.85 366.667,-77.533c105.537,-51.683 197.067,-123.3 274.6,-214.825c77.533,-91.529 143.75,-196.529 198.679,-314.983l-465.192,-174.446c-51.683,85.071 -107.692,154.792 -167.988,209.183c-60.296,54.375 -129.221,81.562 -206.754,81.562c-75.383,0 -139.983,-20.192 -193.838,-60.571c-53.837,-40.383 -97.987,-93.421 -132.446,-159.096c-34.463,-65.696 -59.758,-138.108 -75.921,-217.258c-16.146,-79.15 -24.237,-157.483 -24.237,-235.017c0,-75.383 7.275,-152.637 21.804,-231.788c14.533,-79.15 37.95,-152.637 70.263,-220.487c32.308,-67.846 75.921,-122.483 130.833,-163.942c54.913,-41.458 122.763,-62.188 203.525,-62.188c57.067,0 107.154,10.504 150.225,31.492c43.075,21.008 82.917,51.425 119.529,91.267c36.617,39.842 73.767,88.3 111.458,145.383l455.504,-203.525c-37.692,-93.679 -94.496,-183.054 -170.417,-268.125c-75.921,-85.071 -169.6,-154.254 -281.058,-207.571c-111.458,-53.3 -239.862,-79.95 -385.242,-79.95c-176.596,0 -326.008,36.075 -448.229,108.229c-122.221,72.154 -220.746,166.65 -295.592,283.471c-74.846,116.842 -128.958,243.629 -162.325,380.4c-33.383,136.754 -50.071,269.2 -50.071,397.363c0,139.983 16.425,278.629 49.271,415.937c32.846,137.292 86.425,262.204 160.712,374.742c74.304,112.533 172.571,202.708 294.792,270.554c122.221,67.846 272.708,101.754 451.458,101.754l-0.017,-0.033l0.004,0Zm21253.575,6.458c183.054,0 338.125,-34.183 465.192,-102.571c127.067,-68.383 230.175,-159.375 309.325,-272.987c79.15,-113.612 136.754,-239.325 172.829,-377.171c36.075,-137.829 54.117,-276.754 54.117,-416.737c0,-139.983 -18.037,-278.908 -54.117,-416.737c-36.075,-137.829 -93.679,-263.558 -172.829,-377.171c-79.15,-113.612 -182.258,-204.6 -309.325,-272.987c-127.067,-68.383 -282.137,-102.571 -465.192,-102.571c-181.979,0 -337.05,34.183 -465.192,102.571c-128.142,68.387 -231.788,159.375 -310.938,272.987c-79.15,113.613 -137.033,239.325 -173.646,377.171c-36.617,137.829 -54.913,276.754 -54.913,416.737c0,139.983 18.3,278.908 54.913,416.737c36.612,137.829 94.496,263.558 173.646,377.171c79.15,113.612 182.796,204.6 310.938,272.987c128.142,68.383 283.212,102.571 465.192,102.571Zm0,-494.271c-88.3,0 -162.862,-20.45 -223.717,-61.371c-60.833,-40.921 -109.846,-95.033 -146.996,-162.325c-37.154,-67.308 -63.804,-140.521 -79.95,-219.671c-16.146,-79.15 -24.237,-156.404 -24.237,-231.788c0,-73.229 7.812,-149.408 23.421,-228.558c15.608,-79.15 41.738,-152.637 78.333,-220.487c36.612,-67.846 85.346,-123.021 146.179,-165.554c60.833,-42.533 136.492,-63.8 226.946,-63.8c89.375,0 164.479,20.45 225.329,61.371c60.833,40.921 109.304,94.758 145.383,161.529c36.075,66.771 61.908,139.983 77.533,219.671c15.608,79.688 23.421,158.3 23.421,235.833c0,73.229 -8.35,149.15 -25.033,227.742c-16.683,78.612 -43.613,151.842 -80.762,219.671c-37.154,67.846 -85.887,122.763 -146.179,164.758c-60.296,41.996 -133.525,63.004 -219.671,63.004l0,-0.025Zm-3430.817,455.504l1592.637,0l0,-494.271l-1082.221,0l0,-1767.1l-510.417,0l0,2261.371Z" style="fill:#ff1852;"/><path d="M0.008,5384.746l0,-5384.742l3784.704,-0l0,1050.025l-2676.988,0l-0,1030.792l1526.958,0l0,1050.025l-1526.958,0l0,1196.183l2834.683,0l0,1057.717l-3942.4,0Zm4637.508,0l0,-4405.704l906.317,-0l0,4405.704l-906.317,0Zm1784.346,0l0,-4405.704l830.792,-0l1664.725,2413.696c20.979,33.567 51.4,83.917 91.263,151.054c39.862,67.133 70.283,125.879 91.262,176.229c-6.296,-44.058 -11.013,-101.225 -14.163,-171.508c-3.146,-70.283 -4.721,-123.254 -4.721,-158.921l0,-2410.55l900.021,-0l0,4405.704l-796.175,0l-1699.342,-2432.579c-23.079,-33.567 -54.021,-84.967 -92.833,-154.2c-38.812,-69.233 -69.758,-129.025 -92.833,-179.375c8.392,54.546 13.112,112.767 14.162,174.654c1.05,61.892 1.575,114.863 1.575,158.921l0,2432.579l-893.733,0Zm4437.137,0l0,-4405.704l906.317,-0l0,2092.708l1655.287,-2092.708l1082.546,-0l-1302.829,1589.2l1554.583,2816.504l-1057.367,0l-1107.721,-2054.946l-824.496,1029.046l0,1025.9l-906.321,0Zm4084.696,0l1718.225,-4405.704l862.258,-0l1721.371,4405.704l-984.987,0l-336.721,-884.288l-1664.725,0l-330.429,884.288l-984.992,0Zm1617.521,-1718.225l1057.367,0l-399.658,-1029.046c-12.587,-31.471 -27.275,-67.658 -44.058,-108.571c-16.783,-40.908 -32.517,-82.346 -47.204,-124.304c-14.688,-41.958 -27.275,-79.721 -37.763,-113.287c-10.492,33.567 -23.079,71.329 -37.763,113.287c-14.688,41.958 -30.421,83.392 -47.204,124.304c-16.783,40.908 -31.471,77.1 -44.058,108.571l-399.658,1029.046Zm4748.725,1793.75c-373.438,0 -695.471,-69.233 -966.108,-207.696c-270.638,-138.467 -478.333,-339.346 -623.092,-602.637c-144.758,-263.292 -217.138,-581.658 -217.138,-955.092l0,-2715.8l906.317,-0l0,2715.8c0,318.888 71.854,547.042 215.567,684.458c143.708,137.417 371.862,206.125 684.458,206.125c197.208,0 362.421,-28.321 495.642,-84.967c133.221,-56.646 233.396,-150.529 300.533,-281.65c67.133,-131.121 100.7,-305.775 100.7,-523.963l0,-2715.8l906.317,-0l0,2715.8c0,320.988 -49.825,593.721 -149.479,818.2c-99.654,224.479 -234.446,406.479 -404.379,545.992c-169.933,139.512 -362.421,241.267 -577.463,305.254c-215.042,63.988 -438.996,95.983 -671.871,95.983l-0.004,-0.008Zm2659.158,-75.525l0,-4405.704l3021.054,-0l0,859.113l-2114.737,0l0,843.379l1340.592,0l0,859.113l-1340.592,0l0,1844.1l-906.317,0Zm4918.667,75.525c-281.125,0 -537.075,-50.35 -767.85,-151.054c-230.775,-100.7 -428.508,-244.413 -593.196,-431.129c-164.687,-186.717 -290.042,-409.1 -376.058,-667.15l811.908,-305.254c96.504,205.6 227.629,373.958 393.367,505.083c165.737,131.121 350.358,196.683 553.858,196.683c209.796,0 377.633,-41.958 503.508,-125.879c125.879,-83.917 188.817,-205.6 188.817,-365.046c0,-109.092 -36.712,-199.304 -110.142,-270.638c-73.429,-71.329 -174.129,-133.746 -302.104,-187.242c-127.975,-53.496 -274.833,-107.521 -440.571,-162.067c-163.642,-54.546 -329.379,-114.863 -497.217,-180.95c-167.837,-66.087 -322.037,-148.429 -462.6,-247.033c-140.562,-98.604 -253.329,-223.958 -338.296,-376.058c-84.967,-152.1 -127.45,-340.392 -127.45,-564.875c0,-222.383 59.267,-426.408 177.8,-612.079c118.533,-185.671 290.567,-334.1 516.096,-445.292c225.529,-111.192 498.787,-166.788 819.775,-166.788c264.342,0 499.312,46.679 704.913,140.038c205.6,93.358 375.533,219.763 509.804,379.204c134.271,159.446 228.675,338.821 283.225,538.125l-805.612,267.487c-60.842,-134.271 -148.429,-246.508 -262.767,-336.721c-114.338,-90.212 -273.258,-135.317 -476.758,-135.317c-180.425,0 -319.412,33.042 -416.967,99.129c-97.554,66.088 -146.333,162.067 -146.333,287.946c0,81.821 33.042,151.579 99.129,209.271c66.087,57.692 157.346,109.617 273.783,155.775c116.438,46.154 250.179,95.458 401.233,147.904c180.425,60.842 359.8,127.975 538.125,201.404c178.325,73.429 340.392,163.642 486.2,270.637c145.808,106.996 262.246,240.217 349.308,399.658c87.067,159.446 130.596,356.654 130.596,591.625c0,283.225 -71.329,524.488 -213.992,723.796c-142.662,199.304 -336.196,351.933 -580.608,457.879c-244.412,105.946 -518.721,158.921 -822.921,158.921l-0.004,0.004Zm2153.179,-75.525l0,-823.096l2700.063,-3515.467l-2534.675,0l0,-1046.179l4000.096,0l0,823.096l-2726.987,3515.467l2726.987,0l0,1046.179l-4165.483,0Zm4929.854,0l0,-4405.704l3096.579,-0l0,859.113l-2190.263,0l0,843.379l1249.333,0l0,859.113l-1249.333,0l0,978.696l2319.288,0l0,865.404l-3225.604,0Zm3870.704,0l0,-4405.704l830.792,-0l1664.725,2413.696c20.979,33.567 51.4,83.917 91.263,151.054c39.862,67.133 70.283,125.879 91.262,176.229c-6.296,-44.058 -11.012,-101.225 -14.162,-171.508c-3.146,-70.283 -4.721,-123.254 -4.721,-158.921l0,-2410.55l900.021,-0l0,4405.704l-796.175,0l-1699.342,-2432.579c-23.079,-33.567 -54.021,-84.967 -92.833,-154.2c-38.813,-69.233 -69.758,-129.025 -92.833,-179.375c8.392,54.546 13.113,112.767 14.162,174.654c1.05,61.892 1.575,114.863 1.575,158.921l0,2432.579l-893.733,0Zm5406.45,0l0,-3537.15l-1258.771,0l0,-868.554l3427.008,0l0,868.554l-1261.921,0l0,3537.15l-906.317,0Zm2756.688,0l0,-4405.704l2095.854,-0c369.242,0 662.429,64.512 879.567,193.538c217.137,129.025 372.387,300.008 465.746,512.95c93.358,212.942 140.037,443.192 140.037,690.75c0,165.738 -30.946,333.575 -92.833,503.508c-61.892,169.933 -154.725,324.658 -278.504,464.171c-123.779,139.512 -276.929,242.837 -459.45,309.971l843.379,1730.812l-1013.312,0l-811.908,-1595.496l-862.258,0l0,1595.496l-906.317,0l0,0.004Zm906.317,-2448.312l1202.129,0c134.271,0 240.742,-26.225 319.412,-78.675c78.675,-52.45 134.271,-121.158 166.788,-206.125c32.517,-84.967 48.779,-175.704 48.779,-272.208c0,-88.113 -15.208,-174.129 -45.629,-258.05c-30.421,-83.917 -84.967,-153.15 -163.642,-207.696c-78.675,-54.546 -187.242,-81.821 -325.708,-81.821l-1202.129,0l-0,1104.575Zm5195.592,2523.837c-373.438,0 -695.471,-69.233 -966.108,-207.696c-270.637,-138.467 -478.333,-339.346 -623.092,-602.637c-144.758,-263.292 -217.137,-581.658 -217.137,-955.092l0,-2715.8l906.317,-0l0,2715.8c0,318.888 71.854,547.042 215.567,684.458c143.708,137.417 371.862,206.125 684.458,206.125c197.208,0 362.421,-28.321 495.642,-84.967c133.221,-56.646 233.396,-150.529 300.533,-281.65c67.133,-131.121 100.7,-305.775 100.7,-523.963l0,-2715.8l906.317,-0l0,2715.8c0,320.988 -49.825,593.721 -149.479,818.2c-99.654,224.479 -234.446,406.479 -404.379,545.992c-169.933,139.512 -362.421,241.267 -577.463,305.254c-215.042,63.988 -438.996,95.983 -671.871,95.983l-0.004,-0.008Zm4723.546,0l-1104.571,-2344.463c-8.392,-18.883 -17.833,-41.958 -28.321,-69.233c-10.492,-27.275 -20.979,-55.596 -31.471,-84.967c2.1,25.175 3.671,52.975 4.721,83.392c1.05,30.421 1.575,56.121 1.575,77.1l0,2262.642l-906.317,0l0,-4405.704l912.608,-0l1063.663,2344.463c23.079,46.154 43.008,90.738 59.792,133.746c16.783,43.008 32.517,88.637 47.204,136.892c16.783,-48.254 33.567,-94.933 50.35,-140.038c16.783,-45.104 34.617,-88.638 53.496,-130.596l1091.983,-2344.463l843.379,-0l0,4405.704l-903.171,0l0,-2352.329c0,-30.421 1.05,-55.071 3.146,-73.954c-10.492,25.175 -21.504,51.4 -33.042,78.675c-11.537,27.275 -22.554,51.4 -33.042,72.379l-1091.983,2350.758l0,-0.004Z" style="fill:#262626;"/></svg>