<?xml version="1.0" encoding="UTF-8" standalone="no"?><!DOCTYPE svg PUBLIC "-//W3C//DTD SVG 1.1//EN" "http://www.w3.org/Graphics/SVG/1.1/DTD/svg11.dtd"><svg width="100%" height="100%" viewBox="0 0 331 378" version="1.1" xmlns="http://www.w3.org/2000/svg" xmlns:xlink="http://www.w3.org/1999/xlink" xml:space="preserve" xmlns:serif="http://www.serif.com/" style="fill-rule:evenodd;clip-rule:evenodd;stroke-linejoin:round;stroke-miterlimit:2;"><g id="Ebene-1" serif:id="Ebene 1"><path d="M165.655,369.505c90.704,-0 164.229,-73.53 164.229,-164.23c-0,-90.704 -73.525,-164.233 -164.229,-164.233c-90.705,0 -164.23,73.529 -164.23,164.233c0,90.7 73.525,164.23 164.23,164.23" style="fill:#fff;fill-rule:nonzero;"/><path d="M85.033,188.907c-2.866,8.191 -0.875,31.004 -1.12,41.083c-0.121,5.433 0.162,14.817 -2.634,19.204c-0.712,1.125 -2.137,2.638 -3.479,2.884c3.671,3.116 5.692,5.92 6.121,10.904c-0.863,20.216 2.083,41.95 0.512,62.037c-0.429,5.442 -2.82,12.338 -6.629,16.242c0.1,0.083 0.217,0.121 0.359,0.121c0.795,-0 2.15,-1.221 2.516,-1.571c4.092,-3.921 6.359,-10.746 6.775,-16.342c1.292,-17.371 1.267,-39.654 0.742,-57.091c-0.125,-4.067 -0.471,-6.859 -2.171,-10.584c-0.387,-0.837 -1.917,-2.483 -1.946,-2.962c-0.025,-0.459 1.534,-3.067 1.863,-4.054c3.546,-10.5 1.075,-33.321 0.991,-45.267c-0.037,-5.375 -0.2,-12.213 1.525,-17.275c0.771,-2.254 2.154,-3.758 3.063,-5.825c-2.959,2.171 -5.263,5.021 -6.488,8.496Z" style="fill:url(#_Linear1);fill-rule:nonzero;"/><path d="M102.183,158.286c-1.445,1.333 -2.396,3.8 -3.5,5.033c-0.404,0.45 -0.387,0.438 -1.05,0.317c-0.908,-4.171 -6.454,-8.821 -10.833,-7.517c-1.542,0.458 -5.517,9.325 -7.258,11.542c-5.088,6.471 -20.959,19.571 -29.359,19.175c-5.316,-0.254 -7.512,-6.238 -2.554,-8.9c1.963,-1.05 4.571,-0.208 2.663,-3.817c-3.321,-6.267 -14.263,-2.783 -17.638,2.058c-6.329,9.092 -2.483,21.192 7.908,24.955c9.93,3.591 19.876,0.587 28.605,-4.459l-0,38.875c-0,5.146 -2.063,9.609 -6.638,12.171c-2.829,1.579 -7.379,1.329 -5.962,6.021c0.566,1.892 4.837,3.054 6.466,4.204c2.879,2.042 5.534,5.875 5.784,9.471c-0.788,19.054 2.254,41.371 0.341,60.117c-0.554,5.404 -4.783,14.175 -10.937,14.512c-5.567,0.3 -3.188,-4.65 -5.304,-7.271c-0.417,-0.512 -1.313,-1.012 -1.934,-1.241c-13.704,-5.204 -17.75,16.216 -5.046,23.333c11.709,6.562 28.63,1.979 38.217,-6.579c4.763,2.904 9.279,6.383 14.733,8.008c6.788,2.025 17.567,2.384 23.98,-0.937c4.287,-2.221 9.079,-8.146 7.4,-13.163c-1.43,-4.258 -6.909,-2.191 -10.913,-3.321c-10.646,-2.995 -8.537,-16.104 -9.571,-24.516c1.725,-15.45 -1.166,-33.496 0.6,-48.734c0.513,-4.37 2.663,-7.637 6.404,-9.862c2.626,-1.558 6.638,-1.717 6.513,-5.45c-0.113,-3.292 -5.046,-3.679 -7.542,-5.413c-3.383,-2.354 -5.037,-5.775 -5.416,-9.825c1.42,-20.416 -2.921,-44.55 -0.521,-64.537c0.187,-1.538 0.825,-4.304 1.425,-5.696c1.508,-3.517 6.391,-5.058 2.654,-9.058c-1.237,-1.325 -3.108,-1.896 -5.058,-1.896c-2.471,-0 -5.059,0.917 -6.659,2.4Zm-24.379,182.975c3.809,-3.904 6.2,-10.8 6.629,-16.242c1.571,-20.087 -1.375,-41.821 -0.512,-62.037c-0.429,-4.984 -2.45,-7.788 -6.121,-10.904c1.342,-0.246 2.767,-1.759 3.479,-2.884c2.796,-4.387 2.513,-13.771 2.634,-19.204c0.245,-10.079 -1.746,-32.892 1.12,-41.083c1.225,-3.475 3.529,-6.325 6.488,-8.496c-0.909,2.067 -2.292,3.571 -3.063,5.825c-1.725,5.062 -1.562,11.9 -1.525,17.275c0.084,11.946 2.555,34.767 -0.991,45.267c-0.329,0.987 -1.888,3.595 -1.863,4.054c0.029,0.479 1.559,2.125 1.946,2.962c1.7,3.725 2.046,6.517 2.171,10.584c0.525,17.437 0.55,39.72 -0.742,57.091c-0.416,5.596 -2.683,12.421 -6.775,16.342c-0.366,0.35 -1.721,1.571 -2.516,1.571c-0.142,-0 -0.259,-0.038 -0.359,-0.121Zm13.217,-88.942c2.904,-1.329 4.937,-3.579 5.337,-6.862c0.717,2.796 2.284,5.808 5.329,6.621c-2.858,2.187 -3.808,4.462 -5.333,7.612c-0.404,-3.338 -2.654,-5.621 -5.333,-7.371Z" style="fill:url(#_Linear2);fill-rule:nonzero;"/><path d="M96.357,245.459c-0.4,3.279 -2.429,5.529 -5.337,6.862c2.683,1.746 4.933,4.029 5.333,7.367c1.525,-3.15 2.479,-5.421 5.337,-7.613c-3.05,-0.808 -4.612,-3.825 -5.333,-6.616" style="fill:#fff;fill-rule:nonzero;"/><path d="M86.023,255.792c-0.383,-0.837 -1.916,-2.483 -1.946,-2.962c-0.025,-0.459 1.534,-3.063 1.867,-4.055c3.542,-10.5 1.071,-33.316 0.988,-45.266c-0.038,-5.371 -0.2,-12.209 1.525,-17.275c0.77,-2.25 2.154,-3.759 3.062,-5.825c-2.954,2.171 -5.262,5.021 -6.487,8.5c-2.867,8.187 -0.875,31 -1.117,41.079c-0.125,5.433 0.158,14.817 -2.638,19.204c-0.712,1.125 -2.137,2.642 -3.475,2.883c3.667,3.121 5.692,5.921 6.117,10.905c-0.862,20.216 2.083,41.954 0.513,62.037c-0.43,5.442 -2.821,12.342 -6.625,16.246c0.095,0.083 0.216,0.121 0.354,0.121c0.796,-0 2.154,-1.225 2.516,-1.571c4.096,-3.925 6.359,-10.75 6.775,-16.346c1.296,-17.367 1.267,-39.65 0.742,-57.087c-0.125,-4.071 -0.471,-6.859 -2.171,-10.588" style="fill:#fff;fill-rule:nonzero;"/><path d="M250.088,154.236c-8.571,3.183 -15.917,1.762 -24.617,1.758c-25.508,-0.033 -50.996,0 -76.358,-0.287c-2.584,0.112 -3.93,0.904 -4.234,3.6l-0.008,94.566c0.421,4.134 2.537,7.713 6.629,9.121c8.533,2.934 10.025,-3.591 15.238,-8.133c21.179,-18.467 51.512,-4.021 57.279,21.5c5.721,25.262 -2.575,60.512 -33.659,62.117c-14.345,0.733 -27.816,-14.555 -20.075,-27.73c3.734,-6.345 8.555,-5.12 14.092,-2.37c1.988,0.995 1.838,2.8 4.55,0.433c9.604,-8.388 0.596,-23.95 -8.621,-28.879c-20.958,-11.229 -43.758,5.741 -45.575,27.796c-4.929,60.145 86.413,67.57 120.267,34.625c15.529,-15.109 16.279,-28.805 21.771,-48.109c1.466,-5.158 4.779,-14.858 11.616,-11.216c7.242,-10.25 -3.058,-21.542 -14.912,-10.63c-2.038,-18.341 -13.8,-33.62 -29.021,-43.412c-20.862,-13.429 -54.45,-13.771 -75.158,0.212c-0.471,-2.816 0.437,-5.733 0.525,-8.358c0.137,-4.233 -0.888,-21.054 1.012,-23.387c0.342,-0.425 1.704,-1.155 2.292,-1.259c4.262,-0.783 13.5,1.875 18.333,2.446c25.267,3.008 54.934,3.804 66.696,-23.633c2.833,-6.625 5.829,-18.096 0.733,-23.984c-0.258,-0.079 -0.525,-0.112 -0.816,-0.112c-2.404,-0 -5.817,2.512 -7.979,3.325Zm-5.084,22.112c-12.637,16.192 -41.229,12.996 -59.975,9.796c-8.341,-1.425 -14.733,-2.85 -16.896,-2.566c-4.987,0.658 -7,4.904 -7.425,10.216c-1.195,14.809 0.863,34.396 -3.112,41.5c0.183,-13.75 0.717,-27.512 1.125,-41.275c0.387,-12.912 9.346,-14.875 14.362,-13.604c14.613,3.692 26.65,5.029 36.413,5.029c25.492,0 35.508,-9.096 35.508,-9.096Zm-8.4,62.263c-2.366,-2.3 -8.362,-6.863 -8.362,-6.863c6.975,2.625 12.858,8.384 15.754,15.234c-0,-0 -4.85,-5.9 -7.392,-8.371Zm-20.329,1.779c18.742,10.292 21.104,34.233 21.104,34.233c-7.004,-19.245 -12.65,-24.3 -19.333,-29.562c-14.692,-11.567 -32.575,-10.567 -47.604,-4.133c19.933,-10.43 31.787,-8.25 45.833,-0.538Zm32.517,18.275c-0,-1.575 1.271,-2.85 2.846,-2.85c1.57,0 2.845,1.275 2.845,2.85c0,1.567 -1.275,2.842 -2.845,2.842c-1.575,-0 -2.846,-1.275 -2.846,-2.842Zm7.483,33.2c-0.483,-4.812 -0.129,-8.587 -4.904,-8.996l-3.192,-0.262l3.188,-0.329c4.766,-0.488 4.346,-4.334 4.746,-9.15l0.266,-3.221l0.325,3.212c0.479,4.813 0.125,8.592 4.9,8.996l3.196,0.267l-3.187,0.325c-4.771,0.487 -4.346,4.333 -4.75,9.154l-0.267,3.217l-0.321,-3.213Zm-101.821,37.254c-3.45,-5.433 -5.533,-17.604 -2.337,-26.371c3.133,-8.562 12.471,-19.058 21.741,-11.554c-10.05,-2.591 -17.354,6.254 -19.675,15.15c-2.845,10.959 0.771,24.017 8.996,31.871c0.004,0.004 0,0.008 -0.008,0.008c-0.242,0 -5.367,-3.825 -8.717,-9.104Zm55.367,18.442c14.304,-5.283 23.971,-21.242 26.496,-31.154c1.491,-5.85 2.2,-13.884 3.087,-17.896c5.088,32.8 -22.237,61.467 -49.529,51.2c0.054,-0.008 0.613,0.058 1.546,0.117c0.879,0.058 2.092,0.112 3.537,0.112c3.921,0 9.55,-0.417 14.863,-2.379Zm42.804,-40.321c0,-1.575 1.271,-2.85 2.846,-2.85c1.575,0 2.85,1.275 2.85,2.85c-0,1.571 -1.275,2.846 -2.85,2.846c-1.575,-0 -2.846,-1.275 -2.846,-2.846Zm-1.521,12.933c-0.566,6.113 -4.625,11.405 -9.137,15.242l9.137,-15.242Z" style="fill:url(#_Linear3);fill-rule:nonzero;"/><path d="M314.343,131.506c-4.537,0.704 -8.187,3.971 -9.471,8.292l-17.866,-0.858c1,-3.709 1.579,-7.588 1.579,-11.609c0,-3.583 -0.467,-7.054 -1.271,-10.396l15.683,-8.995c2.155,2.258 5.175,3.683 8.546,3.683c0.38,-0 0.738,-0.075 1.105,-0.113c1.2,5.092 1.908,10.367 1.908,15.821c-0,1.409 -0.129,2.788 -0.213,4.175m-12.875,36.638c-1.579,-0.784 -3.337,-1.263 -5.221,-1.263c-2.916,0 -5.558,1.096 -7.62,2.85l-13.95,-10.083c4.462,-4.25 8.066,-9.392 10.475,-15.167l19.404,0.934c0.616,3.17 2.491,5.883 5.091,7.604c-2.116,5.396 -4.866,10.466 -8.179,15.125m-29.358,-75.429l8.921,-15.646c1.033,0.291 2.1,0.5 3.225,0.5c2.679,-0 5.121,-0.925 7.1,-2.425c4.971,4.521 9.241,9.758 12.762,15.508c-2.666,2.171 -4.404,5.438 -4.404,9.142c0,1.137 0.213,2.212 0.508,3.25l-14.612,8.383c-2.817,-7.362 -7.492,-13.808 -13.5,-18.712m-4.613,-3.259c-6.575,-4.112 -14.279,-6.562 -22.541,-6.754l-0,-17.375c4.012,-0.983 7.183,-4.008 8.416,-7.917c6.825,0.925 13.355,2.784 19.425,5.517c-0.22,0.908 -0.37,1.838 -0.37,2.813c-0,3.379 1.433,6.408 3.708,8.566l-8.638,15.15Zm-28.166,-6.575c-8.234,0.838 -15.784,3.967 -22.088,8.671l-8.983,-15.333c2.217,-2.15 3.604,-5.146 3.604,-8.475c0,-1.075 -0.192,-2.092 -0.458,-3.079c6.096,-3.175 12.716,-5.425 19.679,-6.7c1.354,3.641 4.425,6.42 8.246,7.358l-0,17.558Zm80.612,49.117c0.092,-1.55 0.234,-3.092 0.234,-4.667c-0,-6.091 -0.78,-11.987 -2.138,-17.662c3.208,-2.117 5.333,-5.742 5.333,-9.875c0,-6.534 -5.295,-11.829 -11.829,-11.829c-0.787,-0 -1.558,0.087 -2.304,0.233c-3.912,-6.479 -8.733,-12.358 -14.325,-17.408c0.729,-1.538 1.171,-3.238 1.171,-5.05c-0,-6.534 -5.296,-11.83 -11.829,-11.83c-3.538,0 -6.675,1.584 -8.842,4.042c-6.754,-3.079 -14.033,-5.167 -21.65,-6.175c-0.992,-5.533 -5.804,-9.737 -11.621,-9.737c-5.983,-0 -10.879,4.462 -11.666,10.229c-7.721,1.391 -15.042,3.941 -21.784,7.466c-2.158,-2.337 -5.225,-3.82 -8.658,-3.82c-6.533,-0 -11.829,5.295 -11.829,11.829c-0,2.146 0.612,4.133 1.616,5.866c-0.295,0.3 -0.554,0.634 -0.845,0.934c1.337,1.321 2.67,2.646 4.02,3.925c0.242,-0.246 0.45,-0.525 0.696,-0.771c1.834,1.171 4,1.875 6.342,1.875c1.171,-0 2.283,-0.225 3.354,-0.542l9.496,16.204c-0.046,0.046 -0.088,0.1 -0.138,0.146c3.85,2.963 7.746,5.796 11.696,8.459l-4.341,-7.409c5.458,-4.216 12.041,-7.025 19.229,-7.871l-0,24.45c1.866,1.055 3.737,2.092 5.625,3.08l-0,-27.767c7.25,0.196 14.004,2.371 19.758,6.012l-14.033,24.613c1.7,0.821 3.408,1.6 5.121,2.371l13.47,-23.625c5.125,4.391 9.084,10.087 11.392,16.571l-20.142,11.554c0.384,2.275 0.5,4.425 0.23,6.35l21.475,-12.317c0.47,2.425 0.737,4.921 0.737,7.479c0,3.942 -0.6,7.742 -1.692,11.334l-22.32,-1.071c-1.15,2.175 -2.692,4.016 -4.55,5.412l24.683,1.184c-2.221,4.608 -5.304,8.708 -9.058,12.095l-7.517,-5.337c2.817,4.35 2.862,10.567 1.567,16.117c2.141,-1.088 4.216,-2.288 6.141,-3.7l15.079,10.9c-0.558,1.375 -0.879,2.87 -0.879,4.445c0,1.955 0.521,3.767 1.359,5.392c-4.467,3.304 -9.284,6.154 -14.463,8.342l-8.533,-20.596c-0.454,1.387 -0.95,2.746 -1.496,4.029c-1.313,3.063 -2.933,5.742 -4.696,8.254l4.796,11.571c-5.604,1.433 -11.442,2.279 -17.483,2.279c-1.542,0 -1.23,0.025 -2.746,-0.075c-5.221,2.4 -6.775,2.709 -13.504,3.896c5.858,1.45 9.945,1.804 16.25,1.804c6.804,0 13.37,-0.983 19.654,-2.662l10.208,24.646l-16.075,-0l-0.137,9.466c3.191,3.059 6.92,7.621 6.92,7.621l33.355,0l-0,-17.087l-12.784,-0l-11.579,-27.95c5.738,-2.421 11.067,-5.592 15.988,-9.271c1.925,1.358 4.262,2.171 6.795,2.171c6.534,-0 11.83,-5.296 11.83,-11.83c-0,-2.608 -0.867,-4.995 -2.296,-6.954c3.733,-5.187 6.825,-10.85 9.175,-16.896c0.4,0.042 0.791,0.121 1.204,0.121c6.533,0 11.829,-5.296 11.829,-11.829c0,-5.2 -3.379,-9.571 -8.046,-11.154" style="fill:#e3000f;fill-rule:nonzero;"/><path d="M213.083,123.523c-7.333,-0 -14.988,0.062 -14.988,0.062c0,0 -6.179,-6.712 -12.758,-13.862c-6.579,-7.15 -20.387,-33.167 -27.229,-51.284c5.825,6.563 10.292,14.213 15.767,21.075c8.154,10.229 17.437,19.504 27.187,28.209l21.783,15.862c-2.508,-0.046 -6.095,-0.062 -9.762,-0.062m-74.288,-0.038c6.213,-21.425 9.305,-43.55 12.709,-65.554c1.021,0.304 1.162,1.558 1.375,2.429c2.904,11.863 3.816,25.5 6.479,37.738c1.85,8.516 4.671,16.837 6.371,25.391l-26.934,-0.004Zm-31.766,0.004l-25.667,0c6.567,-4.683 13.321,-9.096 19.554,-14.241c17.871,-14.763 31.55,-32.605 44.988,-51.317c-8.221,24.246 -21.209,46.979 -38.875,65.558m150.154,2.125c-38.517,-16.65 -73.183,-45.787 -103.038,-86.616l-0.237,-0.325l-0.021,-5.796l0.65,-0.354c2.846,-1.555 5.979,-2.309 9.588,-2.309c3.104,0 6.225,0.546 9.245,1.071c3.038,0.533 5.905,1.033 8.775,1.033l0.6,-0.008c6.784,-0.179 16.875,-4.071 20.105,-10.2c-0.113,0.038 -0.217,0.079 -0.325,0.121c-0.896,0.325 -1.821,0.667 -2.913,0.8c-0.95,0.117 -1.867,0.171 -2.742,0.171c-6.07,-0 -10.345,-2.663 -14.479,-5.238c-2.796,-1.741 -5.687,-3.541 -9.166,-4.546c-3.417,-0.983 -7.13,-1.483 -11.034,-1.483c-2.216,0 -4.566,0.158 -6.975,0.479l-1.137,0.15l-0.246,-1.121c-0.329,-1.483 0.158,-2.712 0.55,-3.7c0.267,-0.679 0.496,-1.262 0.475,-1.841c-0.075,-1.909 -1.708,-2.938 -3.2,-2.938c-0.588,0 -1.667,0.167 -2.358,1.284c-0.9,1.45 -0.609,2.045 -0.03,3.229c0.355,0.716 0.792,1.608 0.934,2.766c0.579,4.625 0.312,9.934 0.058,15.071c-0.212,4.196 -0.429,8.538 -0.167,12.35l0.03,0.446l-0.259,0.363c-27.833,39.191 -63.558,69.258 -103.337,86.975c-1.154,3.275 -0.638,7.087 1.437,10.541c2.388,3.963 6.375,6.684 10.404,7.092c0.675,0.066 1.338,0.1 1.975,0.1c6.534,-0 11.288,-3.613 14.538,-11.05l1.262,-2.896l1.059,2.979c2.35,6.608 8.062,10.879 14.558,10.879c4.958,0 11.063,-2.837 13.304,-10.796l0.213,-0.758l0.775,-0.133c0.354,-0.063 0.608,-0.088 0.796,-0.088c0.733,0 1.545,0.4 1.591,1.48l0.646,1.291c1.829,3.7 3.033,6.146 7.213,7.934c1.925,0.825 3.879,1.241 5.816,1.241c6.346,0 12.059,-4.625 14.209,-11.512l1.095,-3.509l1.271,3.446c2.479,6.725 7.796,10.9 13.871,10.9c5.967,0 11.121,-3.896 13.788,-10.421l1.254,-3.079l1.083,3.142c2.242,6.492 7.775,10.679 14.1,10.679c5.121,-0 11.425,-2.921 13.763,-11.117l0.833,-2.941l4.5,8.287c2.958,3.967 7.004,6.154 11.387,6.154c6.134,0 11.655,-4.154 14.055,-10.583l1.166,-3.117l1.171,3.113c2.483,6.571 7.754,10.491 14.104,10.491c4.317,0 8.417,-1.92 10.967,-5.137c1.833,-2.317 3.708,-6.333 2.45,-12.446" style="fill:#e8402a;fill-rule:nonzero;"/></g><defs><linearGradient id="_Linear1" x1="0" y1="0" x2="1" y2="0" gradientUnits="userSpaceOnUse" gradientTransform="matrix(0,-204.096,-204.096,-0,84.6611,359.98)"><stop offset="0" style="stop-color:#9e0b01;stop-opacity:1"/><stop offset="0.47" style="stop-color:#e3000f;stop-opacity:1"/><stop offset="0.99" style="stop-color:#e8402a;stop-opacity:1"/><stop offset="1" style="stop-color:#e8402a;stop-opacity:1"/></linearGradient><linearGradient id="_Linear2" x1="0" y1="0" x2="1" y2="0" gradientUnits="userSpaceOnUse" gradientTransform="matrix(0,-199.676,-199.676,-0,80.0981,356.605)"><stop offset="0" style="stop-color:#9e0b01;stop-opacity:1"/><stop offset="0.47" style="stop-color:#e3000f;stop-opacity:1"/><stop offset="0.99" style="stop-color:#e8402a;stop-opacity:1"/><stop offset="1" style="stop-color:#e8402a;stop-opacity:1"/></linearGradient><linearGradient id="_Linear3" x1="0" y1="0" x2="1" y2="0" gradientUnits="userSpaceOnUse" gradientTransform="matrix(0,-210.834,210.834,-0,212.665,361.747)"><stop offset="0" style="stop-color:#9e0b01;stop-opacity:1"/><stop offset="0.47" style="stop-color:#e3000f;stop-opacity:1"/><stop offset="0.99" style="stop-color:#e8402a;stop-opacity:1"/><stop offset="1" style="stop-color:#e8402a;stop-opacity:1"/></linearGradient></defs></svg>