<?xml version="1.0" encoding="UTF-8" standalone="no"?><!DOCTYPE svg PUBLIC "-//W3C//DTD SVG 1.1//EN" "http://www.w3.org/Graphics/SVG/1.1/DTD/svg11.dtd"><svg width="100%" height="100%" viewBox="0 0 1717 680" version="1.1" xmlns="http://www.w3.org/2000/svg" xmlns:xlink="http://www.w3.org/1999/xlink" xml:space="preserve" xmlns:serif="http://www.serif.com/" style="fill-rule:evenodd;clip-rule:evenodd;stroke-linejoin:round;stroke-miterlimit:2;"><g><path d="M136.667,164.167c-0,-0 288.754,14.604 720.004,14.604c421.537,-0 706.937,-13.971 719.558,-14.6l0.488,-0c-0,-0 -0.084,-0.004 -0.242,-0.008c0.158,-0.009 0.242,-0.013 0.242,-0.013l-0.488,0c-12.621,-0.629 -298.021,-14.6 -719.558,-14.6c-431.25,-0 -720.004,14.608 -720.004,14.608l-0,0.009Z" style="fill:#fff;fill-rule:nonzero;"/><path d="M1567.65,207.167c-0,-0 -279.729,19.304 -710.963,19.304c-431.249,-0 -710.97,-19.183 -710.97,-19.183l1421.93,-0.121Z" style="fill:#fff;fill-rule:nonzero;"/><path d="M167.854,252.387c0,0 255.096,17.971 688.813,17.971c428.858,0 688.741,-18.066 688.741,-18.066l-1377.55,0.095Z" style="fill:#fff;fill-rule:nonzero;"/><path d="M1491.79,298.1c0,-0 -203.2,18.537 -635.237,15.737c-431.25,-2.804 -635,-15.712 -635,-15.712l1270.24,-0.025Z" style="fill:#fff;fill-rule:nonzero;"/><path d="M145.717,119.992c-0,-0 279.746,-19.184 710.987,-19.184c431.234,0 710.946,19.313 710.946,19.313l-1421.93,-0.129Z" style="fill:#fff;fill-rule:nonzero;"/><path d="M1545.4,74.996c-0,-0 -259.813,-18.075 -688.675,-18.075c-433.721,-0 -688.829,17.971 -688.829,17.971l1377.5,0.104Z" style="fill:#fff;fill-rule:nonzero;"/><path d="M221.463,29.154c-0,0 204.033,-25.65 635.283,-28.45c432.037,-2.8 635.004,28.475 635.004,28.475l-1270.29,-0.025Z" style="fill:#fff;fill-rule:nonzero;"/><path d="M30.971,503.663l33.942,-0c13.804,-0 21.308,-5.913 21.308,-20.126c-0,-13.604 -7.504,-19.529 -21.308,-19.529l-33.942,0l-0,39.655Zm-30.971,-63.726l75.958,0c25.259,0 41.238,17.567 41.238,38.876c-0,16.575 -6.708,29.004 -22.292,35.316l0,0.392c15.188,3.954 19.529,18.75 20.517,32.95c0.592,8.879 0.396,25.458 5.925,33.342l-30.983,-0c-3.75,-8.871 -3.355,-22.484 -4.934,-33.734c-2.171,-14.8 -7.892,-21.312 -23.479,-21.312l-30.979,-0l-0,55.046l-30.971,-0l-0,-140.876Z" style="fill:#fff;fill-rule:nonzero;"/><path d="M182.192,526.362l36.504,0l-17.763,-51.695l-0.391,-0l-18.35,51.695Zm2.962,-86.425l31.763,0l52.683,140.876l-32.158,-0l-10.659,-31.363l-52.679,0l-11.054,31.363l-31.371,-0l53.475,-140.876Z" style="fill:#fff;fill-rule:nonzero;"/><path d="M294.971,465.988l-42.221,-0l-0,-26.051l115.429,0l0,26.051l-42.229,-0l-0,114.825l-30.979,-0l-0,-114.825Z" style="fill:#fff;fill-rule:nonzero;"/><path d="M384.354,439.937l30.975,0l0,54.059l57.025,-0l0,-54.059l30.984,0l-0,140.876l-30.984,-0l0,-60.767l-57.025,-0l0,60.767l-30.975,-0l0,-140.876Z" style="fill:#fff;fill-rule:nonzero;"/><path d="M568.192,526.362l36.504,0l-17.758,-51.695l-0.396,-0l-18.35,51.695Zm2.958,-86.425l31.771,0l52.679,140.876l-32.162,-0l-10.655,-31.363l-52.679,0l-11.054,31.363l-31.375,-0l53.475,-140.876Z" style="fill:#fff;fill-rule:nonzero;"/><path d="M782.471,527.55c-0,38.079 -22.496,56.625 -60.179,56.625c-37.884,-0 -59.984,-18.354 -59.984,-56.625l0,-87.613l30.98,0l-0,87.613c-0,15.388 3.945,30.583 29.004,30.583c22.095,0 29.195,-9.679 29.195,-30.583l0,-87.613l30.984,0l-0,87.613Z" style="fill:#fff;fill-rule:nonzero;"/><path d="M830.217,534.062c-0,18.738 14.6,26.038 31.166,26.038c10.855,-0 27.425,-3.154 27.425,-17.558c0,-15.196 -21.104,-17.759 -41.821,-23.284c-20.912,-5.529 -42.025,-13.616 -42.025,-40.058c0,-28.808 27.23,-42.617 52.675,-42.617c29.401,0 56.434,12.825 56.434,45.384l-29.992,-0c-0.987,-16.967 -13.021,-21.313 -27.821,-21.313c-9.862,0 -21.304,4.142 -21.304,15.992c0,10.842 6.708,12.225 42.021,21.304c10.258,2.567 41.833,9.075 41.833,41.033c0,25.855 -20.325,45.192 -58.604,45.192c-31.167,-0 -60.375,-15.392 -59.975,-50.113l29.988,0Z" style="fill:#fff;fill-rule:nonzero;"/><path d="M1062.33,580.813l-9.662,-0l-1.78,-25.65l-0.395,-0c-9.471,20.133 -28.413,28.612 -48.738,28.612c-44.392,0 -66.496,-34.921 -66.496,-73.396c0,-38.479 22.104,-73.396 66.496,-73.396c29.596,0 53.675,15.984 58.8,46.759l-13.416,-0c-1.776,-16.179 -18.551,-35.317 -45.384,-35.317c-37.292,0 -53.075,31.175 -53.075,61.954c0,30.779 15.783,61.954 53.075,61.954c31.175,0 49.334,-21.9 48.738,-51.691l-47.946,-0l-0,-11.45l59.783,-0l0,71.621Z" style="fill:#fff;fill-rule:nonzero;"/><path d="M1110.22,525.571l55.446,-0l-27.23,-72.217l-28.216,72.217Zm21.308,-85.634l14.996,0l55.254,140.876l-14.408,-0l-17.163,-43.801l-64.129,0l-16.971,43.801l-14.404,-0l56.825,-140.876Z" style="fill:#fff;fill-rule:nonzero;"/><path d="M1214.59,439.937l13.42,0l0,129.442l78.926,0l-0,11.434l-92.346,-0l-0,-140.876Z" style="fill:#fff;fill-rule:nonzero;"/><path d="M1322.66,439.937l97.28,0l-0,11.442l-83.863,0l-0,50.908l78.533,0l0,11.442l-78.533,0l-0,55.65l84.846,0l-0,11.434l-98.263,-0l0,-140.876Z" style="fill:#fff;fill-rule:nonzero;"/><path d="M1453.08,506.829l50.117,0c16.379,0 30.387,-10.262 30.387,-27.433c0,-17.163 -10.258,-28.017 -30.387,-28.017l-50.117,0l0,55.45Zm-13.412,-66.892l64.516,0c23.284,0 42.821,11.246 42.821,36.709c0,17.75 -9.271,32.358 -27.429,35.904l-0,0.4c18.35,2.358 23.675,14.992 24.667,31.762c0.591,9.667 0.591,29.005 6.512,36.101l-14.8,-0c-3.358,-5.517 -3.358,-15.975 -3.75,-21.892c-1.183,-19.729 -2.762,-41.634 -28.216,-40.65l-50.909,-0l0,62.542l-13.412,-0l-0,-140.876Z" style="fill:#fff;fill-rule:nonzero;"/><rect x="1572.25" y="439.937" width="13.417" height="140.875" style="fill:#fff;fill-rule:nonzero;"/><path d="M1615.07,439.937l97.279,0l-0,11.442l-83.863,0l0,50.908l78.534,0l-0,11.442l-78.534,0l0,55.65l84.846,0l0,11.434l-98.262,-0l-0,-140.876Z" style="fill:#fff;fill-rule:nonzero;"/><path d="M37.912,627.454l0,9.354l-26.704,0l0,10.834l24.509,-0l-0,8.641l-24.509,0l0,12.396l27.271,0l0,9.35l-38.392,0l0,-50.575l37.825,0Z" style="fill:#fff;fill-rule:nonzero;"/><rect x="60.863" y="627.454" width="11.121" height="50.575" style="fill:#fff;fill-rule:nonzero;"/><path d="M107.687,627.454l21.109,33.929l0.137,0l0,-33.929l10.413,0l-0,50.575l-11.121,0l-21.033,-33.858l-0.146,-0l-0,33.858l-10.413,0l0,-50.575l11.054,0Z" style="fill:#fff;fill-rule:nonzero;"/><path d="M175.117,627.454l-0,20.967l19.762,-20.967l13.888,0l-19.767,19.975l21.679,30.6l-13.958,0l-15.225,-22.737l-6.379,6.445l-0,16.292l-11.121,0l-0,-50.575l11.121,0Z" style="fill:#fff;fill-rule:nonzero;"/><path d="M255.867,658.479l-6.375,-18.558l-0.142,-0l-6.587,18.558l13.104,0Zm-0.638,-31.025l18.913,50.575l-11.546,0l-3.825,-11.262l-18.913,-0l-3.966,11.262l-11.192,0l19.125,-50.575l11.404,0Z" style="fill:#fff;fill-rule:nonzero;"/><path d="M330.6,674.167c-3.825,3.329 -9.117,5 -15.867,5c-6.85,-0 -12.15,-1.659 -15.904,-4.963c-3.754,-3.304 -5.629,-8.404 -5.629,-15.3l-0,-31.45l11.121,0l-0,31.45c-0,1.371 0.117,2.717 0.354,4.038c0.233,1.321 0.729,2.491 1.487,3.508c0.755,1.012 1.805,1.837 3.151,2.479c1.345,0.638 3.154,0.954 5.42,0.954c3.967,0 6.704,-0.887 8.217,-2.658c1.508,-1.767 2.267,-4.542 2.267,-8.321l-0,-31.45l11.121,0l-0,31.45c-0,6.85 -1.913,11.938 -5.738,15.263Z" style="fill:#fff;fill-rule:nonzero;"/><path d="M396.333,627.454l0,9.354l-24.441,0l-0,11.684l21.179,-0l-0,8.641l-21.179,0l-0,20.896l-11.121,0l-0,-50.575l35.562,0Z" style="fill:#fff;fill-rule:nonzero;"/><path d="M455.479,627.454l0,9.354l-26.704,0l-0,10.834l24.508,-0l0,8.641l-24.508,0l-0,12.396l27.271,0l-0,9.35l-38.392,0l0,-50.575l37.825,0Z" style="fill:#fff;fill-rule:nonzero;"/><path d="M489.479,627.454l21.109,33.929l0.141,0l0,-33.929l10.413,0l-0,50.575l-11.121,0l-21.038,-33.858l-0.141,-0l-0,33.858l-10.413,0l0,-50.575l11.05,0Z" style="fill:#fff;fill-rule:nonzero;"/><path d="M596.012,627.454l11.83,34.779l0.141,0l11.192,-34.779l15.654,0l0,50.575l-10.412,0l-0,-35.837l-0.142,-0l-12.396,35.837l-8.571,0l-12.395,-35.483l-0.142,-0l-0,35.483l-10.413,0l0,-50.575l15.654,0Z" style="fill:#fff;fill-rule:nonzero;"/><rect x="659.479" y="627.454" width="11.121" height="50.575" style="fill:#fff;fill-rule:nonzero;"/><path d="M691.283,636.808l0,-9.354l41.438,0l-0,9.354l-15.159,0l0,41.221l-11.12,0l-0,-41.221l-15.159,0Z" style="fill:#fff;fill-rule:nonzero;"/><path d="M749.438,636.808l-0,-9.354l41.437,0l-0,9.354l-15.158,0l-0,41.221l-11.121,0l-0,-41.221l-15.158,0Z" style="fill:#fff;fill-rule:nonzero;"/><path d="M849.379,627.454l0,9.354l-26.704,0l0,10.834l24.512,-0l0,8.641l-24.512,0l0,12.396l27.271,0l-0,9.35l-38.392,0l0,-50.575l37.825,0Z" style="fill:#fff;fill-rule:nonzero;"/><path d="M883.383,627.454l21.104,33.929l0.142,0l0,-33.929l10.413,0l-0,50.575l-11.121,0l-21.038,-33.858l-0.141,-0l-0,33.858l-10.413,0l0,-50.575l11.054,0Z" style="fill:#fff;fill-rule:nonzero;"/><rect x="974.262" y="627.454" width="11.121" height="50.575" style="fill:#fff;fill-rule:nonzero;"/><path d="M1021.08,627.454l21.109,33.929l0.141,0l0,-33.929l10.413,0l-0,50.575l-11.121,0l-21.038,-33.858l-0.141,-0l-0,33.858l-10.413,0l0,-50.575l11.05,0Z" style="fill:#fff;fill-rule:nonzero;"/><path d="M1123.08,627.454l0,41.225l24.65,0l0,9.35l-35.77,0l-0,-50.575l11.12,0Z" style="fill:#fff;fill-rule:nonzero;"/><path d="M1206.67,627.454l-0,9.354l-26.709,0l0,10.834l24.509,-0l-0,8.641l-24.509,0l0,12.396l27.271,0l0,9.35l-38.392,0l0,-50.575l37.83,0Z" style="fill:#fff;fill-rule:nonzero;"/><path d="M1240.59,678.029l-16.363,-50.575l11.409,0l11.262,35.563l0.142,-0l11.4,-35.563l11.475,0l-16.784,50.575l-12.541,0Z" style="fill:#fff;fill-rule:nonzero;"/><path d="M1326.94,627.454l-0,9.354l-26.704,0l-0,10.834l24.504,-0l-0,8.641l-24.504,0l-0,12.396l27.27,0l0,9.35l-38.391,0l-0,-50.575l37.825,0Z" style="fill:#fff;fill-rule:nonzero;"/><path d="M1373.19,650.333c2.554,0 4.466,-0.566 5.737,-1.7c1.279,-1.133 1.913,-2.971 1.913,-5.525c-0,-2.454 -0.634,-4.237 -1.913,-5.346c-1.271,-1.112 -3.183,-1.666 -5.737,-1.666l-12.18,-0l0,14.237l12.18,0Zm3.966,-22.879c2.267,0 4.313,0.367 6.129,1.1c1.821,0.734 3.38,1.734 4.675,3.008c1.3,1.275 2.292,2.755 2.975,4.426c0.684,1.679 1.03,3.483 1.03,5.42c-0,2.975 -0.626,5.55 -1.88,7.725c-1.25,2.167 -3.291,3.825 -6.129,4.954l0,0.142c1.371,0.379 2.504,0.958 3.404,1.734c0.896,0.783 1.625,1.7 2.196,2.762c0.567,1.062 0.975,2.233 1.238,3.508c0.258,1.275 0.437,2.55 0.533,3.825c0.046,0.804 0.092,1.75 0.142,2.834c0.046,1.087 0.125,2.195 0.25,3.333c0.112,1.129 0.304,2.204 0.562,3.221c0.259,1.012 0.65,1.875 1.171,2.583l-11.121,0c-0.617,-1.604 -0.996,-3.516 -1.137,-5.737c-0.138,-2.217 -0.354,-4.346 -0.634,-6.375c-0.379,-2.646 -1.179,-4.579 -2.408,-5.809c-1.229,-1.229 -3.237,-1.841 -6.025,-1.841l-11.117,-0l0,19.762l-11.121,0l0,-50.575l27.267,0Z" style="fill:#fff;fill-rule:nonzero;"/><path d="M1427.02,627.454l-0,20.967l19.762,-20.967l13.884,0l-19.763,19.975l21.679,30.6l-13.954,0l-15.229,-22.737l-6.379,6.445l-0,16.292l-11.121,0l0,-50.575l11.121,0Z" style="fill:#fff;fill-rule:nonzero;"/><path d="M1519.1,674.167c-3.825,3.329 -9.116,5 -15.866,5c-6.846,-0 -12.151,-1.659 -15.901,-4.963c-3.758,-3.304 -5.633,-8.404 -5.633,-15.3l0,-31.45l11.121,0l0,31.45c0,1.371 0.121,2.717 0.354,4.038c0.238,1.321 0.734,2.491 1.492,3.508c0.75,1.012 1.8,1.837 3.15,2.479c1.346,0.638 3.15,0.954 5.417,0.954c3.966,0 6.708,-0.887 8.216,-2.658c1.513,-1.767 2.267,-4.542 2.267,-8.321l-0,-31.45l11.121,0l-0,31.45c-0,6.85 -1.913,11.938 -5.738,15.263Z" style="fill:#fff;fill-rule:nonzero;"/><path d="M1557.78,665.562c0.617,1.18 1.429,2.138 2.446,2.867c1.012,0.733 2.204,1.279 3.575,1.634c1.371,0.354 2.783,0.529 4.25,0.529c0.992,-0 2.054,-0.084 3.191,-0.25c1.13,-0.163 2.192,-0.484 3.184,-0.954c0.996,-0.471 1.821,-1.121 2.479,-1.946c0.662,-0.825 0.992,-1.88 0.992,-3.155c-0,-1.37 -0.434,-2.474 -1.309,-3.329c-0.875,-0.85 -2.021,-1.558 -3.433,-2.125c-1.421,-0.566 -3.025,-1.062 -4.821,-1.487c-1.792,-0.425 -3.612,-0.896 -5.454,-1.417c-1.888,-0.471 -3.729,-1.05 -5.521,-1.737c-1.8,-0.684 -3.404,-1.567 -4.821,-2.655c-1.416,-1.083 -2.562,-2.441 -3.433,-4.075c-0.875,-1.625 -1.308,-3.595 -1.308,-5.912c-0,-2.596 0.55,-4.854 1.662,-6.767c1.109,-1.912 2.559,-3.504 4.354,-4.779c1.796,-1.275 3.825,-2.217 6.092,-2.833c2.267,-0.613 4.533,-0.921 6.804,-0.921c2.638,0 5.179,0.296 7.613,0.883c2.429,0.596 4.591,1.55 6.483,2.871c1.888,1.321 3.383,3.009 4.496,5.067c1.108,2.054 1.662,4.541 1.662,7.475l-10.766,-0c-0.092,-1.517 -0.417,-2.767 -0.954,-3.758c-0.542,-0.992 -1.263,-1.771 -2.163,-2.334c-0.896,-0.571 -1.925,-0.971 -3.079,-1.204c-1.163,-0.238 -2.421,-0.354 -3.788,-0.354c-0.9,-0 -1.8,0.092 -2.695,0.279c-0.896,0.192 -1.713,0.521 -2.442,0.992c-0.734,0.475 -1.333,1.062 -1.804,1.77c-0.475,0.709 -0.709,1.609 -0.709,2.696c0,0.988 0.188,1.792 0.563,2.405c0.379,0.612 1.121,1.183 2.233,1.7c1.108,0.52 2.642,1.041 4.604,1.558c1.959,0.521 4.521,1.179 7.688,1.983c0.942,0.188 2.254,0.529 3.929,1.029c1.675,0.496 3.342,1.284 4.992,2.371c1.654,1.088 3.083,2.538 4.287,4.358c1.204,1.817 1.804,4.142 1.804,6.98c0,2.308 -0.446,4.458 -1.346,6.441c-0.895,1.984 -2.229,3.696 -4,5.138c-1.774,1.442 -3.966,2.558 -6.587,3.366c-2.621,0.8 -5.654,1.205 -9.104,1.205c-2.788,-0 -5.488,-0.346 -8.109,-1.029c-2.62,-0.688 -4.933,-1.759 -6.941,-3.226c-2.008,-1.462 -3.6,-3.329 -4.779,-5.595c-1.188,-2.267 -1.75,-4.959 -1.704,-8.075l10.766,-0c0,1.7 0.308,3.141 0.921,4.32Z" style="fill:#fff;fill-rule:nonzero;"/><path d="M1647.95,627.454l-0,9.354l-26.704,0l-0,10.834l24.504,-0l0,8.641l-24.504,0l-0,12.396l27.267,0l-0,9.35l-38.388,0l-0,-50.575l37.825,0Z" style="fill:#fff;fill-rule:nonzero;"/><path d="M1681.95,627.454l21.104,33.929l0.142,0l-0,-33.929l10.416,0l0,50.575l-11.12,0l-21.038,-33.858l-0.141,-0l-0,33.858l-10.413,0l-0,-50.575l11.05,0Z" style="fill:#fff;fill-rule:nonzero;"/></g></svg>