<?xml version="1.0" encoding="UTF-8" standalone="no"?>
<!DOCTYPE svg PUBLIC "-//W3C//DTD SVG 1.1//EN" "http://www.w3.org/Graphics/SVG/1.1/DTD/svg11.dtd">
<svg width="100%" height="100%" viewBox="0 0 26042 19967" version="1.1" xmlns="http://www.w3.org/2000/svg" xmlns:xlink="http://www.w3.org/1999/xlink" xml:space="preserve" xmlns:serif="http://www.serif.com/" style="fill-rule:evenodd;clip-rule:evenodd;stroke-linejoin:round;stroke-miterlimit:2;">
    <path d="M26035.8,6699.62C26050.713,6741.199 26037.363,6784.149 25994.654,6791.474C25828.058,6820.016 25977.642,6537.97 26035.8,6699.62M23586.37,11551.37C23468.245,11586.391 23663.07,11736.495 23647.012,11609.149C23643.208,11578.887 23639.687,11535.608 23586.37,11551.37M23429.095,9845.25C23472.812,9927.487 23618.399,9882.729 23609.841,9809.187C23593.399,9666.725 23377.395,9748.129 23429.095,9845.25M21156.245,15913.08C21194.958,15906.534 21212.824,15866.618 21197.441,15821.239C21142.129,15659.155 20971.124,15944.259 21156.245,15913.076M24820.115,1836.976C24784.715,1932.668 24989.123,1991.439 24958.657,1853.172C24943.552,1784.459 24848.707,1759.284 24820.115,1836.976M20382.155,12125.376C20433.092,12198.063 20565.363,12136.917 20534.305,12054.438C20487.534,11930.272 20328.176,12048.638 20382.155,12125.376M18617.425,17043.046C18559.129,17166.692 18816.175,17265.288 18800.254,17085.859C18790.708,16979.001 18657.287,16958.517 18617.425,17043.046M22223.195,5377.246C22161.075,5454.121 22341.683,5506.155 22306.82,5402.801C22294.133,5365.267 22249.841,5344.313 22223.195,5377.246M18360.135,16859.846C18284.443,16964.863 18486.577,17081.984 18496.073,16927.417C18501.056,16847.834 18406.368,16795.613 18360.135,16859.846M18151.873,16900.576C18199.006,16908.371 18220.76,16868.217 18213.26,16827.971C18186.318,16684.326 17991.127,16874.205 18151.873,16900.576M20621.243,7798.746C20709.298,7861.8 20812.544,7804.492 20816.573,7714.98C20827.893,7463.05 20437.406,7667.163 20621.243,7798.746M19886.885,9858.916C19884.231,9993.154 20182.335,10052.874 20154.873,9836.399C20135.393,9682.962 19890.131,9698.362 19886.885,9858.916M20866.956,6098.446C20761.66,6206.588 21038.293,6281.763 20986.26,6134.938C20974.714,6102.388 20905.86,6058.288 20866.956,6098.446M22509.606,255.736C22552.977,269.99 22572.281,236.344 22563.669,206.936C22535.165,110.665 22412.331,223.757 22509.606,255.736M19131.536,10920.436C19208.895,10989.948 19287.107,10908.315 19283.774,10849.498C19274.036,10674.011 19034.47,10833.44 19131.536,10920.436M20467.576,6080.816C20311.48,6072.728 20273.234,6358.249 20451.601,6389.237C20543.13,6405.103 20606.793,6328.228 20613.876,6243.074C20623.147,6130.47 20565.734,6085.903 20467.576,6080.816M19326.016,10327.146C19189.696,10309.804 19395.008,10507.704 19354.521,10361.975C19350.633,10347.963 19349.437,10330.15 19326.016,10327.146M19801.604,6294.946C19754.229,6320.467 19754.037,6393.921 19717.3,6399.721C19721.154,6399.146 19608.5,6346.213 19585.929,6359.563C19536.658,6388.729 19556.604,6478.729 19621.187,6500.779C19656.066,6512.846 19698.583,6452.654 19738.55,6458.35C19772.75,6463.383 19799.937,6530.813 19843.358,6542.688C19951.416,6572.1 20079.087,6486.092 20068.829,6402.758C20061.5,6343.125 19919.487,6231.421 19801.604,6294.946M17154.804,15251.026C17064.579,15357.935 17296.783,15475.018 17290.741,15318.735C17288.466,15260.105 17202.895,15194.01 17154.804,15251.026M19997.604,6080.606C20052.916,6111.835 20092.258,6043.781 20082.845,6015.276C20047.883,5909.597 19915.174,6034.043 19997.604,6080.606M18598.664,10143.906C18616.614,10159.86 18656.493,10139.81 18637.189,10103.56C18613.681,10059.41 18577.951,10125.61 18598.664,10143.905M19422.293,7236.385C19365.364,7294.631 19506.635,7319.668 19470.139,7251.022C19460.401,7232.722 19442.26,7216.039 19422.293,7236.385M17212.343,14080.595C17239.481,14131.045 17347.397,14096.133 17321.547,14022.574C17286.043,13921.512 17188.16,14035.541 17212.343,14080.595M18884.133,7032.635C18937.154,7084.668 18985.345,7014.631 18985.904,6998.522C18990.712,6870.085 18805.674,6955.985 18884.133,7032.635M16360.203,14903.675C16286.503,14961.505 16455.378,15033.121 16428.19,14937.459C16418.64,14903.726 16389.561,14880.584 16360.203,14903.676M18874.193,6638.046C18888.064,6664.28 18947.077,6643.513 18932.981,6616.759C18909.506,6572.855 18862.893,6616.709 18874.193,6638.046M17954.439,9176.796C17773.31,9251.341 18133.481,9515.146 18086.731,9256.429C18073.71,9184.07 18014.593,9151.987 17954.439,9176.796M18346.398,7638.586C18337.127,7583.465 18315.652,7455.303 18344.073,7389.836C18396.814,7268.394 18612.335,7277.128 18607.823,7039.644C18602.789,6775.323 18220.481,6709.803 18101.693,6858.811C18006.71,6977.928 18053.848,7143.323 18016.123,7224.244C17971.156,7320.461 17814.698,7318.569 17752.023,7404.661C17672.527,7514.036 17650.964,7696.365 17706.939,7808.636C17733.918,7862.944 17814.177,7912.786 17844.818,7955.219C17928.31,8070.74 17928.689,8184.819 18045.427,8238.515C18268.71,8340.998 18421.189,8128.986 18442.477,8007.353C18471.885,7839.661 18369.298,7774.853 18346.398,7638.586M15225.778,18016.486C15266.49,18068.323 15300.086,17989.627 15300.032,17986.969C15299.894,17890.894 15186.057,17965.927 15225.778,18016.486M19717.898,3109.986C19788.314,3145.906 19845.152,3076.307 19842.585,3043.648C19829.943,2883.336 19558.348,3028.357 19717.898,3109.986M18512.728,6710.286C18550.123,6714.885 18584.619,6676.36 18562.136,6633.985C18510.819,6537.423 18395.886,6695.894 18512.728,6710.286M18399.307,6440.631C18461.736,6497.369 18512.728,6415.598 18508.44,6382.577C18493.715,6269.731 18332.694,6380.06 18399.307,6440.631M18464.69,6055.91C18383.44,6146.569 18601.719,6206.152 18560.244,6085.077C18548.319,6050.198 18502.798,6013.569 18464.69,6055.91M17701.548,8381.45C17792.728,8413.05 17853.023,8337.354 17856.444,8259.004C17869.465,7957.008 17433.84,8288.796 17701.548,8381.45M18704.028,4888.88C18608.282,5001.534 18861.444,5095.509 18843.665,4944.609C18837.069,4888.739 18751.111,4833.426 18704.028,4888.88M18564.986,5172.734C18485.869,5185.268 18610.798,5293.984 18593.544,5207.505C18591.703,5198.151 18586.182,5169.364 18564.986,5172.734M16599.566,11216.984C16634.529,11258.793 16686.458,11210.422 16677.587,11175.509C16654.391,11085.318 16564.962,11175.355 16599.566,11216.984M18874.546,2708.484C18789.688,2875.272 19101.109,3017.58 19113.367,2781.468C19121.821,2617.876 18914.271,2630.239 18874.546,2708.484M17873.296,6410.374C17784.738,6437.545 17879.442,6685.445 17935.938,6546.97C17945.296,6524.262 17937.638,6390.599 17873.296,6410.374M15259.526,14319.084C15337.738,14377.851 15413.138,14292.034 15411.817,14248.093C15405.672,14066.618 15129.942,14221.755 15259.526,14319.084M17042.926,7631.794C17117.805,7730.056 17290.426,7673.565 17269.472,7531.252C17236.78,7310.16 16943.047,7500.506 17042.926,7631.794M17233.03,7180.627C17310.043,7216.931 17354.384,7169.465 17357.805,7114.36C17370.53,6908.702 17051.051,7094.969 17233.03,7180.627M17724.247,5189.777C17682.526,5314.71 17908.272,5364.969 17898.672,5216.965C17890.788,5094.519 17752.838,5104.015 17724.247,5189.777M17704.088,4700.61C17620.997,4728.51 17680.618,4781.965 17617.143,4856.794C17574.801,4906.794 17507.197,4887.485 17497.076,4950.648C17475.738,5083.735 17629.313,4978.669 17671.555,4977.869C17731.33,4976.69 17735.268,5043.581 17806.538,5006.044C17843.793,4986.515 17864.122,4919.048 17865.876,4854.569C17867.734,4791.185 17831.955,4657.71 17704.088,4700.61M14977.618,14259.07C15002.793,14264.107 15019.043,14242.907 15004.127,14214.974C14970.206,14151.12 14914.043,14246.241 14977.618,14259.07M15442.931,12181.88C15480.464,12272.351 15652.043,12237.526 15619.023,12118.305C15580.968,11980.318 15406.21,12093.497 15442.931,12181.88M16038.589,10575.39C16077.218,10567.927 16099.356,10517.56 16083.348,10471.606C16027.46,10311.76 15864.927,10609.123 16038.589,10575.39M17934.019,3948.43C17826.919,3983.414 17999.264,4100.914 17994.748,4006.122C17993.223,3975.43 17986.677,3931.226 17934.019,3948.43M15758.619,10594.35C15773.91,10586.175 15765.077,10546.262 15761.24,10542.842C15716.098,10502.546 15700.406,10625.133 15758.619,10594.35M17296.659,5307.18C17335.234,5294.384 17333.518,5255.722 17322.213,5223.639C17266.763,5064.993 17141.518,5358.776 17296.659,5307.18M16147.539,7358.03C16136.168,7384.889 16087.851,7527.284 16113.98,7595.705C16133.097,7645.93 16237.764,7697.964 16274.83,7710.272C16448.964,7767.772 16597.264,7652.114 16621.359,7515.984C16667.297,7257.405 16258.859,7093.326 16147.539,7358.03M15342.28,10845.58C15351.272,10879.589 15426.014,10888.393 15412.993,10828.13C15399.534,10766.085 15334.155,10815.076 15342.28,10845.58M16842.4,5298.91C16816.792,5233.335 16898.233,5148.197 16916.325,5099.535C17009.742,4848.56 16788.946,4903.439 16626.721,4893.51C16453.858,4882.918 16350.854,4838.439 16240.471,4918.926C16139.692,4992.431 16105.196,5152.847 16012.538,5280.056C15977.608,5327.951 15887.242,5372.66 15838.388,5422.693C15637.971,5628.197 15452.242,5926.46 15217.992,6042.435C15014.675,6143.214 14763.458,6234.497 14698.492,6588.718C14664.154,6776.685 14709.675,7070.143 14779.379,7135.522C14860.142,7211.268 15349.171,7351.306 15459.933,7343.647C15512.763,7340.035 15710.054,7223.335 15829.467,7117.189C15961.358,6999.914 16062.329,6675.435 16020.333,6535.785C15999.813,6467.989 15815.596,6227.935 15774.621,6186.514C15709.483,6120.747 15607.417,6086.826 15623.633,5996.772C15632.417,5948.351 15748.304,5839.743 15816.117,5794.497C15897.175,5740.385 16063.388,5646.531 16179.275,5631.426C16263.513,5620.401 16413.754,5657.797 16530.888,5634.431C16610.908,5618.406 16699.708,5529.168 16757.4,5533.926C16815.263,5538.768 16857.833,5611.81 16917.279,5608.96C16969.742,5606.443 17009.554,5548.806 17017.017,5495.872C17040.871,5328.51 16884.971,5407.622 16842.4,5298.91M15840.77,8830.84C15742.178,8860.877 15895.232,9094.644 15931.016,8962.89C15934.991,8948.061 15902.974,8811.881 15840.77,8830.84M15392.853,10338.84C15125.199,10160.977 14953.757,10663.977 15278.67,10669.536C15366.378,10671.115 15431.761,10573.648 15439.936,10483.857C15446.724,10408.544 15425.874,10360.836 15392.853,10338.84M15114.366,11206.757C15154.886,11200.057 15169.141,11154.865 15155.545,11114.865C15100.111,10951.498 14934.607,11236.773 15114.366,11206.757M14121.516,14454.287C14150.266,14447.449 14153.22,14413.941 14143.478,14382.691C14106.17,14263.474 13994.936,14484.412 14121.516,14454.287M13436.674,16438.197C13458.011,16439.151 13475.786,16413.456 13466.899,16382.139C13438.861,16283.631 13347.403,16434.585 13436.674,16438.197M14574.484,11093.907C14403.426,11127.202 14703.164,11369.773 14659.014,11158.994C14651.326,11121.977 14649.468,11079.357 14574.484,11093.907M16425.684,3800.617C16177.805,4021.275 16724.801,4396.504 16746.38,3990.063C16751.501,3892.371 16551.988,3688.15 16425.684,3800.617M16014.73,5998.827C15913.759,6100.269 16170.772,6167.977 16122.109,6031.711C16107.334,5990.077 16049.368,5964.002 16014.73,5998.827M14419.82,11386.117C14446.349,11378.096 14453.049,11347.071 14445.395,11302.592C14412.27,11107.871 14237.561,11441.863 14419.82,11386.117M13543.936,13781.567C13633.728,13793.634 13707.336,13689.675 13696.832,13580.334C13666.278,13261.271 13213.745,13737.28 13543.936,13781.567M13942.165,12180.007C13816.278,12320.094 14139.386,12416.64 14085.411,12223.827C14070.165,12169.173 13981.782,12135.927 13942.165,12180.007M16288.575,4633.427C16140.658,4635.911 16362.795,4829.381 16317.083,4668.269C16313.854,4656.727 16311.337,4633.011 16288.575,4633.427M14762.845,9154.047C14775.866,9211.789 14970.866,9260.868 14939.929,9129.864C14918.454,9038.822 14742.9,9065.714 14762.845,9154.047M13874.441,10736.327C13792.966,10823.602 13813.92,10983.219 13960.258,11010.631C14040.712,11025.648 14304.895,10875.111 14298.575,10800.752C14288.591,10683.861 13962.587,10641.811 13874.441,10736.327M12458.871,16818.157C12475.401,16809.357 12463.246,16769.877 12461.526,16766.698C12410.259,16670.19 12378.23,16860.969 12458.871,16818.157M14925.871,7937.537C14917.8,7876.862 14757.571,7594.016 14711.342,7571.724C14663.3,7548.528 14517.955,7558.232 14466.305,7561.982C14306.946,7573.666 14109.796,7682.712 14071.217,7872.07C14058.059,7936.741 14096.217,8003.787 14067.85,8053.857C14004.934,8165.057 13901.446,8071.828 13737.521,8109.499C13505.021,8162.87 13412.313,8580.716 13524.796,8762.503C13565.646,8828.512 13771.584,8901.391 13767.538,8993.337C13764.55,9062.141 13595.159,9179.828 13754.238,9250.491C13875.159,9304.082 13938.98,9093.874 14028.596,9164.587C14065.888,9193.995 13967.4,9284.849 14063.7,9305.891C14211.617,9338.249 14055.109,9187.399 14059.759,9147.903C14065.038,9101.67 14124.675,9100.195 14147.625,9031.203C14158.267,8999.274 14138.355,8934.762 14152,8888.945C14164.259,8847.278 14273.3,8746.741 14307.555,8636.307C14334.117,8550.595 14321.721,8476.791 14342.05,8437.937C14376.271,8373.024 14473.475,8420.974 14519.188,8413.703C14689.813,8386.703 14885.246,8258.32 14912.296,8024.745C14914.484,8005.349 14928.492,7957.312 14925.871,7937.537M13998.892,10030.177C13785.75,10031.077 14057.434,10376.131 14072.555,10130.956C14076.113,10073.127 14072.555,10029.848 13998.892,10030.177M12928.752,13188.767C12891.406,13275.904 13070.402,13357.971 13072.068,13232.571C13073.247,13142.1 12961.006,13113.646 12928.752,13188.767M13979.082,9710.817C13940.173,9812.084 14161.215,9866.284 14129.653,9730.729C14117.257,9677.517 14003.89,9646.146 13979.082,9710.817M11011.032,19717.617C10939.052,19705.933 11041.448,19861.071 11035.927,19764.337C11033.74,19725.412 11022.957,19719.612 11011.032,19717.617M14088.562,9352.717C13980.645,9384.088 14155.887,9512.421 14149.291,9410.354C14147.295,9380.667 14133.508,9339.559 14088.562,9352.717M12159.152,14467.927C12020.677,14642.681 12368.922,14776.294 12366.685,14557.494C12365.693,14461.886 12222.485,14387.961 12159.152,14467.927M11697.431,16533.137C11640.468,16591.382 11781.735,16616.328 11745.193,16547.72C11735.452,16529.474 11717.397,16512.808 11697.431,16533.137M13675.611,9422.307C13634.361,9406.491 13479.932,9387.011 13434.169,9400.641C13191.511,9473.157 13384.236,9898.261 13503.073,9943.974C13665.903,10006.507 13783.319,9906.628 13813.923,9738.661C13838.336,9604.632 13804.273,9471.578 13675.611,9422.307M13072.294,11822.737C12921.007,11842.737 13179.257,12022.353 13136.632,11868.537C13127.553,11835.949 13112.778,11817.37 13072.294,11822.737M14958.804,5310.447C14852.849,5265.639 14752.97,5362.13 14711.062,5352.201C14648.249,5337.393 14668.633,5243.643 14597.97,5252.426C14522.849,5261.647 14533.924,5363.084 14545.887,5380.014C14588.091,5439.543 14655.279,5356.105 14688.162,5384.422C14741.133,5429.943 14656.599,5565.88 14769.412,5631.209C14927.729,5722.739 15049.708,5586.455 15053.649,5470.047C15056.166,5395.639 15013.266,5333.484 14958.804,5310.447M14909.291,5856.73C14922.449,5849.076 14922.033,5818.955 14915.612,5793.38C14877.12,5637.497 14789.22,5927.147 14909.291,5856.73M13430.801,10052.35C13324.606,10081.95 13512.676,10229.921 13491.393,10110.096C13485.543,10076.971 13505.926,10031.45 13430.801,10052.35M13516.481,9216.934C13507.643,9264.017 13605.664,9281.467 13583.476,9211.379C13573.739,9180.546 13525.072,9171.084 13516.481,9216.934M15312.471,2402.854C15257.734,2585.546 15572.854,2714.138 15594.471,2462.958C15611.917,2259.071 15359.834,2245.058 15312.471,2402.854M13308.461,9897.434C13322.661,9889.984 13308.027,9860.038 13307.365,9858.042C13261.69,9710.75 13187.627,9961.634 13308.461,9897.434M13749.919,7343.054C13715.89,7507.445 14027.227,7649.233 14039.152,7379.354C14048.407,7168.087 13783.702,7179.787 13749.919,7343.054M12831.011,10861.194C12896.777,10889.407 12982.54,10799.182 12965.719,10719.632C12918.927,10500.257 12664.432,10789.873 12831.011,10861.194M13350.977,9074.974C13224.311,8908.724 12998.565,9015.203 12961.915,9151.815C12899.782,9383.828 13325.265,9549.282 13370.457,9224.557C13377.348,9175.757 13382.332,9116.174 13350.977,9074.974M14881.407,4111.894C14925.403,4118.057 14925.315,4081.528 14911.582,4055.819C14880.782,3997.848 14812.361,4102.153 14881.407,4111.894M15018.907,2978.874C14919.169,3063.945 15114.794,3226.199 15162.448,3192.52C15183.403,3177.779 15159.082,3159.066 15168.819,3129.22C15218.907,2974.549 15080.54,2926.424 15018.907,2978.874M13031.807,9734.584C12996.511,9734.53 12856.911,9966.267 12835.436,9779.009C12824.74,9684.93 12963.873,9621.492 12902.848,9473.192C12808.873,9245.171 12545.298,9379.93 12415.348,9402.5C12282.778,9425.588 12265.573,9376.892 12227.24,9462.5C12130.261,9679.513 12478.648,9596.596 12425.228,9797.15C12411.357,9849.288 12297.848,9896.7 12239.065,9936.092C12093.857,10033.505 11970.315,10109.48 11843.073,10206.65C11787.103,10249.463 11718.44,10342.775 11644.986,10341.98C11599.932,10341.546 11523.665,10288.559 11469.653,10275.313C11108.528,10186.459 10799.257,10705.555 11113.611,10884.496C11280.157,10979.2 11489.273,10869.634 11573.336,10790C11733.319,10638.521 11752.361,10299.721 11946.894,10251.405C11989.757,10240.85 12026.198,10288.938 12077.223,10252.221C12109.532,10228.784 12097.465,10145.259 12121.044,10108.855C12159.723,10049.184 12493.753,9857.03 12552.903,9849.288C12591.719,9844.2 12706.719,9844.338 12730.99,9864.53C12761.165,9889.584 12701.494,9947.742 12773.423,9981.942C12850.836,10018.767 12849.828,9935.955 12944.948,9890.763C12968.194,9879.738 13009.394,9893.471 13023.786,9888.871C13071.357,9873.663 13113.403,9827.48 13096.148,9780.38C13089.065,9760.9 13077.19,9734.667 13031.807,9734.584M13369.169,7435.504C13438.736,7562.884 13606.944,7491.896 13625.228,7409.359C13686.39,7133.354 13260.694,7236.929 13369.169,7435.504M11588.189,12961.794C11539.023,13100.111 11830.71,13165.057 11814.077,12991.723C11803.918,12885.961 11622.443,12865.665 11588.189,12961.794M12967.949,8918.654C12963.349,8964.642 13069.007,8958.425 13038.557,8901.117C13023.211,8872.229 12971.994,8878.217 12967.949,8918.654M12244.478,11413.034C12287.949,11403.484 12298.228,11359.472 12285.674,11321.089C12235.832,11169.093 12064.911,11452.284 12244.478,11413.034M12383.315,10489.368C12265.674,10595.534 12562.444,10690.551 12502.669,10525.826C12479.911,10463.189 12401.369,10473.084 12383.315,10489.368M13153.54,7500.218C13045.015,7524.697 13010.657,7716.276 13085.169,7766.447C13195.449,7840.772 13328.211,7724.835 13330.919,7645.755C13334.44,7548.03 13241.211,7480.46 13153.54,7500.218M12194.215,10509.908C12227.794,10572.667 12346.49,10523.675 12330.919,10447.283C12305.64,10323.308 12152.965,10432.683 12194.215,10509.908M12823.453,8665.578C12870.586,8671.049 12905.086,8625.058 12892.065,8569.087C12854.39,8407.487 12657.669,8646.587 12823.453,8665.578M13341.09,6630.638C13227.428,6631.971 13236.232,6886.608 13385.519,6826.938C13419.528,6813.396 13444.911,6768.867 13433.974,6711.225C13420.536,6640.583 13400.432,6629.925 13341.09,6630.638M12691.649,8925.638C12695.015,8948.45 12776.232,8971.867 12746.715,8916.329C12735.882,8895.95 12686.09,8887.963 12691.649,8925.638M13816.959,4817.878C13712.426,4817.653 13843.988,4977.116 13841.855,4864.599C13841.384,4842.028 13830.967,4817.845 13816.959,4817.878M12211.369,9300.958C12225.086,9382.867 12464.669,9338.163 12460.103,9298.717C12453.315,9239.9 12185.986,9150.088 12211.369,9300.958M13421.909,5127.878C13530.296,5202.703 13656.492,5111.682 13652.134,5015.449C13640.346,4756.453 13220.971,4989.041 13421.909,5127.878M12580.659,7964.738C12618.142,8035.259 12726.005,7992.913 12721.963,7929.634C12713.559,7794.93 12537.134,7882.913 12580.659,7964.738M10515.399,14592.118C10385.674,14588.939 10385.103,14874.652 10541.524,14848.089C10590.086,14839.827 10610.465,14777.81 10609.182,14712.185C10607.482,14624.806 10584.528,14593.731 10515.399,14592.118M13490.999,4731.158C13562.649,4754.146 13722.303,4641.975 13699.978,4560.187C13647.895,4369.091 13245.29,4652.616 13490.999,4731.158M12060.769,9281.078C11965.84,9359.428 12199.66,9410.744 12144.365,9306.649C12127.819,9275.574 12086.24,9260.036 12060.769,9281.078M12334.556,7915.678C12309.99,7917.24 12212.402,8102.794 12213.827,8139.894C12218.91,8268.436 12408.548,8282.969 12439.71,8169.686C12457.681,8104.357 12404.119,7910.919 12334.556,7915.678M12053.515,8834.999C11974.206,8948.994 12222.331,9055.432 12217.056,8898.107C12213.91,8804.828 12097.265,8772.099 12053.515,8834.999M12907.177,5231.579C12630.39,5459.029 13162.14,5798.82 13215.927,5417.362C13236.881,5268.404 13052.994,5111.841 12907.177,5231.579M12154.765,8461.199C12173.669,8530.574 12282.194,8481.632 12280.44,8434.411C12276.498,8329.494 12145.631,8427.553 12154.765,8461.199M11206.498,10965.169C11052.869,10897.027 10887.14,10977.235 10785.265,11019.094C10710.006,11050.031 10627.61,11072.164 10546.794,11115.844C10470.631,11157.131 10356.015,11249.489 10316.585,11228.398C10293.098,11215.673 10309.26,11148.677 10265.84,11095.306C10244.452,11069.177 10129.31,10967.964 10073.827,10997.427C10012.194,11030.256 10030.16,11229.631 10104.606,11281.052C10123.998,11294.352 10223.219,11304.094 10235.944,11321.194C10262.748,11357.164 10206.619,11472.685 10210.719,11574.56C10213.46,11643.535 10257.748,11668.26 10242.21,11727.789C10227.627,11783.381 10150.702,11823.156 10127.698,11888.589C10021.41,12192.581 10502.452,12411.019 10663.39,12143.694C10696.515,12088.71 10694.935,12008.277 10718.131,11964.698C10809.223,11793.223 11004.99,11794.698 11134.365,11713.398C11238.235,11648.206 11336.169,11530.306 11363.252,11391.66C11394.415,11232.339 11364.244,11035.01 11206.498,10965.169M12898.098,5816.379C12798.79,5869.121 13012.698,5978.704 12974.365,5865.804C12967.61,5845.754 12947.315,5790.162 12898.098,5816.379M9848.648,15406.549C9797.902,15572.365 10094.394,15590.907 10057.902,15405.299C10034.186,15284.761 9876.636,15314.832 9848.648,15406.549M8851.39,18796.289C8642.744,18761.235 8801.219,19081.06 8906.74,18956.843C8916.477,18945.402 8919.427,18923.406 8916.669,18881.635C8913.056,18824.239 8893.961,18803.423 8851.39,18796.289M12586.58,6151.989C12586.997,6273.831 12796.114,6302.751 12787.655,6135.131C12779.635,5977.181 12586.251,6041.468 12586.58,6151.989M12364.53,7219.849C12314.655,7271.641 12465.122,7313.741 12424.218,7238.099C12412.535,7216.433 12384.114,7199.574 12364.53,7219.849M12006.218,8520.219C12047.03,8526.157 12068.993,8487.998 12051.926,8455.932C12012.726,8382.232 11915.66,8507.248 12006.218,8520.219M11730.401,9336.765C11789.497,9335.861 11793.11,9295.565 11795.451,9252.232C11809.41,8992.04 11479.655,9340.948 11730.401,9336.765M11611.893,7759.955C11601.493,7818.03 11692.814,7901.363 11706.772,7919.609C11743.889,7967.892 11768.264,8032.646 11864.01,8045.963C11967.397,8060.459 12075.072,7951.555 12064.618,7859.313C12047.518,7707.559 11650.714,7545.475 11611.893,7759.955M12202.468,6896.188C12089.514,7006.225 12359.255,7083.725 12330.089,6948.255C12320.072,6901.642 12244.272,6855.321 12202.468,6896.188M11391.755,9376.868C11244.739,9310.914 11116.964,9847.372 11363.197,9812.022C11422.918,9803.36 11444.635,9772.91 11454.76,9683.289C11460.451,9632.789 11429.239,9393.639 11391.755,9376.868M12089.272,7266.228C12114.464,7271.312 12130.714,7250.133 12115.801,7222.183C12081.91,7158.416 12025.66,7253.553 12089.272,7266.228M12323.576,6371.799C12342.726,6367.041 12359.168,6339.437 12345.435,6300.203C12297.31,6161.503 12207.397,6400.358 12323.576,6371.799M11380.347,8133.099C11269.635,8151.066 11208.96,8490.562 11118.63,8562.316C11043.039,8622.179 10893.593,8555.808 10791.876,8605.979C10757.38,8623.079 10637.918,8701.154 10614.168,8760.495C10587.172,8827.87 10640.051,8935.024 10624.705,9024.87C10583.855,9263.774 10484.447,9180.441 10361.668,9244.679C10331.164,9260.649 10251.564,9336.674 10230.61,9374.454C10175.643,9473.516 10080.418,9726.204 10101.893,9752.804C10144.322,9805.129 10220.018,9762.124 10264.393,9776.379C10308.872,9790.583 10400.676,9837.579 10420.593,9863.324C10427.468,9872.212 10406.755,9977.091 10463.022,9980.704C10511.01,9983.774 10482.014,9902.145 10507.864,9876.866C10538.093,9847.179 10634.064,9884.279 10700.539,9844.416C10748.16,9815.912 10816.58,9699.591 10837.864,9651.412C10884.722,9545.162 10856.389,9582.508 10942.343,9565.841C11053.926,9544.312 10989.672,9364.141 10937.414,9368.495C10896.355,9371.916 10917.78,9547.541 10868.697,9465.058C10834.968,9408.22 10754.097,9277.645 10768.247,9238.412C10783.976,9195.079 10860.155,9202.579 10920.539,9167.474C10973.801,9136.674 11118.055,9018.654 11136.789,8972.558C11172.76,8883.949 11106.426,8789.433 11173.993,8722.77C11248.872,8648.829 11362.76,8720.912 11452.901,8664.558C11540.385,8609.645 11649.48,8393.533 11637.743,8316.224C11632.468,8282.02 11485.555,8116.137 11380.347,8133.099M10893.126,10281.899C10985.835,10359.92 11067.693,10264.783 11064.655,10190.72C11055.676,9978.983 10763.543,10172.804 10893.126,10281.899M11762.572,7310.039C11709.968,7331.847 11662.397,7306.952 11640.505,7324.868C11562.71,7388.827 11560.435,7545.039 11697.901,7564.347C11820.868,7581.722 11807.71,7440.477 11835.21,7371.431C11851.755,7329.902 11915.66,7336.306 11903.872,7274.918C11881.964,7159.989 11789.843,7298.685 11762.572,7310.039M12086.755,6377.697C12096.98,6372.314 12082.951,6351.847 12082.101,6350.264C12047.189,6284.414 12022.622,6411.897 12086.755,6377.697M12687.118,3858.787C12495.105,3841.879 12597.885,4195.02 12751.843,4074.412C12769.41,4060.645 12787.71,4019.395 12784.672,3966.983C12779.672,3880.366 12771.843,3866.304 12687.118,3858.787M12434.618,4343.025C12390.139,4275.454 12384.826,4185.804 12359.168,4163.266C12308.368,4118.995 12213.96,4089.916 12135.851,4082.07C12109.289,4079.275 11885.385,4099.516 11840.347,4109.154C11678.368,4143.891 11681.789,4265.575 11615.122,4418.858C11569.03,4524.812 11443.489,4611.062 11413.801,4735.925C11392.71,4824.22 11430.626,4977.641 11519.81,5029.395C11949.635,5279.362 11953.143,4536.55 12271.789,4619.62C12343.576,4638.387 12295.314,4685.037 12388.526,4707.575C12470.122,4727.241 12564.097,4662.904 12574.601,4568.579C12588.614,4443.754 12482.951,4416.341 12434.618,4343.025M8430.018,17740.625C8477.343,17780.154 8523.055,17729.983 8511.651,17687.116C8485.555,17589.862 8383.735,17701.858 8430.018,17740.625M11943.978,5563.725C11861.116,5466.833 11829.762,5372.091 11748.978,5347.525C11722.503,5339.437 11657.607,5357.354 11634.187,5338.587C11624.345,5330.65 11599.916,5129.958 11524.741,5226.745C11476.949,5288.358 11587.903,5341.729 11587.47,5363.395C11586.807,5395.791 11526.549,5432.629 11515.157,5471.816C11495.195,5540.337 11517.953,5617.458 11485.212,5697.716C11430.716,5831.275 11322.103,5935.529 11300.437,6045.912C11289.603,6101.362 11300.853,6266.416 11318.337,6286.379C11355.212,6328.812 11494.099,6357.837 11529.499,6364.07C11727.695,6398.379 11796.532,6278.15 11866.966,6114.662C11939.032,5947.162 12064.241,5910.67 12067.278,5758.15C12069.516,5646.625 12011.928,5643.445 11943.978,5563.725M9861.998,12159.895C9803.127,12199.429 9813.769,12279.741 9842.086,12310.47C9841.511,12309.808 10044.969,12376.579 10060.661,12364.27C10077.19,12351.112 10062.744,12316.37 10063.369,12312.812C10078.006,12228.891 9937.865,12108.958 9861.998,12159.895M10557.486,10440.365C10574.777,10431.198 10595.869,10394.182 10582.99,10356.786C10529.344,10199.74 10426.719,10509.253 10557.486,10440.365M11109.706,8207.045C11043.511,8248.191 11175.802,8317.408 11162.156,8249.179C11158.352,8230.412 11150.802,8181.47 11109.706,8207.045M9363.946,13874.545C9290.525,13936.783 9448.513,14003.695 9420.004,13904.754C9414.533,13885.708 9393.113,13849.787 9363.946,13874.545M9734.033,12407.925C9716.029,12481.625 9880.388,12471.071 9840.471,12401.362C9813.2,12353.812 9743.771,12367.875 9734.033,12407.925M10805.313,7878.885C10734.463,8064.856 11076.009,8192.773 11075.242,7935.377C11074.879,7788.452 10859.063,7738.035 10805.313,7878.885M10113.35,10526.485C10056.092,10655.389 10298.175,10700.285 10275.85,10550.044C10262.638,10460.823 10145.659,10453.827 10113.35,10526.485M11327.85,6511.235C11307.504,6604.935 11499.05,6644.415 11470.246,6515.506C11454.763,6446.756 11343.771,6438.494 11327.85,6511.235M9380.42,12325.945C9263.249,12373.078 9144.657,12373.841 9059.362,12436.653C8961.199,12509.07 8818.216,12743.357 8872.866,12875.841C8939.482,13036.778 9190.699,12995.907 9297.087,12940.128C9366.116,12904.016 9451.182,12818.632 9493.128,12725.978C9522.207,12661.724 9522.07,12563.511 9566.166,12487.157C9599.378,12429.624 9678.303,12429.903 9685.282,12353.878C9705.766,12129.032 9435.157,12303.982 9380.42,12325.945M11181.98,6518.865C11188.664,6423.12 11243.022,6343.64 11124.01,6409.628C10970.385,6494.87 10665.243,6550.757 10604.793,6655.724C10570.676,6715.061 10569.447,6857.615 10568.647,6944.89C10564.601,7367.978 11217.797,7409.124 11259.843,6947.32C11273.005,6802.632 11174.93,6619.557 11181.98,6518.865M9691.65,11820.535C9723.488,11816.16 9749.238,11776.106 9732.742,11728.693C9680.242,11577.064 9535.659,11841.731 9691.65,11820.535M12453.2,2403.415C12396.271,2461.715 12537.45,2486.665 12501.013,2417.998C12491.221,2399.753 12473.217,2382.982 12453.2,2403.415M11851.271,4073.295C11905.021,4077.395 11932.433,4032.999 11919.988,3976.699C11883.354,3811.058 11684.204,4060.329 11851.271,4073.295M10685.351,7502.725C10657.072,7511.996 10681.393,7539.513 10635.872,7579.042C10604.43,7606.371 10558.201,7602.03 10545.976,7616.909C10510.493,7660 10513.58,7707.896 10486.639,7768.384C10394.743,7973.938 10413.13,7745.155 10374.555,7708.038C10222.122,7561.125 10053.826,7834.771 10159.205,7942.48C10177.784,7961.492 10294.764,8033.142 10369.555,7980.642C10382.955,7971.18 10399.101,7885 10426.201,7880.571C10448.097,7876.909 10524.259,7950.938 10534.676,7952.846C10606.655,7965.434 10695.993,7892.255 10720.751,7813.871C10736.272,7764.584 10707.489,7715.796 10721.409,7683.575C10735.23,7651.542 10818.997,7641.667 10809.364,7566.875C10802.472,7513.992 10776.014,7473.313 10685.351,7502.725M9882.609,10299.255C9905.805,10342.972 9943.634,10296.88 9941.305,10277.972C9932.089,10204.414 9870.647,10276.793 9882.609,10299.255M11101.869,5371.585C10828.656,5314.047 10462.544,5513.806 10449.106,5798.668C10445.339,5878.301 10556.727,6009.814 10691.852,6029.585C10758.673,6039.272 10843.014,5987.156 10939.61,5987.814C11138.831,5989.014 11055.964,6009.481 11178.185,5890.976C11266.364,5805.21 11324.523,5799.326 11338.31,5665.856C11353.135,5522.26 11274.594,5407.939 11101.869,5371.585M8065.639,15174.755C8057.41,15348.905 8360.085,15356.455 8389.685,15182.447C8431.127,14938.418 8074.668,14982.655 8065.639,15174.755M11903.279,2835.755C12007.758,2955.113 12201.666,2824.159 12188.558,2714.122C12162.845,2498.776 11746.525,2656.709 11903.279,2835.755M9912.949,9303.175C9938.94,9375.483 10090.415,9324.408 10061.524,9244.2C10023.315,9138.054 9881.682,9216.787 9912.949,9303.175M11697.589,3295.135C11711.735,3321.698 11799.793,3318.139 11771.839,3265.639C11744.185,3213.468 11680.468,3262.931 11697.589,3295.135M10344.719,7463.885C10355.503,7535.168 10499.182,7460.898 10462.169,7421.456C10443.782,7401.889 10337.253,7414.752 10344.719,7463.885M9896.074,9102.185C9831.315,9136.577 9969.632,9203.002 9928.19,9125.135C9926.907,9122.706 9913.694,9092.86 9896.074,9102.185M8223.574,14230.765C8282.499,14287.399 8334.857,14226.39 8329.165,14184.724C8312.565,14066.27 8163.419,14172.849 8223.574,14230.765M10175.984,7033.725C10125.567,7164.679 10382.338,7293.637 10402.826,7103.046C10417.601,6965.216 10220.222,6918.791 10175.984,7033.725M10251.159,7513.687C10289.022,7519.433 10310.605,7474.712 10296.959,7449.246C10257.809,7376.275 10159.647,7499.662 10251.159,7513.687M9141.249,10503.407C9239.649,10545.924 9345.711,10474.411 9339.336,10368.128C9323.365,10102.174 8883.765,10391.878 9141.249,10503.407M9444.111,9982.432C9471.715,9974.603 9485.586,9928.457 9469.669,9898.857C9419.357,9804.691 9325.086,10016.22 9444.111,9982.432M9845.465,8029.272C9813.869,7996.059 9863.053,7937.518 9795.674,7935.801C9679.078,7932.847 9787.274,8083.855 9787.794,8089.984C9789.544,8113.264 9763.749,8138.839 9758.607,8185.505C9752.669,8238.334 9797.565,8254.968 9768.782,8280.001C9687.586,8350.659 9665.953,8198.176 9530.015,8206.98C9437.115,8213.055 9414.215,8348.576 9447.757,8390.659C9482.253,8434.184 9722.636,8483.697 9772.724,8437.901C9815.103,8399.272 9748.294,8363.926 9804.615,8290.939C9841.194,8243.559 9984.407,8280.714 9978.799,8148.384C9974.007,8034.305 9915.69,8103.143 9845.465,8029.272M9819.149,8713.247C9833.732,8704.03 9826.753,8665.593 9821.803,8661.789C9782.565,8631.614 9783.886,8735.401 9819.149,8713.247M9520.986,8791.755C9468.157,8757.293 9444.44,8659.218 9379.39,8657.03C9305.503,8654.568 9235.986,8784.864 9226.386,8858.455C9208.053,9000.434 9352.169,8990.972 9471.769,9037.83C9601.144,9088.439 9703.399,9145.314 9714.999,8968.543C9724.407,8823.768 9642.394,8870.764 9520.986,8791.755M10745.416,5171.215C10681.979,5248.523 10848.141,5304.494 10837.308,5212.361C10833.229,5177.756 10775.675,5134.286 10745.416,5171.215M10296.77,6809.445C10352.933,6823.366 10368.662,6786.403 10370.087,6740.553C10375.833,6547.691 10126.995,6767.778 10296.77,6809.445M10607.15,4854.705C10557.15,4841.114 10508.645,4802.83 10467.55,4798.976C10289.983,4782.397 10228.733,4969.168 10123.87,5111.634C10040.712,5224.809 9945.97,5234.793 9931.525,5313.993C9915.033,5403.697 10015.05,5412.205 10010.675,5481.822C9996.858,5706.426 9761.995,5503.247 9737.083,5437.293C9709.008,5362.797 9732.1,5254.305 9675.087,5170.401C9587.133,5040.834 9437.029,5031.093 9292.1,5014.08C9242.829,5008.23 9186.525,4980.818 9133.212,4978.576C9044.079,4974.689 8981.787,5008.751 8920.258,4991.739C8849.929,4972.364 8820.85,4894.53 8740.17,4897.622C8685.137,4899.618 8552.95,5052.759 8535.9,5096.13C8517.275,5143.559 8538.662,5217.918 8520.608,5274.272C8499.079,5341.164 8441.716,5380.176 8433.645,5430.505C8417.066,5534.272 8499.27,5645.643 8590.12,5687.189C8725.483,5749.184 8925.379,5716.076 9077.725,5758.022C9241.837,5803.072 9441.212,5911.739 9448.054,6040.884C9453.662,6144.464 9408.279,6167.414 9449.391,6250.243C9505.833,6363.855 9438.591,6370.364 9355.208,6430.226C9313.816,6460.018 9250.345,6482.118 9227.812,6548.022C9201.787,6624.097 9251.387,6729.48 9253.958,6803.976C9254.808,6828.159 9233.8,6902.918 9245.016,6918.734C9264.687,6946.772 9449.045,6989.618 9483.783,6991.772C9567.845,6997.03 9758.037,6900.73 9788.316,6849.984C9832.879,6774.759 9791.595,6581.755 9851.979,6556.009C9866.233,6550.051 9966.683,6612.118 10003.558,6615.401C10257.379,6638.384 10390.087,6181.859 10074.254,6127.884C9956.179,6107.693 9859.879,6272.189 9791.629,6198.214C9709.583,6109.168 9915.504,5989.48 9966.545,5925.28C10016.995,5861.755 10020.9,5802.934 10073.645,5788.247C10133.8,5771.564 10184.391,5814.618 10251.77,5803.543C10433.245,5773.889 10401.266,5582.364 10291.595,5502.397C10108.904,5369.305 10281.612,5445.139 10380.537,5425.139C10432.533,5414.722 10550.225,5361.076 10606.091,5285.193C10625.4,5259.064 10629.15,5198.055 10661.787,5145.593C10720.987,5050.468 10796.82,5041.355 10795.537,4964.618C10793.35,4840.259 10725.312,4887.014 10607.15,4854.705M9784.65,6391.875C9810.554,6489.758 9635.554,6408.75 9634.079,6371.979C9630.745,6285.488 9772.829,6347.029 9784.65,6391.875M9519.65,8582.485C9520.608,8646.356 9668.47,8713.16 9665.57,8574.844C9663.054,8451.34 9518.191,8479.048 9519.65,8582.485M9945.833,7146.045C9943.487,7082.47 10001.65,7012.92 9945.45,6976.27C9857.916,6919.395 9767.066,7091.116 9766.683,7091.303C9749.112,7101.341 9705.97,7085.557 9644.616,7106.286C9597.066,7122.191 9560.57,7161.966 9519.945,7172.607C9395.17,7204.882 9270.779,7171.616 9247.587,7337.399C9224.495,7501.757 9410.85,7494.099 9549.079,7546.928C9604.425,7568.178 9637.066,7608.041 9685.016,7614.657C9802.187,7630.853 9967.637,7524.361 9981.891,7326.845C9986.404,7263.891 9948.733,7226.199 9945.833,7146.045M9187.62,9198.995C9042.516,9084.866 8824.32,9148.303 8780.275,9335.611C8716.7,9605.974 9264.166,9838.041 9284.408,9437.432C9288.733,9351.724 9228.437,9231.166 9187.62,9198.995M10743.7,3682.325C10503.321,3835.988 10987.884,4090.154 10971.446,3791.146C10966.6,3702.483 10831.617,3626.113 10743.7,3682.325M10036.009,6808.225C10061.2,6813.209 10077.4,6792.063 10062.571,6763.988C10028.65,6700.275 9972.434,6795.342 10036.009,6808.225M9304.275,7707.113C9207.763,7666.838 9243.163,7608.296 9158.98,7584.442C9092.921,7565.725 9017.417,7589.613 8986.53,7636.142C8875.784,7802.825 9010.438,7834.421 9080.663,7926.125C9122,7980.046 9127.763,8080.413 9156.271,8105.829C9268.596,8205.742 9441.08,8170.534 9487.592,8089.579C9506.792,8056.263 9468.717,8041.817 9500.28,7963C9532.921,7881.175 9613.892,7871.142 9594.446,7782.775C9558.475,7619.213 9427.384,7758.729 9304.275,7707.113M9184.396,8440.759C9082.571,8516.125 9338.492,8716.784 9325.038,8536.038C9323.146,8510.463 9248.546,8393.296 9184.396,8440.759M7113.476,14531.179C6956.914,14559.358 7186.897,14751.946 7182.468,14604.408C7181.343,14565.104 7179.101,14519.304 7113.476,14531.179M8927.386,8427.469C8922.973,8425.298 8768.965,8415.456 8730.057,8432.415C8703.582,8443.873 8613.407,8568.648 8600.007,8601.477C8576.098,8660.211 8542.836,8849.081 8538.894,8843.998C8583.269,8903.248 8639.919,8813.023 8704.157,8816.115C8776.29,8819.673 8831.552,8872.452 8859.24,8863.527C8931.465,8840.436 8985.265,8637.452 8986.394,8576.011C8987.436,8517.381 8967.627,8447.102 8927.386,8427.469M8464.448,9813.459C8467.49,9854.139 8581.136,9881.447 8559.052,9803.097C8545.736,9756.343 8461.115,9768.705 8464.448,9813.459M8974.19,7932.559C8927.244,7912.505 8683.911,7976.464 8687.957,8014.901C8692.09,8054.243 8804.798,8011.205 8806.361,8011.814C8825.648,8020.564 8841.152,8111.83 8900.248,8131.934C8981.602,8159.676 9029.015,8105.093 9032.244,8041.743C9035.111,7985.439 9023.565,7953.843 8974.19,7932.559M5877.28,17678.099C5765.092,17731.641 5978.996,17932.978 5961.792,17743.099C5956.48,17684.366 5917.905,17658.757 5877.28,17678.099M8989.59,7284.599C9050.302,7361.77 9156.552,7326.266 9153.79,7217.274C9148.615,7016.37 8899.448,7170.087 8989.59,7284.599M6610.96,15278.219C6615.889,15318.357 6701.672,15330.615 6693.493,15264.382C6683.043,15178.757 6605.489,15234.732 6610.96,15278.219M6328.668,15518.307C6281.343,15697.248 6603.597,15658.915 6557.176,15496.777C6526.322,15389.348 6351.897,15430.461 6328.668,15518.307M7597.518,11624.177C7478.818,11530.29 7265.435,11573.048 7199.202,11646.002C7072.327,11785.636 7141.564,12039.369 7367.968,12076.156C7505.139,12098.536 7626.839,11979.736 7646.597,11848.086C7661.668,11747.302 7653.681,11668.569 7597.518,11624.177M8011.477,10014.317C8010.764,10059.159 8140.468,10119.504 8146.318,10042.525C8152.693,9960.479 8012.085,9959.663 8011.477,10014.317M6981.147,12401.867C6776.822,12474.609 6760.297,12810.879 6981.093,12871.692C7135.243,12914.175 7290.902,12806.938 7294.568,12615.113C7297.552,12460.546 7127.068,12349.888 6981.147,12401.867M8786.627,7222.487C8744.718,7208.424 8666.698,7250.524 8644.318,7218.166C8613.435,7173.687 8715.985,7021.166 8725.623,6994.937C8810.256,6765.108 8778.035,6722.766 8758.798,6587.399C8748.002,6511.516 8752.652,6411.916 8729.043,6343.27C8705.952,6276.445 8655.256,6224.433 8641.473,6159.899C8627.273,6093.287 8654.252,5964.987 8596.089,5924.083C8543.348,5886.774 8310.76,5866.774 8247.235,5869.537C8170.502,5872.958 8006.385,5969.641 7898.627,5984.899C7852.289,5991.462 7777.602,5981.237 7752.652,5992.591C7701.248,6015.733 7643.693,6115.091 7572.185,6198.424C7472.114,6315.229 7303.018,6442.229 7274.598,6616.708C7266.56,6665.979 7296.889,6664.17 7277.585,6735.074C7230.223,6909.499 7087.481,6867.312 7070.623,6985.091C7048.468,7139.708 7209.318,7025.108 7285.535,7050.854C7384.493,7084.258 7451.543,7252.904 7441.993,7307.541C7434.527,7350.629 7336.802,7391.687 7370.727,7455.404C7408.123,7525.874 7495.398,7448.841 7548.764,7470.749C7587.252,7486.583 7773.693,7713.183 7768.66,7733.808C7751.56,7802.833 7690.881,7740.316 7659.564,7791.812C7634.285,7833.249 7683.902,7897.399 7670.777,7925.804C7643.748,7984.312 7479.252,8032.52 7444.231,8026.204C7399.423,8018.374 7360.414,7959.779 7311.889,7946.67C7198.523,7915.733 7154.856,7984.12 7068.764,8015.908C6996.768,8042.558 6969.214,8015.283 6935.76,8066.604C6886.785,8141.812 7005.327,8164.866 7034.268,8214.187C7058.731,8256.099 7090.293,8391.083 7080.639,8489.537C7073.556,8561.654 7023.381,8664.241 7027.843,8747.487C7031.418,8813.408 7086.768,8909.241 7044.718,8948.583C7021.523,8970.249 6849.806,8936.933 6827.148,8934.187C6736.714,8923.687 6634.614,8903.062 6589.335,8900.733C6447.877,8893.233 6193.139,9194.466 6130.273,9334.691C6110.085,9379.97 6114.318,9429.154 6090.135,9466.116C6003.66,9598.441 5744.214,9526.708 5650.952,9749.554C5604.231,9861.204 5608.66,10025.854 5687.393,10100.162C5887.86,10289.379 6157.131,10055.212 6298.677,10065.091C6443.606,10075.316 6552.41,10150.524 6644.877,10170.958C6790.743,10203.32 6933.868,10187.729 7050.568,10125.299C7198.485,10046.133 7422.652,9799.066 7406.506,9515.958C7405.085,9490.404 7378.606,9455.091 7368.731,9426.204C7356.61,9390.854 7361.402,9352.416 7350.152,9316.062C7336.939,9273.249 7262.427,9187.679 7278.156,9124.379C7287.235,9087.991 7593.989,8744.224 7768.764,8843.562C7846.818,8887.854 7800.585,9010.82 7860.985,9054.537C7977.914,9139.17 8118.468,9028.545 8114.06,8909.954C8111.627,8844.899 7995.743,8847.47 8031.143,8753.962C8073.764,8641.395 8175.448,8760.508 8244.06,8740.749C8262.877,8735.387 8339.127,8641.637 8351.248,8603.72C8365.085,8560.195 8379.198,8362.191 8340.656,8339.483C8262.114,8293.145 8263.21,8417.366 8172.827,8418.791C8117.148,8419.537 8014.077,8371.933 8016.648,8331.829C8017.739,8314.345 8093.106,8311.966 8087.306,8314.154C8156.298,8287.158 8196.023,8135.162 8078.693,8128.791C8032.843,8126.374 8014.127,8235.145 7970.518,8226.308C7894.718,8211.099 7946.939,7974.224 7958.018,7883.041C7967.273,7806.254 7936.731,7763.929 7957.689,7713.183C7980.206,7658.633 8053.381,7628.458 8131.873,7570.629C8198.21,7521.791 8256.698,7440.058 8297.706,7412.504C8333.381,7388.408 8543.348,7301.412 8572.01,7326.637C8581.939,7335.437 8564.214,7499.17 8562.027,7401.862C8566.731,7610.733 8921.768,7594.537 8892.41,7346.166C8883.227,7268.999 8825.606,7235.699 8786.627,7222.487M8923.956,7029.433C8969.148,7038.737 8997.514,6993.024 8985.343,6956.879C8946.002,6840.941 8797.981,7003.874 8923.956,7029.433M7534.786,9907.813C7488.986,9942.988 7357.04,10154.951 7356.311,10192.676C7354.89,10266.371 7498.257,10397.988 7657.753,10402.363C7775.411,10405.538 7905.411,10293.405 7919.853,10143.021C7938.865,9944.271 7682.615,9794.167 7534.786,9907.813M8210.22,8808.733C8219.957,8844.1 8320.686,8866.808 8304.732,8798.475C8288.29,8728.004 8199.77,8770.92 8210.22,8808.733M7980.29,9561.008C8025.428,9580.295 8092.945,9550.07 8084.786,9475.433C8066.815,9312.362 7841.749,9501.512 7980.29,9561.008M8040.357,9278.958C8096.936,9268.733 8084.82,9236.37 8077.84,9199.133C8041.157,9003.179 7834.995,9316.2 8040.357,9278.958M6083.237,15338.838C6078.671,15376.667 6154.937,15390.105 6146.571,15345.105C6136.225,15289.621 6086.933,15307.763 6083.237,15338.838M7758.387,9218.918C7724.899,9183.381 7765.178,9139.335 7696.757,9121.747C7648.249,9109.302 7578.632,9145.689 7583.962,9191.697C7588.907,9235.031 7655.853,9202.722 7696.095,9252.181C7734.587,9299.406 7684.257,9375.76 7751.495,9412.635C7850.766,9467.235 7884.116,9348.589 7875.141,9306.868C7863.162,9250.602 7817.312,9281.347 7758.387,9218.918M9411.307,3940.708C9462.436,3941.091 9480.078,3903.037 9464.349,3852.566C9425.336,3727.133 9278.516,3939.995 9411.307,3940.708M8045.957,7766.228C8060.595,7793.744 8154.949,7783.519 8132.103,7740.482C8104.587,7688.536 8031.078,7738.382 8045.957,7766.228M7418.457,9519.678C7433.666,9568.203 7564.482,9569.195 7535.82,9477.215C7509.17,9391.399 7402.782,9469.749 7418.457,9519.678M6847.087,10833.348C6667.103,10903.764 6947.97,11167.91 6948.199,10929.473C6948.303,10869.423 6918.978,10805.168 6847.087,10833.348M8704.137,4246.728C8501.199,4158.619 8507.032,4558.653 8713.737,4471.607C8728.095,4465.632 8755.316,4416.865 8758.545,4367.786C8764.916,4271.19 8721.949,4254.557 8704.137,4246.728M6527.937,11493.018C6560.803,11513.747 6619.257,11485.327 6601.199,11424.077C6574.637,11333.472 6466.824,11454.202 6527.937,11493.018M5904.62,12464.285C5756.949,12573.435 5806.028,12828.539 5981.495,12853.402C6094.866,12869.322 6202.866,12784.789 6208.666,12622.618C6213.616,12484.114 6019.741,12379.097 5904.62,12464.285M6180.157,10538.105C6036.807,10821.055 6527.366,10956.388 6557.574,10627.342C6578.962,10394.946 6258.841,10382.638 6180.157,10538.105M7836.657,5247.985C7963.757,5395.518 8165.078,5283.106 8177.957,5156.526C8208.599,4855.797 7648.391,5029.372 7836.657,5247.985M8434.92,3590.175C8472.924,3593.125 8506.866,3555.971 8484.328,3513.871C8436.432,3423.679 8317.749,3580.867 8434.92,3590.175M7551.082,5669.845C7564.432,5726.095 7645.353,5690.366 7645.599,5659.478C7645.978,5568.908 7539.87,5622.708 7551.082,5669.845M6646.203,8330.605C6567.178,8441.559 6830.041,8494.859 6781.136,8358.78C6764.503,8312.55 6676.745,8287.655 6646.203,8330.605M7280.391,5743.715C7186.016,5764.823 7334.278,5872.482 7308.895,5778.507C7306.707,5770.382 7301.482,5739.061 7280.391,5743.715M6143.061,8268.175C6135.353,8415.709 6414.886,8449.338 6399.12,8241.992C6385.474,8062.513 6149.416,8145.396 6143.061,8268.175M7190.061,4501.995C6955.428,4667.778 7435.532,4928.87 7446.365,4645.591C7451.92,4502.57 7260.62,4452.066 7190.061,4501.995M6959.665,5554.325C6885.307,5537.221 6806.99,5633.159 6748.745,5646.409C6575.115,5686.425 6381.92,5662.242 6375.603,5884.896C6373.745,5950.85 6454.386,6071.963 6558.64,6097.484C6629.057,6114.671 6905.061,5982.396 6945.686,5941.667C6961.332,5926.042 6953.482,5879.567 6974.907,5846.163C7009.836,5791.754 7033.065,5803.784 7043.57,5749.671C7055.307,5689.704 7045.757,5574.046 6959.665,5554.325M4748.285,11549.405C4645.231,11817.546 5103.515,11896.317 5097.14,11603.921C5093.444,11434.805 4818.756,11365.759 4748.285,11549.405M4692.073,11989.163C4738.41,12026.038 4785.023,11979.58 4773.652,11935.813C4751.24,11848.955 4647.123,11953.484 4692.073,11989.163M6171.703,7363.123C6187.382,7354.773 6177.503,7315.048 6174.412,7311.665C6133.928,7267.861 6117.92,7391.682 6171.703,7363.123M5569.345,8223.294C5629.845,8318.002 5822.745,8291.352 5844.603,8176.977C5899.203,7891.127 5437.262,8016.857 5569.345,8223.294M5881.095,7587.586C5837.903,7528.436 5635.732,7443.382 5547.866,7524.736C5464.153,7602.377 5480.678,7893.836 5542.12,7927.844C5577.241,7947.186 5824.17,7879.527 5852.262,7852.877C5883.232,7823.452 5897.07,7757.982 5900.732,7737.115C5913.928,7661.627 5903.907,7618.711 5881.095,7587.586M5866.599,7165.361C5878.303,7280.936 6059.516,7268.661 6059.378,7132.827C6059.099,6963.19 5856.012,7059.648 5866.599,7165.361M3959.189,13318.781C3941.097,13416.194 4124.743,13462.323 4133.668,13345.969C4144.743,13202.411 3974.205,13238.573 3959.189,13318.781M7053.309,3454.901C7057.63,3497.364 7179.888,3517.764 7151.434,3432.747C7126.622,3358.581 7048.413,3407.956 7053.309,3454.901M2854.849,17315.401C2885.928,17308.18 2876.361,17280.68 2869.432,17267.555C2837.266,17207.118 2788.949,17330.889 2854.849,17315.401M4374.099,11748.361C4436.966,11808.136 4495.262,11726.695 4486.807,11678.328C4464.428,11549.403 4317.278,11694.282 4374.099,11748.361M6494.289,4471.981C6503.647,4529.327 6634.08,4531.844 6619.914,4445.177C6602.864,4340.731 6484.585,4413.631 6494.289,4471.981M6984.305,2911.621C6949.864,2969.588 7089.08,3015.717 7067.989,2937.175C7058.718,2903.113 7004.168,2878.163 6984.305,2911.621M6074.097,6145.231C6117.589,6133.931 6090.972,6125.477 6088.647,6097.385C6076.093,5943.148 5944.48,6178.581 6074.097,6145.231M4971.177,8941.291C4978.869,8996.066 5134.582,8985.999 5104.165,8890.545C5080.173,8815.128 4963.002,8882.561 4971.177,8941.291M6162.237,4618.501C6044.216,4783.238 6386.612,4884.593 6365.191,4680.651C6356.008,4593.359 6213.366,4547.18 6162.237,4618.501M3600.347,13339.581C3620.835,13374.598 3760.905,13378.402 3725.089,13273.244C3683.976,13152.465 3567.326,13282.931 3600.347,13339.581M3997.014,11358.941C3899.41,11341.353 3863.839,11474.791 3818.264,11473.924C3779.864,11473.266 3772.639,11390.782 3720.764,11365.832C3481.893,11250.745 3434.151,11631.353 3613.889,11672.586C3716.285,11696.007 3763.055,11534.374 3823.822,11540.974C3842.693,11543.02 3868.768,11643.124 3929.635,11664.653C4047.051,11706.32 4142.364,11609.011 4134.947,11505.574C4130.922,11449.028 4076.651,11373.107 3997.014,11358.941M4701.964,8284.441C4645.035,8415.203 4931.843,8482.966 4880.089,8299.753C4857.655,8220.637 4734.36,8210.032 4701.964,8284.441M2962.174,13718.821C3046.949,13788.004 3135.941,13709.358 3130.003,13639.704C3112.328,13430.867 2847.712,13625.4 2962.174,13718.821M2872.937,14096.321C2952.816,14118.854 3029.499,14048.804 3027.849,13973.925C3021.807,13705.85 2597.312,14018.262 2872.937,14096.321M4943.717,6426.281C4831.059,6630.414 5201.909,6779.219 5214.688,6522.169C5221.634,6382.514 5011.284,6303.835 4943.717,6426.281M3821.437,10182.481C3887.008,10192.498 3912.616,10130.969 3913.954,10093.244C3922.737,9842.635 3591.037,10147.169 3821.437,10182.481M3892.895,9094.561C3862.633,9257.111 4190.724,9421.941 4197.72,9122.549C4203.033,8894.753 3918.224,8958.799 3892.895,9094.561M3455.187,8177.549C3438.937,8260.757 3508.641,8448.399 3593.504,8493.953C3791.399,8600.203 4023.762,8463.778 4033.691,8249.961C4047.183,7959.507 3519.249,7851.695 3455.187,8177.549M4374.37,5769.089C4420.604,5783.589 4467.462,5734.543 4454.908,5676.193C4421.749,5521.155 4238.433,5726.797 4374.37,5769.089M4973.883,2740.829C5028.762,2740.987 5035.741,2705.621 5023.208,2664.529C4988.087,2548.346 4840.412,2740.5 4973.883,2740.829M313.383,16916.929C378.612,17038.317 580.833,16949.237 583.974,16843.125C591.579,16589.446 220.537,16744.342 313.383,16916.929M866.129,13443.599C700.241,13531.74 1032.429,13736.236 998.454,13523.232C991.945,13482.607 939.341,13404.624 866.129,13443.599M1087.362,11396.199C995.745,11472.745 1213.124,11519.966 1158.958,11418.141C1143.383,11388.82 1115.433,11372.811 1087.362,11396.199M545.92,12014.078C515.362,12172.828 930.695,12313.332 922.429,12063.924C917.012,11900.766 580.883,11833.057 545.92,12014.078M40.504,12172.828C92.291,12192.466 133.299,12141.891 117.429,12091.911C83.783,11986.007 -72.692,12129.982 40.504,12172.828M1798.194,4929.288C1748.348,5019.343 1951.528,5099.83 1941.403,4973.109C1935.832,4903.247 1833.678,4864.913 1798.194,4929.288" style="fill:rgb(1,165,189);fill-rule:nonzero;"/>
</svg>
