<?xml version="1.0" encoding="UTF-8" standalone="no"?>
<!DOCTYPE svg PUBLIC "-//W3C//DTD SVG 1.1//EN" "http://www.w3.org/Graphics/SVG/1.1/DTD/svg11.dtd">
<svg width="100%" height="100%" viewBox="0 0 4167 4167" version="1.1" xmlns="http://www.w3.org/2000/svg" xmlns:xlink="http://www.w3.org/1999/xlink" xml:space="preserve" xmlns:serif="http://www.serif.com/" style="fill-rule:evenodd;clip-rule:evenodd;stroke-linejoin:round;stroke-miterlimit:2;">
    <path d="M3234.02,396.414C3220.034,399.46 3216.175,406.258 3217.414,415.747C3222.123,460.82 3292.265,383.88 3234.02,396.414M2254.795,231.912C2246.226,231.204 2238.472,242.463 2230.859,242.109C2225.336,241.861 2220.768,229.398 2209.827,228.3C2165.037,223.662 2187.839,300.956 2206.251,298.336C2215.917,296.955 2213.014,271.143 2230.045,269.125C2243.323,267.567 2260.743,297.274 2274.694,275.428C2289.636,252.023 2266.55,232.833 2254.795,231.912M2115.219,451.048C2112.599,447.826 2104.172,451.756 2103.605,452.146C2084.662,463.795 2127.966,467.088 2115.219,451.048M2355.883,414.295C2370.966,415.605 2375.392,381.685 2356.732,387.244C2344.836,390.82 2340.799,412.985 2355.883,414.295M2252.706,378.109C2284.395,402.788 2293.778,333.212 2259.61,346.561C2251.183,349.889 2241.375,369.328 2252.706,378.109M2001.384,299.434C1960.17,311.508 2018.132,385.969 2035.553,342.206C2042.882,324.006 2012.609,296.212 2001.384,299.434M2199.311,329.955C2189.079,328.503 2184.37,317.208 2175.27,318.412C2161.284,320.253 2159.761,333.035 2153.282,334.31C2139.579,336.966 2138.482,321.847 2125.877,325.033C2118.831,326.945 2107.89,342.702 2116.6,353.572C2134.197,375.807 2150.237,342.56 2160.186,346.136C2189.787,356.758 2143.297,364.831 2146.909,382.252C2149.529,394.892 2179.129,399.955 2184.511,398.397C2211.775,390.926 2180.51,346.313 2202.781,346.703C2199.736,346.667 2204.587,364.442 2203.489,363.132C2223.53,388.802 2229.62,331.938 2222.716,325.033C2208.447,311.224 2215.634,332.256 2199.311,329.955M3386.981,1242.721C3385.21,1243.464 3378.837,1245.518 3380.501,1249.908C3386.308,1266.408 3405.676,1236.241 3386.981,1242.721M1348.301,3401.291C1348.018,3391.731 1339.874,3392.935 1334.74,3396.653C1323.127,3405.115 1349.009,3416.339 1348.301,3401.291M1679.289,3436.84C1719.122,3457.731 1717.458,3381.038 1681.767,3396.441C1669.056,3401.999 1664.914,3429.299 1679.289,3436.84M1461.18,3300.451C1419.824,3302.717 1388.559,3364.822 1416.496,3402.708C1423.258,3411.878 1449.283,3427.103 1461.428,3427.988C1515.813,3432.06 1551.893,3295.459 1461.18,3300.451M370.31,2062.111C407.948,2087.852 440.31,2007.655 387.731,2015.657C373.638,2017.923 350.411,2048.479 370.31,2062.111M2225.48,485.991C2224.206,485.743 2223.108,485.46 2221.869,485.177C2198.075,479.759 2174.423,475.05 2150.629,470.837C2161.712,468.96 2173.75,462.056 2176.229,462.304C2180.796,462.905 2188.267,475.581 2193.933,478.378C2197.402,480.078 2206.254,476.183 2210.928,478.095C2217.443,480.503 2221.727,483.265 2225.48,485.991M3271.38,1189.57C3265.715,1183.268 3259.483,1177.142 3253.251,1171.512C3256.438,1162.873 3258.633,1155.969 3258.633,1154.942C3258.633,1140.566 3236.22,1127.678 3239.017,1115.073C3243.691,1113.763 3245.922,1111.037 3246.347,1107.567C3259.872,1100.875 3288.375,1099.423 3295.705,1102.999C3299.599,1104.876 3302.751,1113.444 3308.31,1120.845C3299.174,1127.714 3293.509,1135.609 3297.935,1143.399C3302.22,1151.684 3307.885,1133.981 3325.73,1147.258C3330.156,1150.658 3340.247,1177.78 3320.879,1184.613C3323.499,1183.622 3303.884,1171.902 3308.026,1174.628C3291.845,1163.475 3272.477,1176.399 3271.38,1189.57M3482.301,1806.118C3484.072,1782.962 3541.502,1782.077 3538.988,1811.889C3538.174,1820.352 3537.749,1825.557 3519.231,1828.141C3505.104,1830.089 3480.92,1822.441 3482.301,1806.118M3426.818,1864.93C3418.108,1865.319 3410.495,1863.903 3403.874,1862.876C3403.591,1852.82 3403.024,1842.836 3402.493,1832.78C3404.83,1827.221 3407.202,1821.733 3409.256,1816.492C3420.197,1791.035 3432.235,1788.273 3448.806,1770.852C3477.309,1798.151 3473.024,1862.841 3426.818,1864.93M3405.113,1971.258C3404.488,1971.01 3403.833,1970.844 3403.166,1970.762C3403.591,1961.769 3403.874,1952.74 3404.016,1943.711C3404.83,1951.89 3405.113,1961.202 3405.113,1971.258M3399.731,2022.74C3400.829,2010.914 3401.643,1999.053 3402.351,1987.227C3402.493,1987.262 3402.918,1987.404 3403.166,1987.474C3403.874,1987.581 3404.299,1987.545 3405.113,1987.581C3404.972,2002.983 3404.83,2018.881 3405.821,2033.256C3404.016,2030.459 3401.395,2026.706 3399.731,2022.74M574.191,909.78C567.676,911.976 564.241,915.375 562.577,919.411C559.532,921.075 556.629,923.164 554.256,926.068C544.024,938.46 553.3,958.147 538.075,956.695C524.55,955.385 530.498,889.421 550.538,883.933C554.54,882.8 576.527,889.917 574.191,909.78M1050.667,665.647C1053.854,696.522 993.945,684.165 1009.736,653.467C1013.312,646.35 1049.145,651.838 1050.667,665.647M1728.93,166.226C1693.523,177.451 1767.524,218.134 1775.668,199.934C1783.847,182.089 1764.337,192.711 1749.395,182.691C1739.446,175.857 1748.864,159.959 1728.93,166.226M1659.779,172.848C1640.837,181.77 1661.302,204.75 1673.34,199.155C1684.246,194.127 1678.722,164.031 1659.779,172.848M1632.41,206.98C1622.991,207.122 1612.9,206.343 1606.81,208.786C1597.533,212.398 1562.693,250 1567.933,265.756C1570.305,272.944 1609.43,291.745 1618.14,294.507C1631.277,298.65 1689.947,311.361 1696.426,305.483C1703.083,299.358 1689.663,255.417 1682.334,238.387C1672.243,214.451 1659.921,206.591 1632.41,206.98M1457.993,193.384C1420.497,199.828 1433.491,257.861 1466.42,259.666C1501.155,261.543 1509.298,184.461 1457.993,193.384M1631.135,326.161C1639.031,320.355 1621.469,302.014 1616.087,310.476C1613.042,315.327 1622.708,332.251 1631.135,326.161M1756.052,349.105C1743.305,338.023 1743.872,304.032 1720.361,316.991C1678.581,340.183 1771.383,388.797 1776.659,387.274C1779.846,386.283 1794.894,366.844 1780.802,355.302C1775.278,350.734 1759.38,351.902 1756.052,349.105M1299.191,233.465C1271.113,245.999 1297.138,299.11 1322.985,291.037C1346.354,283.708 1331.164,219.302 1299.191,233.465M1487.31,381.963C1492.834,377.891 1481.504,363.445 1477.078,372.403C1475.272,376.156 1478.317,388.372 1487.31,381.963M1390.223,319.505C1359.384,336.429 1399.217,390.072 1418.833,361.533C1431.438,343.192 1400.739,313.769 1390.223,319.505M1402.12,402.57C1393.127,394.533 1384.806,396.657 1374.432,395.949C1342.778,393.896 1328.119,402.96 1323.41,415.99C1321.462,421.69 1327.694,455.504 1336.688,466.622C1349.399,482.378 1390.365,491.726 1399.606,486.344C1419.116,474.801 1412.636,412.095 1402.12,402.57M892.007,648.439C854.971,657.822 900.186,690.963 911.516,672.905C919.554,659.911 909.994,643.836 892.007,648.439M457.453,752.997C440.032,764.787 470.164,780.402 477.635,772.117C486.487,762.309 471.297,743.508 457.453,752.997M241.822,2497.197C238.777,2491.143 232.545,2492.063 225.11,2494.861C197.138,2505.554 254.816,2521.558 241.822,2497.197M487.053,2642.792C472.819,2653.202 503.659,2658.478 498.383,2644.386C496.471,2639.181 489.142,2641.447 487.053,2642.792M432.703,2689.459C427.994,2689.955 417.761,2696.682 425.232,2701.993C438.368,2710.987 445.981,2688.114 432.703,2689.459M599.224,2742.677C591.611,2744.907 582.476,2744.376 588.283,2760.168C600.604,2793.911 632.967,2732.656 599.224,2742.677M482.627,2720.866C447.078,2725.575 448.742,2783.112 489.142,2778.792C520.124,2775.428 529.79,2714.705 482.627,2720.866M557.443,2951.155C530.887,2964.716 584.848,2975.869 574.191,2953.527C571.004,2946.906 563.533,2948.039 557.443,2951.155M1272.636,3523.585C1250.258,3533.853 1276.389,3563.879 1288.958,3550.282C1299.333,3539.235 1277.062,3521.638 1272.636,3523.585M1288.958,3572.023C1265.873,3576.696 1254.543,3620.212 1281.629,3628.002C1322.843,3639.757 1337.927,3562.144 1288.958,3572.023M1530.861,3980.411C1518.008,3984.412 1517.053,4007.356 1529.764,4010.082C1549.946,4014.437 1550.937,3974.144 1530.861,3980.411M2883.561,3641.102C2885.615,3627.789 2873.86,3624.956 2865.574,3627.754C2835.974,3637.561 2878.994,3671.482 2883.561,3641.102M2608.729,3548.264C2620.91,3548.158 2609.544,3537.5 2627.814,3531.977C2645.659,3526.63 2653.52,3537.713 2661.982,3531.339C2682.164,3516.15 2650.085,3493.666 2635.568,3495.082C2626.716,3495.897 2625.477,3505.138 2616.732,3508.679C2606.251,3512.892 2590.743,3502.801 2584.228,3517.708C2577.323,3533.641 2592.407,3548.406 2608.729,3548.264M2553.529,3469.979C2529.594,3478.937 2551.617,3521.248 2567.799,3512.751C2581.607,3505.315 2575.128,3461.906 2553.529,3469.979M2732.938,3489.736C2744.694,3481.274 2733.611,3445.264 2711.623,3456.913C2690.591,3468.137 2720.333,3498.729 2732.938,3489.736M3219.364,3416.372C3239.971,3423.772 3236.36,3391.445 3226.41,3389.108C3214.514,3386.417 3202.333,3410.246 3219.364,3416.372M3185.196,3379.584C3191.853,3380.54 3203.183,3353.276 3203.183,3353.205C3195.429,3338.051 3163.067,3376.397 3185.196,3379.584M3210.088,3342.335C3216.461,3331.111 3204.281,3322.896 3195.287,3326.72C3178.15,3333.625 3203.998,3353.382 3210.088,3342.335M3216.886,3292.836C3227.791,3295.562 3238.307,3290.534 3237.493,3279.7C3234.731,3247.727 3176.061,3282.745 3216.886,3292.836M3201.094,3254.95C3204.422,3256.685 3210.229,3259.305 3212.318,3258.809C3217.134,3257.464 3244.681,3219.932 3244.822,3219.649C3248.257,3196.315 3212.46,3198.192 3203.608,3210.124C3200.28,3214.408 3203.183,3225.916 3200.846,3232.643C3195.429,3246.487 3185.055,3246.629 3201.094,3254.95M3354.231,3062.688C3365.561,3064.635 3373.457,3053.234 3366.8,3045.586C3355.753,3032.84 3326.542,3057.979 3354.231,3062.688M3334.297,2960.927C3356.568,2941.347 3334.013,2908.737 3309.547,2911.322C3258.1,2916.845 3298.889,2991.98 3334.297,2960.927M3293.649,2899.283C3305.794,2907.498 3331.393,2894.007 3318.54,2881.438C3310.22,2873.223 3275.52,2886.926 3293.649,2899.283M3242.06,2818.165C3246.061,2820.112 3264.19,2821.493 3263.34,2811.013C3262.101,2796.319 3223.932,2809.278 3242.06,2818.165M3295.171,2806.764C3302.89,2808.959 3321.444,2792.247 3310.503,2786.475C3303.032,2782.616 3282.708,2803.294 3295.171,2806.764M3344.529,2815.226C3351.575,2818.271 3355.612,2818.944 3359.896,2811.367C3374.271,2784.67 3314.114,2801.913 3344.529,2815.226M3261.676,2762.469C3246.734,2749.9 3220.887,2789.273 3242.592,2793.415C3253.249,2795.398 3272.192,2771.286 3261.676,2762.469M3303.315,2739.207C3308.166,2740.021 3316.735,2735.524 3314.929,2729.611C3309.405,2711.341 3285.895,2736.303 3303.315,2739.207M3294.038,2715.307C3305.546,2722.955 3340.528,2721.822 3346.618,2712.226C3362.658,2687.795 3298.181,2673.526 3286.992,2687.37C3277.468,2699.338 3287.417,2710.916 3294.038,2715.307M3325.445,2664.32C3341.343,2666.799 3327.923,2641.022 3319.921,2654.194C3316.026,2660.425 3320.877,2663.577 3325.445,2664.32M3864.592,1997.529C3875.356,1996.856 3867.885,1977.347 3860.273,1982.871C3854.218,1987.19 3854.359,1998.131 3864.592,1997.529M3811.198,1790.396C3816.58,1793.3 3825.715,1794.681 3828.335,1790.927C3843.56,1768.55 3771.506,1769.187 3811.198,1790.396M3979.666,1795.53C3986.854,1795.141 3985.862,1787.634 3982.003,1786.466C3977.294,1785.121 3970.92,1796.061 3979.666,1795.53M3906.337,1756.547C3919.332,1755.839 3909.807,1741.109 3903.576,1743.34C3896.671,1745.818 3901.38,1756.83 3906.337,1756.547M3847.42,1724.185C3838.993,1732.257 3844.799,1737.391 3850.465,1740.401C3877.445,1754.883 3867.212,1705.737 3847.42,1724.185M3457.266,1271.537C3452.699,1273.308 3447.281,1275.184 3450.079,1281.38C3460.028,1302.094 3478.263,1263.393 3457.266,1271.537M3494.869,1244.238C3514.52,1241.724 3522.664,1198.244 3489.062,1202.705C3454.752,1207.273 3471.217,1247.354 3494.869,1244.238M3478.157,1111.708C3461.834,1114.718 3457.797,1120.029 3458.789,1130.651C3462.223,1170.308 3540.367,1100.378 3478.157,1111.708M3356.426,1043.089C3341.059,1049.392 3362.091,1062.315 3366.659,1052.614C3370.66,1043.691 3359.046,1041.991 3356.426,1043.089M3416.194,999.892C3369.704,1010.302 3449.512,1045.249 3435.384,1005.274C3431.525,994.51 3426.285,997.661 3416.194,999.892M3516.857,1119.817C3523.372,1127.783 3548.121,1123.074 3556.017,1103.636C3559.452,1095.209 3555.734,1084.516 3559.346,1079.665C3578.961,1053.038 3600.808,1093.934 3620.317,1090.924C3632.355,1089.083 3649.351,1061.041 3626.265,1045.674C3627.646,1046.594 3568.587,1030.378 3565.683,1031.688C3543.023,1042.027 3565.011,1051.728 3554.778,1070.919C3551.591,1076.691 3501.667,1100.768 3516.857,1119.817M3794.734,1148.001C3804.683,1134.05 3783.12,1119.604 3775.366,1123.534C3751.997,1135.184 3782.553,1165.138 3794.734,1148.001M3697.93,1085.542C3680.616,1090.039 3678.704,1111.177 3693.504,1117.48C3720.059,1128.739 3730.292,1076.974 3697.93,1085.542M3298.323,923.695C3304.979,918.88 3299.172,893.104 3296.942,890.908C3292.374,886.27 3285.753,888.925 3280.23,888.571C3216.886,884.146 3285.045,933.255 3298.323,923.695M3317.301,823.209C3334.013,830.645 3340.245,791.945 3320.063,801.859C3315.354,804.267 3305.652,818.111 3317.301,823.209M2993.359,669.258C2985.216,670.781 2972.08,676.446 2976.612,688.591C2990.739,724.671 3040.664,660.513 2993.359,669.258M3285.753,759.122C3308.697,787.767 3347.008,723.078 3307.458,724.175C3297.367,724.458 3272.617,742.622 3285.753,759.122M3136.936,550.998C3136.228,542.252 3126.845,541.58 3123.8,543.739C3104.29,557.761 3138.034,567.108 3136.936,550.998M3189.197,563.815C3204.422,557.513 3202.758,521.114 3179.956,527.169C3153.259,534.321 3168.59,572.526 3189.197,563.815M2089.377,279.211C2098.37,269.757 2076.772,265.898 2075.957,250.213C2075.532,236.298 2086.757,234.633 2072.346,236.12C2034.743,240.015 2069.301,300.208 2089.377,279.211M2400.713,355.479C2409.99,353.708 2411.229,326.161 2395.048,332.96C2384.107,337.633 2390.339,357.391 2400.713,355.479M3250.348,640.189C3307.743,667.878 3344.531,507.801 3289.225,518.104C3270.388,521.61 3214.232,622.804 3250.348,640.189M3335.255,492.009C3334.44,482.874 3327.252,481.493 3322.26,482.06C3284.374,486.167 3338.724,533.684 3335.255,492.009M266.995,1843.859C279.458,1834.087 323.151,1859.262 324.956,1859.049C334.091,1857.951 329.666,1848.285 344.997,1843.434C357.744,1839.469 369.747,1849.772 377.642,1845.878C384.83,1842.231 394.39,1811.816 408.766,1802.928C404.623,1921.012 415.812,2037.573 440.986,2150.416C436.985,2153.249 435.604,2156.541 439.889,2164.898C441.978,2168.686 443.748,2170.457 445.979,2171.236C505.994,2422.486 635.443,2654.581 818.039,2843.196C817.331,2843.373 816.764,2843.408 816.233,2843.621C808.196,2846.17 803.77,2849.286 801.574,2852.614C796.157,2850.702 787.057,2840.54 776.683,2843.833C766.982,2846.772 766.309,2859.802 753.562,2867.45C740.001,2875.806 697.548,2886.003 694.113,2873.682C691.599,2864.794 717.765,2863.945 719.819,2855.518C722.05,2845.568 686.89,2823.226 679.171,2823.049C671.275,2822.837 610.021,2849.109 607.79,2861.36C604.072,2881.613 670.036,2876.408 672.656,2886.499C674.321,2892.872 639.196,2930.086 635.195,2930.015C629.92,2929.908 623.299,2911.355 617.208,2907.743C571.71,2881.4 571.71,2952.038 589.272,2970.521C596.318,2977.815 604.32,2967.299 616.217,2975.478C621.634,2979.195 625.211,2996.474 634.204,3004.512C660.476,3027.845 664.371,3003.06 675.029,3023.419C681.791,3036.095 662.282,3055.711 674.462,3070.83C689.829,3089.914 706.824,3067.962 728.388,3067.183C738.904,3066.793 750.375,3079.009 763.547,3081.912C781.499,3085.772 818.039,3087.471 837.265,3082.833C846.79,3080.602 856.35,3070.794 865.733,3070.263C883.72,3069.13 896.997,3084.497 912.506,3079.859C939.309,3071.75 946.922,3045.62 942.779,3029.368C936.831,3006.707 924.119,3006.778 923.269,3004.335C919.127,2992.509 929.643,2965.67 929.501,2961.209C929.218,2955.437 928.828,2950.586 928.262,2946.337C941.311,2957.322 954.544,2968.087 967.954,2978.629C959.243,2984.542 952.587,2989.216 951.772,2991.73C942.354,3019.949 1012.213,3070.157 1024.251,3074.016C1035.157,3077.451 1051.904,3072.458 1059.517,3081.912C1088.693,3117.567 1014.16,3157.011 1041.105,3197.871C1054.383,3217.876 1087.453,3208.6 1094.641,3221.24C1112.486,3252.753 1051.232,3260.648 1037.246,3280.37C1035.865,3282.176 1036.538,3317.159 1029.35,3327.568C1026.871,3331.428 1015.541,3332.313 1012.496,3335.11C1007.645,3339.43 1004.742,3350.512 1002.263,3356.496C988.561,3389.283 1004.175,3377.245 1031.722,3380.467C1052.86,3383.016 1061.323,3395.409 1083.842,3387.584C1129.765,3371.686 1173.068,3314.22 1160.605,3276.192C1156.462,3263.906 1147.079,3264.012 1141.131,3251.23C1134.191,3236.642 1146.796,3246.344 1141.272,3230.906C1137.803,3221.275 1126.331,3216.566 1127.428,3210.087C1128.526,3201.766 1164.641,3171.741 1169.067,3168.094C1181.778,3157.932 1198.809,3147.982 1213.043,3136.864C1244.556,3153.293 1277.201,3168.766 1310.272,3183.106C1313.175,3189.338 1314.839,3194.437 1318.84,3195.959C1323.974,3197.977 1329.356,3196.349 1334.88,3193.658C1417.678,3227.872 1503.236,3254.985 1590.627,3274.705C1667.245,3292.06 1745.05,3303.682 1823.395,3309.475C1820.491,3317.548 1822.297,3325.798 1832.955,3328.206C1840.426,3329.834 1850.906,3320.983 1855.757,3311.635C1875.267,3312.626 1894.493,3313.228 1913.86,3313.547C1915.383,3316.769 1917.189,3320.133 1919.242,3323.709C1938.893,3357.735 1942.47,3346.971 1922.854,3372.606C1915.808,3381.706 1913.86,3388.292 1915.1,3393.213C1914.392,3393.249 1913.294,3393.32 1912.48,3393.603C1902.53,3396.471 1895.307,3427.063 1911.099,3425.965C1917.862,3425.505 1922.996,3410.492 1921.615,3400.932C1933.37,3407.908 1956.88,3407.695 1969.875,3409.749C1971.681,3414.847 1975.115,3418.636 1980.108,3419.415C1981.347,3419.557 1982.445,3419.486 1983.436,3419.379C1997.67,3441.651 1994.483,3486.476 1999.051,3497.028C2003.618,3507.544 2036.547,3534.772 2036.547,3551.095C2036.795,3559.911 2015.515,3569.471 2014.948,3577.473C2012.612,3611.889 2048.692,3598.753 2064.2,3606.153C2069.44,3608.667 2075.672,3621.555 2080.948,3625.698C2086.613,3630.018 2103.077,3632.036 2116.213,3640.357C2129.633,3648.854 2135.44,3663.69 2145.531,3664.363C2159.481,3665.248 2162.526,3647.792 2175.414,3654.484C2192.127,3663.053 2176.229,3700.301 2207.635,3683.943C2227.676,3673.64 2204.873,3657.529 2199.881,3640.321C2196.694,3629.274 2194.641,3552.369 2206.785,3543.022C2212.451,3538.561 2240.281,3534.241 2253.417,3539.092C2259.365,3541.216 2281.495,3565.824 2298.774,3569.011C2311.485,3645.739 2403.331,3734.965 2483.281,3690.423C2567.515,3643.402 2503.18,3487.928 2397.525,3476.846C2405.421,3474.757 2413.423,3472.49 2420.362,3468.631C2428.364,3464.064 2423.372,3452.521 2436.119,3451.459C2449.538,3450.396 2463.489,3475.358 2479.811,3469.162C2497.94,3462.152 2497.94,3427.488 2491.85,3409.926C2489.088,3402.349 2475.952,3396.436 2479.528,3385.141C2484.096,3369.738 2511.359,3368.003 2526.584,3360.922C2550.484,3349.485 2579.943,3324.984 2617.865,3313.759C2627.106,3310.927 2638.33,3312.768 2647.607,3310.608C2705.108,3297.012 2757.971,3264.508 2777.056,3263.304C2804.284,3261.534 2817.845,3298.039 2833.354,3298.959C2879.666,3301.863 2862.812,3258.205 2875.099,3243.405C2889.368,3226.551 2928.351,3224.108 2946.197,3218.584C3022.677,3195.109 3182.434,2764.698 3120.897,2774.364C3111.195,2775.851 3101.812,2777.905 3092.11,2779.958C3224.746,2618.678 3322.116,2426.522 3370.802,2211.317C3380.645,2168.226 3387.974,2125.064 3393.356,2082.044L3416.866,2084.806C3406.35,2070.36 3398.49,2055.985 3397.924,2047.806C3397.924,2045.823 3403.872,2042.034 3406.209,2038.848C3408.44,2060.481 3414.105,2077.512 3427.524,2081.974C3438.323,2085.55 3451.849,2077.194 3462.79,2079.92C3478.829,2083.85 3496.958,2102.297 3498.197,2113.557C3500.534,2134.022 3484.07,2157.462 3466.649,2161.569C3456.983,2163.8 3439.563,2155.727 3429.33,2160.967C3402.208,2174.918 3433.189,2204.66 3432.233,2213.831C3431.242,2224.771 3415.91,2228.843 3413.68,2239.784C3409.679,2261.666 3428.905,2260.568 3428.905,2275.333C3428.905,2277.918 3417.822,2289.744 3416.3,2294.984C3406.067,2331.985 3442.855,2368.702 3438.996,2386.441C3437.615,2393.204 3426.816,2404.003 3424.054,2410.412C3422.248,2414.838 3423.913,2417.175 3435.278,2414.519C3442.183,2412.891 3445.759,2407.261 3447.848,2399.861C3454.363,2376.775 3445.759,2336.198 3474.828,2343.882C3491.151,2348.308 3486.017,2385.91 3498.339,2373.482C3523.655,2347.281 3492.532,2330.144 3491.682,2310.563C3491.293,2300.26 3502.906,2286.38 3501.915,2271.474C3500.817,2255.293 3487.256,2250.902 3488.92,2238.616C3490.16,2228.914 3501.667,2220.77 3507.332,2212.662C3520.327,2194.781 3557.398,2142.626 3550.352,2116.319C3546.316,2101.306 3516.998,2091.604 3509.669,2084.24C3496.958,2071.351 3489.487,2052.515 3489.77,2028.898C3489.629,2010.699 3500.534,1992.747 3502.198,1973.486C3504.96,1937.618 3457.797,1925.756 3467.782,1894.633C3473.306,1877.567 3492.107,1885.746 3504.818,1878.488C3521.424,1869.176 3525.425,1846.656 3541.359,1831.254C3567.206,1806.08 3636.498,1788.588 3631.789,1846.621C3630.55,1860.324 3610.934,1885.64 3613.129,1891.624C3615.466,1897.891 3642.022,1886.525 3636.073,1906.814C3630.975,1924.765 3612.457,1895.908 3605.942,1907.309C3589.902,1935.848 3646.731,1923.49 3653.529,1926.004C3684.51,1937.901 3654.06,1990.162 3666.665,2013.744C3681.855,2042.636 3756.423,2024.012 3767.753,2023.445C3770.125,2023.339 3785.882,2030.137 3789.883,2026.632C3804.01,2013.673 3762.513,1967.856 3762.796,1967.891C3752.563,1967.856 3751.289,1996.925 3739.144,1995.509C3733.337,1994.836 3733.868,1980.071 3729.301,1975.008C3717.546,1961.872 3707.454,1976.601 3706.782,1957.517C3706.215,1944.381 3723.777,1947.886 3728.203,1927.173C3730.54,1916.869 3718.254,1909.115 3729.018,1903.45C3734.435,1900.617 3750.333,1915.453 3755.573,1909.646C3764.566,1899.59 3738.861,1882.666 3732.063,1880.01C3716.306,1873.991 3694.318,1881.533 3694.177,1865.068C3694.035,1859.403 3709.827,1855.225 3711.314,1848.462C3712.164,1844.674 3703.453,1825.377 3698.036,1817.941C3675.234,1786.854 3638.87,1774.319 3597.09,1751.092C3572.871,1737.46 3548.971,1720.181 3527.089,1714.764C3519.902,1713.065 3513.422,1710.976 3507.191,1708.816C3504.287,1701.734 3501.915,1695.609 3502.906,1692.918C3508.713,1673.054 3550.883,1658.644 3557.823,1651.491C3564.019,1645.047 3572.73,1614.278 3584.768,1608.967C3591.141,1606.099 3605.517,1617.323 3611.748,1615.199C3638.021,1605.851 3615.608,1585.669 3615.749,1572.816C3615.749,1568.496 3623.22,1560.176 3624.46,1555.29C3625.734,1550.191 3621.415,1538.329 3622.937,1526.857C3624.601,1515.067 3633.595,1506.463 3630.408,1499.275C3626.407,1489.715 3612.315,1493.114 3612.704,1482.244C3613.413,1468.329 3646.341,1467.231 3623.362,1451.121C3608.845,1440.959 3604.986,1461.496 3593.903,1470.312C3586.999,1476.048 3530.843,1501.789 3519.619,1496.478C3514.378,1494.035 3501.667,1476.65 3500.676,1466.134C3500.003,1459.867 3519.371,1420.919 3496.958,1417.661C3488.495,1416.422 3481.874,1434.126 3475.926,1434.48C3459.603,1435.4 3470.261,1408.632 3453.088,1401.02C3446.75,1398.187 3434.57,1407.039 3429.188,1406.295C3413.538,1404.313 3405.111,1385.228 3390.736,1375.774C3384.646,1371.809 3377.6,1378.713 3372.466,1370.534C3367.084,1361.718 3461.267,1266.366 3451.035,1257.408C3439.563,1247.281 3414.105,1258.293 3403.164,1268.03C3398.596,1272.208 3383.123,1282.016 3373.563,1283.255C3360.427,1284.955 3365.42,1268.03 3355.045,1260.169C3338.298,1247.564 3310.078,1235.49 3288.373,1213.432C3286.178,1211.059 3284.372,1208.05 3282.566,1205.076C3293.507,1208.758 3307.458,1202.314 3314.645,1200.72C3315.354,1204.474 3327.25,1216.76 3330.968,1215.875C3342.582,1212.83 3332.774,1199.906 3336.527,1194.878C3349.522,1177.564 3399.871,1186.77 3410.104,1175.404C3422.532,1161.949 3414.671,1122.931 3404.297,1112.202C3394.064,1101.545 3369.421,1097.721 3354.62,1099.774C3350.336,1100.447 3334.721,1105.616 3320.877,1113.123C3316.31,1106.466 3311.6,1100.128 3311.353,1098.075C3307.175,1070.138 3320.452,1061.039 3308.449,1045.211C3303.457,1038.519 3298.075,1037.918 3292.799,1035.439C3290.852,1032.288 3287.134,1029.349 3282.85,1025.313C3280.761,1020.001 3279.946,1013.132 3276.193,1007.219C3273.042,1002.369 3267.625,995.641 3262.101,987.781C3260.72,983.107 3259.056,979.602 3255.728,977.76C3247.159,963.243 3241.636,946.602 3251.16,932.12C3257.25,922.95 3270.386,937.715 3267.625,922.525C3265.288,910.451 3247.159,922.667 3242.733,921.321C3235.404,919.268 3230.978,909.106 3224.746,906.84C3212.602,902.52 3193.375,900.573 3185.055,903.582C3167.776,909.814 3156.693,950.957 3173.583,971.033C3178.15,976.592 3188.666,974.326 3197.093,981.549C3210.229,992.915 3211.185,1017.912 3220.745,1027.897C3224.215,1031.332 3227.508,1033.562 3230.695,1035.368C3231.403,1040.361 3231.403,1045.211 3230.553,1049.85C3230.164,1051.089 3229.172,1052.47 3227.791,1054.063C3216.036,1055.94 3199.855,1055.267 3188.383,1047.088C3171.246,1035.05 3195.004,1023.507 3171.494,1023.224C3156.693,1023.011 3158.357,1031.226 3162.783,1039.298C3156.162,1041.671 3141.893,1047.265 3131.519,1052.576C3120.755,1042.91 3111.337,1028.57 3104.29,1021.524C3060.456,977.406 3038.716,947.381 3003.061,898.59C2986.455,875.929 2947.578,861.023 2921.447,846.116C2913.126,838.751 2904.983,831.457 2896.697,824.27C2896.414,823.951 2896.414,823.703 2896.272,823.491C2885.473,790.172 2859.767,809.717 2851.305,777.107C2847.304,761.245 2833.46,748.498 2826.839,730.299C2825.883,727.678 2825.316,724.917 2824.75,722.155C2826.839,712.878 2826.272,702.61 2822.271,692.059C2822.413,673.08 2823.794,652.792 2819.651,633.353C2816.889,619.934 2809.277,607.931 2806.798,595.751C2804.567,584.314 2807.896,571.568 2804.709,560.591C2798.477,538.816 2778.968,522.493 2762.645,496.752C2751.74,479.898 2748.128,458.193 2739.276,444.809C2718.386,412.978 2679.686,392.69 2652.847,391.273C2636.807,390.459 2587.273,403.206 2575.801,409.296C2566.666,414.076 2558.805,420.378 2551.476,427.247C2541.491,417.829 2527.399,414.961 2511.501,425.441C2506.367,428.947 2502.932,432.133 2500.56,435.32C2499.038,428.557 2490.044,422.821 2482.325,426.61C2463.205,435.922 2484.945,452.705 2495.603,447.394C2494.47,455.856 2495.709,465.947 2490.894,481.668C2487.141,494.238 2467.1,528.689 2487.282,543.95C2493.089,548.27 2497.515,549.473 2501.41,549.155C2501.127,555.351 2501.41,561.229 2501.941,566.611C2502.366,570.257 2503.18,573.94 2504.172,577.516C2429.887,545.224 2352.168,518.315 2271.404,497.318C2275.688,495.69 2280.114,494.061 2285.779,493.99C2306.528,493.742 2326.71,495.548 2326.002,469.771C2325.612,456.919 2316.052,459.645 2300.721,444.561C2293.25,437.09 2280.928,410.924 2271.793,405.224C2264.039,400.302 2251.753,402.922 2247.044,399.028C2242.334,395.168 2243.857,374.349 2232.385,380.722C2221.302,386.812 2236.669,398.142 2235.147,402.781C2234.58,404.764 2171.095,449.306 2175.273,448.669C2172.086,449.129 2129.491,425.619 2131.545,456.104C2131.828,462.23 2133.775,466.089 2136.537,468.391C2085.649,459.714 2034.364,453.557 1982.869,449.943C1984.392,446.65 1985.206,443.039 1984.958,439.357C1989.101,431.425 1993.102,423.636 2001.954,424.308C2010.664,425.087 2012.328,443.712 2019.091,445.73C2049.258,454.617 2101.803,353.246 2059.208,356.362C2035.697,358.132 2028.934,405.011 1998.909,404.905C1989.101,404.87 1985.49,397.895 1979.683,399.523C1972.778,401.435 1965.166,408.588 1959.925,417.156C1954.225,415.032 1948.843,412.482 1945.125,407.171C1930.856,386.918 1940.416,357.105 1923.527,329.275C1921.721,326.513 1919.951,323.893 1917.862,321.415C1918.428,321.061 1918.711,320.742 1919.101,320.423C1929.192,309.128 1917.189,301.126 1918.003,285.016C1918.428,275.208 1924.235,266.852 1923.527,264.126C1919.951,248.617 1881.357,231.586 1917.047,227.904C1950.79,224.469 1950.507,169.376 1913.577,167.711C1907.346,167.464 1900.441,180.918 1889.359,177.944C1882.879,176.103 1879.976,150.043 1860.891,157.62C1848.569,162.507 1839.151,189.416 1864.326,196.108C1878.028,199.72 1879.551,188.035 1887.447,193.878C1892.829,198.126 1891.873,210.908 1887.588,212.927C1883.41,215.087 1831.822,199.33 1821.058,200.888C1811.215,202.304 1779.844,218.202 1774.568,229.639C1768.903,241.89 1779.277,248.688 1773.47,259.346C1772.231,261.647 1751.199,264.586 1754.386,275.668C1756.192,281.794 1770,277.545 1776.232,281.404C1783.278,285.76 1784.411,300.666 1792.697,308.137C1797.406,312.35 1803.885,316.67 1811.781,320.317C1808.878,336.321 1805.833,351.405 1806.93,360.752C1810.684,390.459 1833.627,420.307 1813.02,435.497C1775.949,462.655 1780.658,420.414 1756.723,399.771C1718.129,366.347 1693.662,422.751 1705.276,449.589C1705.984,451.572 1707.082,453.272 1708.321,454.9C1689.095,456.989 1670.293,459.433 1651.351,462.159C1651.492,458.724 1651.634,455.077 1651.492,451.147C1651.492,446.686 1634.178,419.21 1639.454,414.147C1641.932,411.703 1662.114,418.749 1667.248,418.041C1678.579,416.625 1704.037,398.426 1699.752,387.343C1694.229,372.614 1677.056,386.246 1667.39,374.667C1665.726,372.685 1662.681,309.978 1635.559,334.94C1612.19,356.539 1661.442,394.035 1631.983,404.976C1622.175,408.694 1615.802,388.37 1608.755,388.158C1607.091,388.122 1576.11,412.836 1570.303,420.732C1554.795,441.587 1556.6,461.734 1566.55,476.888C1559.646,478.305 1552.599,479.792 1545.518,481.279C1554.936,448.952 1513.049,404.303 1474.703,412.766C1446.094,419.068 1459.655,438.755 1450.803,463.646C1446.519,476.393 1431.86,479.402 1432.816,493.671C1433.1,500.824 1434.87,505.745 1437.384,509.109C1416.069,515.412 1394.931,522.139 1374.04,529.362C1368.906,512.154 1357.576,504.471 1349.007,503.621C1329.923,501.815 1315.937,508.79 1316.787,531.663C1317.034,538.108 1319.69,543.313 1323.266,547.809C1276.104,565.973 1230.039,586.332 1185.39,608.993C1185.638,597.981 1176.928,586.049 1175.263,566.681C1172.785,539.205 1184.54,546.535 1154.409,538.887C1102.926,525.857 1167.403,488.537 1140.989,470.727C1131.004,463.929 1111.672,484.466 1101.298,481.633C1081.788,476.393 1071.414,430.753 1056.614,427.318C1043.619,424.308 1028.252,438.294 1027.969,446.757C1027.686,465.983 1069.75,479.225 1085.364,498.735C1088.161,501.957 1088.161,512.862 1092.162,519.306C1109.441,546.003 1113.301,525.007 1084.833,546.145C1075.415,553.085 1075.415,564.061 1067.519,567.248C1062.42,569.301 1045.814,562.822 1029.208,567.354C1014.55,571.391 999.36,586.439 990.791,587.784C972.663,590.688 955.632,567.991 941.256,586.226C931.98,597.698 939.061,617.81 952.056,628.609C968.095,641.922 1004.6,617.243 1005.556,645.215C1005.839,651.73 990.791,651.447 982.612,662.069C965.723,684.092 988.277,704.628 1000.457,720.172C968.662,742.585 937.68,766.308 907.796,791.199C907.796,790.739 907.372,790.243 907.23,789.748C902.379,776.045 910.133,772.008 904.751,763.936C900.609,757.421 875.576,742.585 872.389,741.133C848.595,730.511 821.473,733.733 799.202,713.055C776.4,691.952 774.311,673.682 755.793,681.897C747.614,685.402 748.463,709.231 735.469,717.8C735.044,718.048 734.619,718.296 734.194,718.508C708.347,713.799 687.882,711.993 681.083,729.024C670.461,729.236 661.043,729.555 655.802,732.848C632.965,747.153 644.437,757.562 631.159,780.825C629.636,783.41 612.358,819.667 602.125,827.315C591.467,835.458 570.046,853.587 554.006,835.281C541.685,821.295 569.055,809.045 553.015,798.599C543.88,792.686 535.453,804.406 524.548,804.442C505.994,804.619 490.769,780.683 472.392,790.633C446.935,804.335 480.678,833.794 471.543,844.806C460.496,858.19 421.477,837.547 416.52,832.201C413.333,828.625 416.52,816.94 412.625,810.355C406.676,800.299 401.295,804.76 395.913,797.608C378.74,775.054 414.714,771.371 386.069,778.346C372.792,781.604 385.68,791.093 387.344,801.397C391.345,829.439 379.165,810.602 388.3,824.518C397.294,838.043 422.61,836.344 445.979,856.136C451.219,860.633 452.069,871.22 455.645,875.433C468.533,890.517 487.334,886.233 493.672,895.615C496.859,900.643 485.529,901.529 489.14,914.488C490.521,919.551 500.612,922.844 503.091,928.473C507.517,938.6 505.852,973.441 505.321,974.645C500.187,985.479 427.036,1045.955 408.199,1031.084C401.153,1025.49 404.056,1004.139 407.243,1001.236C414.714,994.473 435.321,1012.495 448.316,999.89C456.211,992.171 452.069,948.762 449.307,938.954C443.358,919.515 416.378,901.706 404.056,918.489C395.346,930.527 423.424,949.045 423.424,957.083C423.424,964.199 408.766,967.245 406.145,971.387C400.197,980.876 412.767,993.552 401.578,997.022C373.5,1005.839 378.209,952.232 372.65,945.965C347.511,918.276 328.816,973.193 305.872,951.913C302.827,949.116 302.968,889.278 272.27,919.622C256.762,934.953 289.974,936.865 288.699,959.49C288.168,973.193 269.756,958.145 277.227,978.079C282.645,992.95 308.775,992.95 315.007,1011.822C321.062,1030.128 290.363,1048.752 287.318,1067.872C285.548,1078.848 289.974,1093.047 292.594,1099.243C294.258,1103.209 309.306,1115.283 307.784,1122.754C306.155,1131.747 290.93,1126.578 280.697,1138.05C269.615,1150.796 289.832,1159.683 271.845,1168.96C253.717,1178.378 210.98,1144.919 194.126,1152.921C171.43,1163.684 185.381,1179.901 192.32,1197.605C202.553,1225.116 216.929,1242.997 242.811,1222.248C270.04,1200.402 265.33,1238.748 275.032,1244.98C291.355,1255.496 304.88,1234.464 316.246,1243.599C357.177,1276.811 288.31,1280.847 282.751,1302.092C281.228,1307.863 296.595,1320.503 299.498,1328.364C308.634,1353.291 312.635,1417.201 293.833,1428.46C284.698,1434.019 262.427,1423.68 245.715,1436.463C238.492,1441.774 247.343,1451.05 235.34,1464.576C227.161,1473.817 221.638,1470.631 219.549,1474.879C216.256,1481.89 210.024,1525.724 218.876,1529.053C234.349,1534.86 241.82,1501.754 248.866,1512.447C257.47,1525.193 239.483,1524.839 235.73,1541.835C234.491,1547.181 237.677,1582.907 243.626,1592.184C267.561,1629.716 297.693,1582.305 322.867,1597.46C344.607,1610.596 324.107,1618.669 340.713,1633.292C357.177,1647.667 407.101,1637.258 422.999,1648.234C421.618,1656.979 420.662,1665.69 419.565,1674.364C417.334,1676.206 414.856,1677.693 412.377,1678.932C385.397,1692.387 355.655,1654.572 340.429,1660.308C335.472,1662.255 331.861,1690.05 320.106,1696.282C282.22,1716.499 279.989,1653.722 246.671,1674.931C218.309,1693.095 263.525,1722.412 267.136,1736.575C270.748,1750.703 243.767,1783.667 245.007,1803.601C246.246,1824.846 260.515,1831.892 253.044,1840.496" style="fill:rgb(1,165,189);fill-rule:nonzero;"/>
</svg>
