<?xml version="1.0" encoding="UTF-8" standalone="no"?><!DOCTYPE svg PUBLIC "-//W3C//DTD SVG 1.1//EN" "http://www.w3.org/Graphics/SVG/1.1/DTD/svg11.dtd"><svg width="100%" height="100%" viewBox="0 0 4167 2500" version="1.1" xmlns="http://www.w3.org/2000/svg" xmlns:xlink="http://www.w3.org/1999/xlink" xml:space="preserve" xmlns:serif="http://www.serif.com/" style="fill-rule:evenodd;clip-rule:evenodd;stroke-linejoin:round;stroke-miterlimit:2;"><path d="M138.445,1097.577c-11.537,0 -21.965,-4.215 -31.283,-12.646c-9.318,-8.431 -13.978,-18.415 -13.978,-29.952c0,-7.987 1.775,-17.749 5.325,-29.286c2.662,-12.425 3.994,-21.743 3.994,-27.955c0,-78.984 -4.437,-230.741 -13.312,-455.27c-8.875,-191.693 -13.312,-343.006 -13.312,-453.939c0,-7.987 3.106,-14.421 9.318,-19.302c6.212,-4.881 13.756,-7.322 22.63,-7.322c10.65,0 19.968,3.772 27.955,11.315c7.987,7.543 11.981,16.64 11.981,27.29c0,53.248 2.662,133.12 7.987,239.616c4.437,118.033 6.656,197.905 6.656,239.616l1.331,15.974l0,31.949c2.662,77.21 3.994,192.58 3.994,346.112l0,34.611l102.502,0c18.637,13.312 27.955,26.624 27.955,39.936c0,9.762 -3.328,18.415 -9.984,25.958c-6.656,7.543 -14.421,11.315 -23.296,11.315c-2.662,0 -7.543,-0.887 -14.643,-2.662l-5.325,-1.331c-5.325,0.887 -13.756,1.331 -25.293,1.331l-22.63,0c-6.212,-0.887 -13.312,-1.331 -21.299,-1.331c-8.875,10.65 -21.299,15.974 -37.274,15.974Zm347.443,-6.656c-16.862,0 -31.505,-2.219 -43.93,-6.656c-15.087,-4.437 -22.63,-16.862 -22.63,-37.274l0,-773.427c0,-15.087 -2.662,-37.717 -7.987,-67.891c-6.212,-27.511 -9.318,-50.142 -9.318,-67.891l0,-3.994c15.087,-24.849 26.18,-40.823 33.28,-47.923c12.425,0 28.843,-1.775 49.254,-5.325c18.637,-3.55 35.055,-5.325 49.254,-5.325c14.199,0 27.955,4.215 41.267,12.646c13.312,8.431 19.968,18.415 19.968,29.952c0,26.624 -20.412,39.936 -61.235,39.936l-18.637,0c-5.325,-0.887 -11.537,-1.331 -18.637,-1.331c-7.987,0 -12.868,0.444 -14.643,1.331c0,30.174 1.775,66.56 5.325,109.158l2.662,37.274l2.662,73.216c0,16.862 -1.331,42.598 -3.994,77.21l-2.662,74.547l18.637,-3.994c17.749,-5.325 32.393,-7.987 43.93,-7.987c9.762,0 18.637,3.772 26.624,11.315c7.987,7.543 11.981,16.196 11.981,25.958c0,10.65 -3.328,20.19 -9.984,28.621c-6.656,8.431 -14.865,12.646 -24.627,12.646l-15.974,-1.331l-17.306,0c-13.312,0 -22.63,3.106 -27.955,9.318l0,411.341l74.547,-3.994c50.586,0 75.878,11.537 75.878,34.611l0,5.325c-5.325,10.65 -15.087,19.302 -29.286,25.958c-14.199,6.656 -27.955,10.871 -41.267,12.646l-43.93,1.331l-41.267,0Zm394.035,1.331c-13.312,0 -23.74,-6.434 -31.283,-19.302c-7.543,-12.868 -11.315,-28.621 -11.315,-47.258c0,-29.286 1.775,-65.229 5.325,-107.827l2.662,-34.611l2.662,-70.554c0,-31.061 -3.106,-100.284 -9.318,-207.667c-6.212,-107.383 -9.318,-176.606 -9.318,-207.667c0,-2.662 0.222,-7.765 0.666,-15.309c0.444,-7.543 0.666,-19.302 0.666,-35.277c0.887,-17.749 1.331,-39.492 1.331,-65.229c0,-64.785 -4.437,-106.052 -13.312,-123.802c-5.325,0 -16.862,1.331 -34.611,3.994l-37.274,2.662c-11.537,0 -21.743,-3.328 -30.618,-9.984c-8.875,-6.656 -13.312,-15.309 -13.312,-25.958c0,-10.65 10.65,-19.968 31.949,-27.955c31.061,-10.65 83.866,-18.193 158.413,-22.63c30.174,-1.775 48.367,-2.662 54.579,-2.662c10.65,0 20.412,3.55 29.286,10.65c8.875,7.1 13.312,15.974 13.312,26.624c0,10.65 -3.772,19.302 -11.315,25.958c-7.543,6.656 -17.084,9.984 -28.621,9.984l-23.962,-1.331c-7.1,-0.887 -15.087,-1.331 -23.962,-1.331l-13.312,0c6.212,60.348 9.318,114.927 9.318,163.738l-1.331,85.197c-0.887,25.737 -1.331,54.579 -1.331,86.528c0,42.598 1.775,93.628 5.325,153.088c4.437,73.66 6.656,124.689 6.656,153.088c0,33.724 1.775,73.66 5.325,119.808c3.55,47.036 5.325,86.972 5.325,119.808c0,43.486 -12.868,65.229 -38.605,65.229Zm307.507,-712.192c-7.1,-1.775 -10.65,-9.762 -10.65,-23.962c0,-18.637 4.881,-50.586 14.643,-95.846c9.762,-45.261 23.074,-88.303 39.936,-129.126c17.749,-45.261 35.942,-67.891 54.579,-67.891c15.974,0 23.962,9.762 23.962,29.286c0,37.274 -6.434,78.763 -19.302,124.467c-12.868,45.705 -29.065,84.531 -48.589,116.48c-20.412,31.061 -38.605,46.592 -54.579,46.592Zm402.022,732.16c-31.949,0 -59.46,-5.769 -82.534,-17.306c-14.199,-7.987 -21.299,-17.306 -21.299,-27.955c0,-10.65 2.662,-19.302 7.987,-25.958c5.325,-6.656 12.868,-9.984 22.63,-9.984c8.875,0 21.743,3.55 38.605,10.65c18.637,7.1 30.174,10.65 34.611,10.65c16.862,0 32.171,-7.322 45.926,-21.965c13.756,-14.643 24.627,-33.946 32.614,-57.907c15.974,-44.373 23.962,-84.309 23.962,-119.808c0,-38.161 -5.99,-78.319 -17.971,-120.474c-11.981,-42.155 -28.177,-83.2 -48.589,-123.136l-21.299,-42.598c-22.187,-44.373 -39.27,-79.428 -51.251,-105.165c-11.981,-25.737 -22.409,-53.692 -31.283,-83.866c-13.312,-42.598 -19.968,-83.866 -19.968,-123.802c0,-31.949 5.547,-62.123 16.64,-90.522c11.093,-28.399 27.733,-52.361 49.92,-71.885c22.187,-21.299 49.698,-31.949 82.534,-31.949c15.974,0 31.505,4.659 46.592,13.978c15.087,9.318 25.737,21.077 31.949,35.277l-22.63,27.955c-23.074,0 -40.38,-4.437 -51.917,-13.312c-15.974,1.775 -29.952,9.54 -41.933,23.296c-11.981,13.756 -21.077,29.508 -27.29,47.258c-5.325,16.862 -7.987,33.724 -7.987,50.586c0,33.724 4.659,68.113 13.978,103.168c9.318,35.055 21.521,68.113 36.608,99.174l93.184,186.368c15.087,31.949 27.068,67.891 35.942,107.827c8.875,39.936 13.312,79.872 13.312,119.808c0,58.573 -14.199,113.596 -42.598,165.069c-15.087,26.624 -34.611,47.701 -58.573,63.232c-23.962,15.531 -50.586,23.296 -79.872,23.296Zm789.401,5.325c-48.811,0 -89.19,-14.643 -121.139,-43.93c-25.737,-21.299 -49.254,-57.685 -70.554,-109.158c-13.312,-33.724 -23.962,-81.203 -31.949,-142.438c-6.212,-49.698 -9.318,-96.734 -9.318,-141.107c-0.887,-11.537 -1.331,-31.505 -1.331,-59.904l0,-98.509c0,-38.161 1.331,-83.866 3.994,-137.114c3.55,-45.261 10.65,-91.409 21.299,-138.445c11.537,-46.148 28.399,-85.197 50.586,-117.146c22.187,-33.724 51.917,-57.685 89.19,-71.885c22.187,-6.212 43.042,-9.318 62.566,-9.318c37.274,0 55.91,12.425 55.91,37.274c0,9.762 -3.328,17.527 -9.984,23.296c-6.656,5.769 -15.309,8.653 -25.958,8.653c-3.55,0 -9.762,-1.331 -18.637,-3.994l-18.637,-2.662c-16.862,0 -31.949,5.103 -45.261,15.309c-13.312,10.206 -24.405,25.071 -33.28,44.595c-20.412,42.598 -34.167,89.19 -41.267,139.776c-9.762,62.123 -15.087,116.258 -15.974,162.406c-1.775,39.936 -2.662,82.091 -2.662,126.464l0,35.942c-0.887,12.425 -1.331,27.955 -1.331,46.592c0,45.261 2.219,89.634 6.656,133.12c3.55,51.473 13.312,95.846 29.286,133.12c14.199,41.711 37.274,70.997 69.222,87.859c15.087,8.875 33.724,13.312 55.91,13.312c39.049,0 71.885,-18.637 98.509,-55.91c-0.887,-31.061 -3.106,-61.457 -6.656,-91.187c-3.55,-29.73 -8.875,-49.92 -15.974,-60.57c-0.887,0 -2.884,0.222 -5.99,0.666l-13.978,1.997l-31.949,2.662c-30.174,0 -45.261,-12.868 -45.261,-38.605c0,-7.987 4.437,-15.087 13.312,-21.299c8.875,-6.212 20.855,-10.65 35.942,-13.312c24.849,-6.212 47.036,-9.318 66.56,-9.318c17.749,0 31.505,6.656 41.267,19.968c9.762,13.312 14.643,30.174 14.643,50.586c0,29.286 4.437,69.222 13.312,119.808c8.875,49.698 13.312,89.19 13.312,118.477c0,9.762 -3.106,18.193 -9.318,25.293c-6.212,7.1 -13.756,10.65 -22.63,10.65c-22.187,0 -37.274,-9.318 -45.261,-27.955l0,-1.331l-29.286,14.643c-26.624,15.087 -49.254,22.63 -67.891,22.63Zm455.27,2.662c-23.962,0 -45.705,-7.987 -65.229,-23.962c-19.524,-15.974 -36.386,-37.717 -50.586,-65.229c-25.737,-47.923 -44.817,-113.596 -57.242,-197.017c-8.875,-57.685 -15.531,-124.245 -19.968,-199.68l-1.331,-70.554l0,-71.885c-0.887,-23.074 -1.331,-51.029 -1.331,-83.866c0,-53.248 2.219,-100.284 6.656,-141.107c3.55,-42.598 12.425,-84.753 26.624,-126.464c14.199,-36.386 34.611,-62.123 61.235,-77.21c15.974,-7.1 31.949,-10.65 47.923,-10.65c47.036,0 84.309,18.637 111.821,55.91c30.174,41.711 50.142,88.303 59.904,139.776c14.199,62.123 22.187,121.583 23.962,178.381c3.55,63.01 5.325,122.47 5.325,178.381l0,75.878c0,15.087 -2.219,43.486 -6.656,85.197c-3.55,32.836 -5.325,60.791 -5.325,83.866l0,5.325c-5.325,24.849 -7.987,54.135 -7.987,87.859c0,24.849 -5.325,50.586 -15.974,77.21c-10.65,26.624 -25.737,49.254 -45.261,67.891c-19.524,21.299 -41.711,31.949 -66.56,31.949Zm2.662,-73.216c17.749,0 32.836,-16.418 45.261,-49.254c10.65,-29.286 18.415,-65.007 23.296,-107.162c4.881,-42.155 9.097,-89.856 12.646,-143.104c1.775,-23.074 2.662,-52.804 2.662,-89.19l-1.331,-122.47c-1.775,-47.923 -7.1,-107.827 -15.974,-179.712c-7.1,-61.235 -20.412,-115.371 -39.936,-162.406c-8.875,-22.187 -19.968,-39.492 -33.28,-51.917c-13.312,-12.425 -27.511,-18.637 -42.598,-18.637c-22.187,0 -38.605,17.306 -49.254,51.917c-13.312,36.386 -22.187,76.322 -26.624,119.808c-5.325,47.036 -8.431,91.853 -9.318,134.451l-1.331,43.93c-0.887,12.425 -1.331,29.286 -1.331,50.586l0,5.325c0,59.46 6.212,132.676 18.637,219.648c14.199,118.033 35.055,201.899 62.566,251.597c17.749,31.061 36.386,46.592 55.91,46.592Zm-2659.736,1376.46c-13.312,0 -23.74,-6.434 -31.283,-19.302c-7.543,-12.868 -11.315,-28.621 -11.315,-47.258c0,-29.286 1.775,-65.229 5.325,-107.827l2.662,-34.611l2.662,-70.554c0,-31.061 -3.106,-100.284 -9.318,-207.667c-6.212,-107.383 -9.318,-176.606 -9.318,-207.667c0,-2.662 0.222,-7.765 0.666,-15.309c0.444,-7.543 0.666,-19.302 0.666,-35.277c0.887,-17.749 1.331,-39.492 1.331,-65.229c0,-64.785 -4.437,-106.052 -13.312,-123.802c-5.325,0 -16.862,1.331 -34.611,3.994l-37.274,2.662c-11.537,0 -21.743,-3.328 -30.618,-9.984c-8.875,-6.656 -13.312,-15.309 -13.312,-25.958c0,-10.65 10.65,-19.968 31.949,-27.955c31.061,-10.65 83.866,-18.193 158.413,-22.63c30.174,-1.775 48.367,-2.662 54.579,-2.662c10.65,0 20.412,3.55 29.286,10.65c8.875,7.1 13.312,15.974 13.312,26.624c0,10.65 -3.772,19.302 -11.315,25.958c-7.543,6.656 -17.084,9.984 -28.621,9.984l-23.962,-1.331c-7.1,-0.887 -15.087,-1.331 -23.962,-1.331l-13.312,0c6.212,60.348 9.318,114.927 9.318,163.738l-1.331,85.197c-0.887,25.737 -1.331,54.579 -1.331,86.528c0,42.598 1.775,93.628 5.325,153.088c4.437,73.66 6.656,124.689 6.656,153.088c0,33.724 1.775,73.66 5.325,119.808c3.55,47.036 5.325,86.972 5.325,119.808c0,43.486 -12.868,65.229 -38.605,65.229Zm423.321,27.955c-23.962,0 -45.705,-7.987 -65.229,-23.962c-19.524,-15.974 -36.386,-37.717 -50.586,-65.229c-25.737,-47.923 -44.817,-113.596 -57.242,-197.017c-8.875,-57.685 -15.531,-124.245 -19.968,-199.68l-1.331,-70.554l0,-71.885c-0.887,-23.074 -1.331,-51.029 -1.331,-83.866c0,-53.248 2.219,-100.284 6.656,-141.107c3.55,-42.598 12.425,-84.753 26.624,-126.464c14.199,-36.386 34.611,-62.123 61.235,-77.21c15.974,-7.1 31.949,-10.65 47.923,-10.65c47.036,0 84.309,18.637 111.821,55.91c30.174,41.711 50.142,88.303 59.904,139.776c14.199,62.123 22.187,121.583 23.962,178.381c3.55,63.01 5.325,122.47 5.325,178.381l0,75.878c0,15.087 -2.219,43.486 -6.656,85.197c-3.55,32.836 -5.325,60.791 -5.325,83.866l0,5.325c-5.325,24.849 -7.987,54.135 -7.987,87.859c0,24.849 -5.325,50.586 -15.974,77.21c-10.65,26.624 -25.737,49.254 -45.261,67.891c-19.524,21.299 -41.711,31.949 -66.56,31.949Zm2.662,-73.216c17.749,0 32.836,-16.418 45.261,-49.254c10.65,-29.286 18.415,-65.007 23.296,-107.162c4.881,-42.155 9.097,-89.856 12.646,-143.104c1.775,-23.074 2.662,-52.804 2.662,-89.19l-1.331,-122.47c-1.775,-47.923 -7.1,-107.827 -15.974,-179.712c-7.1,-61.235 -20.412,-115.371 -39.936,-162.406c-8.875,-22.187 -19.968,-39.492 -33.28,-51.917c-13.312,-12.425 -27.511,-18.637 -42.598,-18.637c-22.187,0 -38.605,17.306 -49.254,51.917c-13.312,36.386 -22.187,76.322 -26.624,119.808c-5.325,47.036 -8.431,91.853 -9.318,134.451l-1.331,43.93c-0.887,12.425 -1.331,29.286 -1.331,50.586l0,5.325c0,59.46 6.212,132.676 18.637,219.648c14.199,118.033 35.055,201.899 62.566,251.597c17.749,31.061 36.386,46.592 55.91,46.592Zm638.976,45.261c-13.312,0 -23.74,-6.434 -31.283,-19.302c-7.543,-12.868 -11.315,-28.621 -11.315,-47.258c0,-29.286 1.775,-65.229 5.325,-107.827l2.662,-34.611l2.662,-70.554c0,-31.061 -3.106,-100.284 -9.318,-207.667c-6.212,-107.383 -9.318,-176.606 -9.318,-207.667c0,-2.662 0.222,-7.765 0.666,-15.309c0.444,-7.543 0.666,-19.302 0.666,-35.277c0.887,-17.749 1.331,-39.492 1.331,-65.229c0,-64.785 -4.437,-106.052 -13.312,-123.802c-5.325,0 -16.862,1.331 -34.611,3.994l-37.274,2.662c-11.537,0 -21.743,-3.328 -30.618,-9.984c-8.875,-6.656 -13.312,-15.309 -13.312,-25.958c0,-10.65 10.65,-19.968 31.949,-27.955c31.061,-10.65 83.866,-18.193 158.413,-22.63c30.174,-1.775 48.367,-2.662 54.579,-2.662c10.65,0 20.412,3.55 29.286,10.65c8.875,7.1 13.312,15.974 13.312,26.624c0,10.65 -3.772,19.302 -11.315,25.958c-7.543,6.656 -17.084,9.984 -28.621,9.984l-23.962,-1.331c-7.1,-0.887 -15.087,-1.331 -23.962,-1.331l-13.312,0c6.212,60.348 9.318,114.927 9.318,163.738l-1.331,85.197c-0.887,25.737 -1.331,54.579 -1.331,86.528c0,42.598 1.775,93.628 5.325,153.088c4.437,73.66 6.656,124.689 6.656,153.088c0,33.724 1.775,73.66 5.325,119.808c3.55,47.036 5.325,86.972 5.325,119.808c0,43.486 -12.868,65.229 -38.605,65.229Zm481.894,10.65c-11.537,0 -20.19,-4.215 -25.958,-12.646c-5.769,-8.431 -8.653,-18.859 -8.653,-31.283c0,-185.48 -3.55,-342.118 -10.65,-469.913c-21.299,-3.55 -36.386,-5.325 -45.261,-5.325c-36.386,0 -62.566,3.106 -78.541,9.318c0,49.698 3.994,124.689 11.981,224.973c7.1,106.496 10.65,181.931 10.65,226.304c0,8.875 -2.662,17.084 -7.987,24.627c-5.325,7.543 -11.981,11.315 -19.968,11.315c-11.537,0 -22.187,-20.412 -31.949,-61.235c-14.199,-60.348 -25.737,-186.812 -34.611,-379.392c-6.212,-130.458 -9.318,-270.677 -9.318,-420.659c-0.887,-27.511 -1.331,-66.56 -1.331,-117.146c0,-15.974 7.543,-23.962 22.63,-23.962c8.875,0 17.971,2.219 27.29,6.656c9.318,4.437 16.196,9.318 20.634,14.643c-3.55,28.399 -5.325,61.679 -5.325,99.84c0,37.274 1.775,82.534 5.325,135.782c2.662,61.235 3.994,107.383 3.994,138.445l0,23.962c-0.887,7.1 -1.331,15.531 -1.331,25.293c0,8.875 0.887,20.412 2.662,34.611c5.325,0 14.199,-0.444 26.624,-1.331c12.425,-0.887 24.849,-2.219 37.274,-3.994c29.286,-2.662 51.029,-3.994 65.229,-3.994c0,-77.21 -0.887,-148.651 -2.662,-214.323l-2.662,-222.31l0,-35.942c11.537,0 21.743,1.997 30.618,5.99c8.875,3.994 15.531,9.097 19.968,15.309c7.987,9.762 12.868,26.624 14.643,50.586l0,30.618c0,76.322 4.437,222.31 13.312,437.965c7.987,195.243 11.981,341.674 11.981,439.296c0,12.425 -3.772,23.518 -11.315,33.28c-7.543,9.762 -16.64,14.643 -27.29,14.643Zm282.214,-11.981c-16.862,0 -31.505,-2.219 -43.93,-6.656c-15.087,-4.437 -22.63,-16.862 -22.63,-37.274l0,-773.427c0,-15.087 -2.662,-37.717 -7.987,-67.891c-6.212,-27.511 -9.318,-50.142 -9.318,-67.891l0,-3.994c15.087,-24.849 26.18,-40.823 33.28,-47.923c12.425,0 28.843,-1.775 49.254,-5.325c18.637,-3.55 35.055,-5.325 49.254,-5.325c14.199,0 27.955,4.215 41.267,12.646c13.312,8.431 19.968,18.415 19.968,29.952c0,26.624 -20.412,39.936 -61.235,39.936l-18.637,0c-5.325,-0.887 -11.537,-1.331 -18.637,-1.331c-7.987,0 -12.868,0.444 -14.643,1.331c0,30.174 1.775,66.56 5.325,109.158l2.662,37.274l2.662,73.216c0,16.862 -1.331,42.598 -3.994,77.21l-2.662,74.547l18.637,-3.994c17.749,-5.325 32.393,-7.987 43.93,-7.987c9.762,0 18.637,3.772 26.624,11.315c7.987,7.543 11.981,16.196 11.981,25.958c0,10.65 -3.328,20.19 -9.984,28.621c-6.656,8.431 -14.865,12.646 -24.627,12.646l-15.974,-1.331l-17.306,0c-13.312,0 -22.63,3.106 -27.955,9.318l0,411.341l74.547,-3.994c50.586,0 75.878,11.537 75.878,34.611l0,5.325c-5.325,10.65 -15.087,19.302 -29.286,25.958c-14.199,6.656 -27.955,10.871 -41.267,12.646l-43.93,1.331l-41.267,0Zm921.19,26.624c-8.875,0 -15.974,-4.437 -21.299,-13.312c-5.325,-8.875 -7.987,-21.743 -7.987,-38.605l-1.331,-197.017c-0.887,-16.862 -1.331,-44.817 -1.331,-83.866c-1.775,-82.534 -2.662,-175.718 -2.662,-279.552l0,-67.891c-7.987,42.598 -21.743,102.502 -41.267,179.712c-19.524,79.872 -33.28,145.544 -41.267,197.017l0,7.987l-3.994,25.293c-1.775,19.524 -6.212,39.492 -13.312,59.904c-8.875,21.299 -22.63,31.949 -41.267,31.949c-31.949,0 -47.923,-41.711 -47.923,-125.133c0,-46.148 -4.659,-95.624 -13.978,-148.429c-9.318,-52.804 -24.183,-117.811 -44.595,-195.021l-39.936,-149.094l-2.662,159.744c0,47.923 2.219,139.332 6.656,274.227l2.662,90.522l2.662,182.374c0,18.637 -6.656,35.499 -19.968,50.586c-22.187,0 -37.495,-6.878 -45.926,-20.634c-8.431,-13.756 -12.646,-33.946 -12.646,-60.57l2.662,-109.158c2.662,-47.923 3.994,-83.866 3.994,-107.827l-2.662,-256.921l-2.662,-258.253c0,-38.161 0.887,-95.403 2.662,-171.725l35.942,-21.299c7.1,0.887 14.199,5.99 21.299,15.309c7.1,9.318 15.087,24.183 23.962,44.595c22.187,55.023 51.029,165.069 86.528,330.137c5.325,23.074 8.875,42.155 10.65,57.242c10.65,51.473 18.193,90.522 22.63,117.146l19.968,102.502l9.318,-43.93l25.293,-109.158c14.199,-63.898 25.958,-119.808 35.277,-167.731c9.318,-47.923 18.415,-99.84 27.29,-155.75c9.762,-66.56 15.974,-122.027 18.637,-166.4l0,-7.987c1.775,-11.537 7.1,-20.634 15.974,-27.29c8.875,-6.656 19.524,-9.984 31.949,-9.984c7.987,0 15.087,3.55 21.299,10.65c6.212,7.1 9.318,14.643 9.318,22.63c0,106.496 3.994,265.796 11.981,477.901c4.437,103.834 7.543,205.448 9.318,304.845c1.775,45.261 2.662,102.502 2.662,171.725c0,20.412 -5.325,38.605 -15.974,54.579c-10.65,15.974 -22.63,23.962 -35.942,23.962Zm483.225,-34.611c-14.199,0 -24.627,-2.662 -31.283,-7.987c-6.656,-5.325 -9.984,-14.199 -9.984,-26.624l0,-174.387c-11.537,-7.987 -33.28,-15.087 -65.229,-21.299c-31.949,-6.212 -62.123,-10.206 -90.522,-11.981c-9.762,18.637 -16.862,41.267 -21.299,67.891l-5.325,26.624c-0.887,6.212 -3.55,19.968 -7.987,41.267c-4.437,21.299 -9.318,39.714 -14.643,55.245c-5.325,15.531 -10.65,27.733 -15.974,36.608c-33.724,0 -53.248,-8.875 -58.573,-26.624c9.762,-14.199 20.855,-55.91 33.28,-125.133l43.93,-243.609c19.524,-115.371 37.495,-213.879 53.914,-295.526c16.418,-81.647 33.946,-149.982 52.582,-205.005c20.412,-61.235 39.936,-91.853 58.573,-91.853c18.637,0 32.836,3.55 42.598,10.65c0,35.499 8.431,121.139 25.293,256.921c17.749,133.12 26.624,224.085 26.624,272.896c0,47.036 4.881,114.483 14.643,202.342c8.875,89.634 13.312,161.075 13.312,214.323c0,30.174 -14.643,45.261 -43.93,45.261Zm-69.222,-286.208c7.1,0 15.974,-1.331 26.624,-3.994c-2.662,-39.049 -7.1,-87.415 -13.312,-145.101c-20.412,-200.567 -30.618,-323.481 -30.618,-368.742l0,-10.65c-8.875,8.875 -21.077,49.033 -36.608,120.474c-15.531,71.441 -29.952,147.985 -43.264,229.632c-13.312,81.647 -20.412,135.782 -21.299,162.406c37.274,10.65 76.766,15.974 118.477,15.974Zm332.8,300.851c-11.537,0 -21.965,-4.215 -31.283,-12.646c-9.318,-8.431 -13.978,-18.415 -13.978,-29.952c0,-7.987 1.775,-17.749 5.325,-29.286c2.662,-12.425 3.994,-21.743 3.994,-27.955c0,-78.984 -4.437,-230.741 -13.312,-455.27c-8.875,-191.693 -13.312,-343.006 -13.312,-453.939c0,-7.987 3.106,-14.421 9.318,-19.302c6.212,-4.881 13.756,-7.322 22.63,-7.322c10.65,0 19.968,3.772 27.955,11.315c7.987,7.543 11.981,16.64 11.981,27.29c0,53.248 2.662,133.12 7.987,239.616c4.437,118.033 6.656,197.905 6.656,239.616l1.331,15.974l0,31.949c2.662,77.21 3.994,192.58 3.994,346.112l0,34.611l102.502,0c18.637,13.312 27.955,26.624 27.955,39.936c0,9.762 -3.328,18.415 -9.984,25.958c-6.656,7.543 -14.421,11.315 -23.296,11.315c-2.662,0 -7.543,-0.887 -14.643,-2.662l-5.325,-1.331c-5.325,0.887 -13.756,1.331 -25.293,1.331l-22.63,0c-6.212,-0.887 -13.312,-1.331 -21.299,-1.331c-8.875,10.65 -21.299,15.974 -37.274,15.974Zm332.8,0c-11.537,0 -21.965,-4.215 -31.283,-12.646c-9.318,-8.431 -13.978,-18.415 -13.978,-29.952c0,-7.987 1.775,-17.749 5.325,-29.286c2.662,-12.425 3.994,-21.743 3.994,-27.955c0,-78.984 -4.437,-230.741 -13.312,-455.27c-8.875,-191.693 -13.312,-343.006 -13.312,-453.939c0,-7.987 3.106,-14.421 9.318,-19.302c6.212,-4.881 13.756,-7.322 22.63,-7.322c10.65,0 19.968,3.772 27.955,11.315c7.987,7.543 11.981,16.64 11.981,27.29c0,53.248 2.662,133.12 7.987,239.616c4.437,118.033 6.656,197.905 6.656,239.616l1.331,15.974l0,31.949c2.662,77.21 3.994,192.58 3.994,346.112l0,34.611l102.502,0c18.637,13.312 27.955,26.624 27.955,39.936c0,9.762 -3.328,18.415 -9.984,25.958c-6.656,7.543 -14.421,11.315 -23.296,11.315c-2.662,0 -7.543,-0.887 -14.643,-2.662l-5.325,-1.331c-5.325,0.887 -13.756,1.331 -25.293,1.331l-22.63,0c-6.212,-0.887 -13.312,-1.331 -21.299,-1.331c-8.875,10.65 -21.299,15.974 -37.274,15.974Z" style="fill:#fff;"/></svg>